<?xml version="1.0" encoding="UTF-8"?>
<svg version="1.1" xmlns="http://www.w3.org/2000/svg" width="251" height="96">
<path d="M0 0 C0.87783142 -0.00570007 1.75566284 -0.01140015 2.66009521 -0.01727295 C4.51247974 -0.0266876 6.36488074 -0.03324282 8.21728516 -0.03710938 C11.02406664 -0.04679628 13.83010932 -0.0778456 16.63671875 -0.109375 C36.34989889 -0.22645255 36.34989889 -0.22645255 45.171875 5.328125 C54.51329596 15.5592051 52.96233366 29.71589583 52.921875 42.703125 C52.92574219 43.94449219 52.92960937 45.18585937 52.93359375 46.46484375 C52.90704992 71.65493508 52.90704992 71.65493508 45.609375 79.578125 C39.81965805 82.92329479 34.5340241 84.18899032 27.85620117 84.71459961 C21.85566143 85.21240069 17.47650926 85.60434474 13.171875 90.265625 C12.58921875 90.97589844 12.0065625 91.68617187 11.40625 92.41796875 C9.796875 94.203125 9.796875 94.203125 6.421875 95.328125 C3.796875 95.203125 3.796875 95.203125 1.796875 93.203125 C1.52695594 90.51473115 1.70950143 87.91170564 1.796875 85.203125 C0.54583984 85.12964844 0.54583984 85.12964844 -0.73046875 85.0546875 C-19.5952267 83.80135879 -19.5952267 83.80135879 -25.765625 77.90234375 C-31.5981847 71.0078778 -31.35762941 61.54133348 -31.37109375 52.96875 C-31.37442215 52.20947205 -31.37775055 51.45019409 -31.38117981 50.66790771 C-31.3862084 49.07125446 -31.38858941 47.47459085 -31.38842773 45.87792969 C-31.39060688 43.47312515 -31.40878598 41.06878577 -31.42773438 38.6640625 C-31.51949117 14.50019117 -31.51949117 14.50019117 -24.9765625 6.82421875 C-17.83962699 0.30036801 -9.20606437 0.04688469 0 0 Z M-8.203125 21.203125 C-9.9115682 22.9115682 -9.33327605 25.12836952 -9.3359375 27.4609375 C-9.33787109 28.5555127 -9.33980469 29.65008789 -9.34179688 30.77783203 C-9.33728516 31.94942871 -9.33277344 33.12102539 -9.328125 34.328125 C-9.32619141 35.50616699 -9.32425781 36.68420898 -9.32226562 37.89794922 C-9.28036938 46.37146451 -8.9828811 54.76505005 -8.203125 63.203125 C-6.883125 63.203125 -5.563125 63.203125 -4.203125 63.203125 C-4.16348633 62.61821289 -4.12384766 62.03330078 -4.08300781 61.43066406 C-3.89196132 58.7697348 -3.67285294 56.1118331 -3.453125 53.453125 C-3.39125 52.53273438 -3.329375 51.61234375 -3.265625 50.6640625 C-2.67541885 43.87669175 -2.67541885 43.87669175 -0.3515625 40.5625 C1.796875 39.203125 1.796875 39.203125 5.421875 39.203125 C8.796875 40.203125 8.796875 40.203125 9.98828125 41.80078125 C11.47865853 46.22871375 11.10034044 50.94079375 11.16015625 55.57421875 C11.94148963 60.02733965 13.23056145 61.50012654 16.796875 64.203125 C20.27449832 65.12919601 23.66959094 64.44044796 27.171875 63.703125 C30.67552431 60.46898717 30.90182243 54.39334895 31.09765625 49.80859375 C31.11200391 48.33600221 31.11587388 46.86327209 31.109375 45.390625 C31.12548828 44.64103516 31.14160156 43.89144531 31.15820312 43.11914062 C31.18343289 38.90352036 31.18343289 38.90352036 29.40234375 35.19140625 C27.82722369 34.02838732 27.82722369 34.02838732 25.796875 34.203125 C25.466875 42.783125 25.136875 51.363125 24.796875 60.203125 C22.816875 60.203125 20.836875 60.203125 18.796875 60.203125 C17.01874055 56.6468561 17.46829732 52.2635953 17.3671875 48.3203125 C17.15719236 43.61292144 16.32138346 40.31006925 13.796875 36.203125 C10.72937587 33.56166742 9.36915159 33.17246733 5.296875 33.390625 C1.47860972 34.18367714 1.47860972 34.18367714 -3.203125 36.203125 C-3.533125 31.583125 -3.863125 26.963125 -4.203125 22.203125 C-5.523125 21.873125 -6.843125 21.543125 -8.203125 21.203125 Z M25.796875 22.203125 C25.466875 23.523125 25.136875 24.843125 24.796875 26.203125 C26.68003659 27.31148923 26.68003659 27.31148923 28.796875 28.203125 C29.456875 27.873125 30.116875 27.543125 30.796875 27.203125 C30.466875 25.553125 30.136875 23.903125 29.796875 22.203125 C28.476875 22.203125 27.156875 22.203125 25.796875 22.203125 Z " fill="#05ACF9" transform="translate(31.203125,-0.203125)"/>
<path d="M0 0 C6.29394813 -0.48414986 6.29394813 -0.48414986 9.1875 1.5 C11.67694527 4.93371761 11.67041489 8.1549846 11.75 12.25 C11.77964844 12.99507812 11.80929688 13.74015625 11.83984375 14.5078125 C11.9102343 16.33796672 11.95741832 18.16898769 12 20 C12.721875 19.51144531 13.44375 19.02289062 14.1875 18.51953125 C18.43755649 16.22332017 22.27927798 16.5279278 27 17 C30.125 18 30.125 18 32 19 C32 19.66 32 20.32 32 21 C32.928125 21.3403125 32.928125 21.3403125 33.875 21.6875 C36.69431893 23.42884404 36.9904738 24.87676107 38 28 C38.31884766 30.67895508 38.31884766 30.67895508 38.4140625 33.51953125 C38.47207031 35.0519043 38.47207031 35.0519043 38.53125 36.61523438 C38.5621875 37.67033203 38.593125 38.72542969 38.625 39.8125 C38.68300781 41.42415039 38.68300781 41.42415039 38.7421875 43.06835938 C38.83618613 45.71207088 38.92184573 48.3557805 39 51 C40.32 51.33 41.64 51.66 43 52 C43.66 41.11 44.32 30.22 45 19 C52 18 52 18 54.40649414 19.00854492 C56.74873687 21.93572034 56.50162407 24.14810758 56.49609375 27.86328125 C56.49754898 28.53288376 56.49900421 29.20248627 56.50050354 29.89237976 C56.49884492 31.30874989 56.4872873 32.7251381 56.46655273 34.14135742 C56.43773551 36.29490043 56.44591401 38.44595871 56.45898438 40.59960938 C56.42549471 48.00082626 56.36524563 53.75686421 51.5625 59.8125 C47.54164441 62.86835025 41.80178092 62.45345655 37 62 C33.67087337 61.13097654 30.93078539 59.83246299 28.3359375 57.51171875 C26.22438128 53.5417461 26.54452348 49.49258625 26.5 45.0625 C26.65121764 36.96966614 26.65121764 36.96966614 23 30 C19.06329512 28.68776504 16.87511856 29.75703744 13 31 C12.20947496 34.52251587 11.8472349 37.84271053 11.75390625 41.44921875 C11.72103516 42.46177734 11.68816406 43.47433594 11.65429688 44.51757812 C11.59276303 46.64245951 11.53551722 48.76746914 11.48242188 50.89257812 C11.44826172 51.90126953 11.41410156 52.90996094 11.37890625 53.94921875 C11.3538501 54.87049561 11.32879395 55.79177246 11.30297852 56.7409668 C11 59 11 59 9 61 C6.31160615 61.26991906 3.70858064 61.08737357 1 61 C-0.93999183 57.73380655 -1.24851161 55.30424402 -1.24291992 51.52880859 C-1.24599655 50.43442474 -1.24907318 49.34004089 -1.25224304 48.2124939 C-1.24505753 47.03635529 -1.23787201 45.86021667 -1.23046875 44.6484375 C-1.23001053 43.43805817 -1.22955231 42.22767883 -1.2290802 40.98062134 C-1.2260601 38.42359435 -1.21818105 35.86656916 -1.20581055 33.30957031 C-1.18753908 29.38339771 -1.185301 25.45746071 -1.18554688 21.53125 C-1.18063222 19.04947712 -1.17480412 16.56770584 -1.16796875 14.0859375 C-1.16685593 12.90575043 -1.1657431 11.72556335 -1.16459656 10.50961304 C-1.15821671 9.42153351 -1.15183685 8.33345398 -1.14526367 7.21240234 C-1.14145187 6.25183929 -1.13764008 5.29127625 -1.13371277 4.30160522 C-1 2 -1 2 0 0 Z " fill="#1FA0D9" transform="translate(110,12)"/>
<path d="M0 0 C1.01964844 -0.00515625 2.03929687 -0.0103125 3.08984375 -0.015625 C8.44796325 0.46315572 12.23153389 2.51726379 16.0625 6.25 C19.60539298 11.47547091 21.12174923 16.94588224 21.0625 23.25 C20.57421875 25.515625 20.57421875 25.515625 20.0625 27.25 C13.68792652 28.20468258 7.50188347 28.3702324 1.0625 28.3125 C0.09699219 28.30798828 -0.86851562 28.30347656 -1.86328125 28.29882812 C-4.22142089 28.28715417 -6.57942602 28.27078021 -8.9375 28.25 C-6.14329508 32.16603304 -6.14329508 32.16603304 -1.9375 34.25 C2.23273918 34.4044533 6.00396318 34.23388771 10.0625 33.25 C10.0625 32.59 10.0625 31.93 10.0625 31.25 C12.0425 30.92 14.0225 30.59 16.0625 30.25 C17.0525 31.9 18.0425 33.55 19.0625 35.25 C16.84087029 39.69325943 14.35880845 41.7949666 10.0625 44.25 C3.96868032 46.19592561 -2.71006065 45.94379258 -8.75 44.0625 C-14.8500253 40.59385817 -18.56600778 37.66591517 -20.46484375 30.84375 C-21.78176279 23.61702073 -22.07874186 16.49349143 -18.27734375 10 C-13.45806609 3.70543326 -7.99996483 -0.04035291 0 0 Z M-5.9375 11.25 C-6.5975 11.91 -7.2575 12.57 -7.9375 13.25 C-7.6075 14.57 -7.2775 15.89 -6.9375 17.25 C-1.6575 17.25 3.6225 17.25 9.0625 17.25 C6.53012901 12.02953218 6.53012901 12.02953218 1.6875 9.4375 C-1.43853781 9.21421159 -3.16731483 9.82747248 -5.9375 11.25 Z " fill="#12A4E8" transform="translate(229.9375,28.75)"/>
<path d="M0 0 C2.375 1.3125 2.375 1.3125 4.375 4.3125 C4.69384766 7.22338867 4.69384766 7.22338867 4.7890625 10.73046875 C4.82773438 11.98408203 4.86640625 13.23769531 4.90625 14.52929688 C4.9371875 15.83962891 4.968125 17.14996094 5 18.5 C5.03819338 19.8353116 5.07724591 21.17059892 5.1171875 22.50585938 C5.21159153 25.77459888 5.29717017 29.04333064 5.375 32.3125 C6.23222656 31.38566406 7.08945313 30.45882812 7.97265625 29.50390625 C9.12677966 28.29348414 10.28177395 27.08389198 11.4375 25.875 C11.99888672 25.26333984 12.56027344 24.65167969 13.13867188 24.02148438 C16.15713759 20.8995284 17.86553364 19.45144537 22.15625 18.28125 C25.375 18.3125 25.375 18.3125 27.8125 20.25 C28.328125 20.930625 28.84375 21.61125 29.375 22.3125 C25.83556073 27.30401692 22.21236455 31.63522995 17.59765625 35.671875 C16.14089336 37.24872909 16.14089336 37.24872909 16.546875 39.37109375 C17.81635265 42.3471805 20.04698238 44.08794983 22.375 46.3125 C23.92556636 48.10789262 25.44070009 49.92771822 26.9453125 51.76171875 C28.48981807 53.55931775 28.48981807 53.55931775 31.375 55.3125 C31 57.75 31 57.75 30.375 60.3125 C27.11452371 61.94273814 24.99698965 61.7798535 21.375 61.3125 C18.36366949 59.32266004 15.90356736 56.87577318 13.375 54.3125 C12.71757812 53.65636719 12.06015625 53.00023437 11.3828125 52.32421875 C10.18543643 51.12435849 8.9968425 49.91562036 7.8203125 48.6953125 C6.40390223 47.20395515 6.40390223 47.20395515 4.375 46.3125 C4.48199219 47.14394531 4.58898437 47.97539063 4.69921875 48.83203125 C4.87904297 50.46205078 4.87904297 50.46205078 5.0625 52.125 C5.19011719 53.20394531 5.31773437 54.28289062 5.44921875 55.39453125 C5.375 58.3125 5.375 58.3125 4.1171875 60.18359375 C1.29054922 62.01520465 -1.35855231 61.55005983 -4.625 61.3125 C-5.285 60.9825 -5.945 60.6525 -6.625 60.3125 C-6.625 40.8425 -6.625 21.3725 -6.625 1.3125 C-2.625 -0.6875 -2.625 -0.6875 0 0 Z " fill="#0DA9F1" transform="translate(178.625,11.6875)"/>
<path d="M0 0 C0.87358658 -0.00428513 1.74717316 -0.00857025 2.64723206 -0.01298523 C4.48169087 -0.01868876 6.31617228 -0.01925842 8.15063477 -0.01489258 C10.93089967 -0.0117307 13.71010034 -0.03524837 16.49023438 -0.06054688 C36.0537416 -0.1308039 36.0537416 -0.1308039 44.87890625 5.42578125 C54.22032721 15.65686135 52.66936491 29.81355208 52.62890625 42.80078125 C52.63277344 44.04214844 52.63664062 45.28351562 52.640625 46.5625 C52.61408117 71.75259133 52.61408117 71.75259133 45.31640625 79.67578125 C39.5266893 83.02095104 34.24105535 84.28664657 27.56323242 84.81225586 C21.56269268 85.31005694 17.18354051 85.70200099 12.87890625 90.36328125 C12.29625 91.07355469 11.71359375 91.78382812 11.11328125 92.515625 C9.50390625 94.30078125 9.50390625 94.30078125 6.12890625 95.42578125 C3.50390625 95.30078125 3.50390625 95.30078125 1.50390625 93.30078125 C1.23398719 90.6123874 1.41653268 88.00936189 1.50390625 85.30078125 C0.25287109 85.22730469 0.25287109 85.22730469 -1.0234375 85.15234375 C-19.88819545 83.89901504 -19.88819545 83.89901504 -26.05859375 78 C-31.95080103 71.03502672 -31.65535081 61.50782793 -31.59375 52.86328125 C-31.59233505 52.09773926 -31.5909201 51.33219727 -31.58946228 50.54345703 C-31.58392228 48.12918983 -31.57138154 45.71501981 -31.55859375 43.30078125 C-31.55357098 41.65104302 -31.54900944 40.00130331 -31.54492188 38.3515625 C-31.53397261 34.3345987 -31.51675041 30.31770638 -31.49609375 26.30078125 C-30.83609375 26.30078125 -30.17609375 26.30078125 -29.49609375 26.30078125 C-29.47627441 27.13625488 -29.45645508 27.97172852 -29.43603516 28.83251953 C-29.35680146 32.0049317 -29.27009092 35.17703728 -29.17871094 38.34912109 C-29.12269641 40.36801749 -29.07489892 42.38713663 -29.02734375 44.40625 C-28.72656694 60.22206322 -28.72656694 60.22206322 -24.49609375 75.30078125 C-23.83609375 75.30078125 -23.17609375 75.30078125 -22.49609375 75.30078125 C-22.49609375 75.96078125 -22.49609375 76.62078125 -22.49609375 77.30078125 C-21.83609375 77.30078125 -21.17609375 77.30078125 -20.49609375 77.30078125 C-20.49609375 77.96078125 -20.49609375 78.62078125 -20.49609375 79.30078125 C-18.63984375 79.48640625 -18.63984375 79.48640625 -16.74609375 79.67578125 C-10.95655776 80.31290722 -5.23233079 81.30106481 0.50390625 82.30078125 C0.50390625 82.96078125 0.50390625 83.62078125 0.50390625 84.30078125 C1.49390625 84.63078125 2.48390625 84.96078125 3.50390625 85.30078125 C3.83390625 87.28078125 4.16390625 89.26078125 4.50390625 91.30078125 C8.75820667 90.38914545 10.72666435 89.25716858 13.19140625 85.80078125 C16.43462929 81.72986066 19.52271748 81.20723676 24.55078125 80.5546875 C28.39509793 80.22415763 32.2390946 79.91817324 36.09375 79.7421875 C39.04664782 79.20138126 40.36356353 78.3998754 42.50390625 76.30078125 C43.82911384 73.82885821 43.82911384 73.82885821 44.75390625 71.11328125 C45.25664062 69.76169922 45.25664062 69.76169922 45.76953125 68.3828125 C46.13304688 67.35220703 46.13304688 67.35220703 46.50390625 66.30078125 C47.16390625 66.30078125 47.82390625 66.30078125 48.50390625 66.30078125 C48.46196829 59.80821812 48.38938339 53.31649367 48.29638672 46.82446289 C48.26831816 44.62011296 48.24703409 42.41566502 48.23291016 40.21118164 C48.21128434 37.02569914 48.16453421 33.84137771 48.11328125 30.65625 C48.11205261 29.68495651 48.11082397 28.71366302 48.10955811 27.7129364 C47.96636676 20.88586139 47.23567419 14.17765152 43.50390625 8.30078125 C38.06578222 4.48476102 30.7785853 4.870718 24.38671875 4.9375 C23.44891571 4.9370015 22.51111267 4.93650299 21.54489136 4.93598938 C19.57336291 4.93831567 17.60183068 4.94795805 15.63037109 4.96459961 C12.64392967 4.98816271 9.65838577 4.98515232 6.671875 4.97851562 C-7.02822617 4.97296317 -7.02822617 4.97296317 -20.49609375 7.30078125 C-20.49609375 7.96078125 -20.49609375 8.62078125 -20.49609375 9.30078125 C-22.47609375 9.96078125 -24.45609375 10.62078125 -26.49609375 11.30078125 C-26.55667969 12.06003906 -26.61726563 12.81929687 -26.6796875 13.6015625 C-26.76347656 14.59542969 -26.84726562 15.58929688 -26.93359375 16.61328125 C-27.01480469 17.59941406 -27.09601562 18.58554687 -27.1796875 19.6015625 C-27.49609375 22.30078125 -27.49609375 22.30078125 -28.49609375 25.30078125 C-29.15609375 25.30078125 -29.81609375 25.30078125 -30.49609375 25.30078125 C-31.04230954 18.74619182 -30.51112605 13.67300756 -26.49609375 8.30078125 C-19.09843169 0.7695271 -10.12328474 -0.01126545 0 0 Z " fill="#1BA4DF" transform="translate(31.49609375,-0.30078125)"/>
<path d="M0 0 C2.06640625 0.7890625 2.06640625 0.7890625 3.62890625 3.0390625 C4.06640625 5.7890625 4.06640625 5.7890625 4.06640625 11.7890625 C8.02640625 12.1190625 11.98640625 12.4490625 16.06640625 12.7890625 C16.06640625 13.4490625 16.06640625 14.1090625 16.06640625 14.7890625 C16.85015625 14.9128125 17.63390625 15.0365625 18.44140625 15.1640625 C21.06640625 15.7890625 21.06640625 15.7890625 23.06640625 17.7890625 C23.69140625 20.4140625 23.69140625 20.4140625 24.06640625 22.7890625 C25.20121152 19.17913078 25.16656392 15.8048298 25.12890625 12.0390625 C25.11988281 10.86859375 25.11085937 9.698125 25.1015625 8.4921875 C25.08996094 7.60015625 25.07835937 6.708125 25.06640625 5.7890625 C24.07640625 5.4590625 23.08640625 5.1290625 22.06640625 4.7890625 C23.61311308 2.34689382 24.94024992 0.87089363 27.37890625 -0.7109375 C30.06640625 -1.2109375 30.06640625 -1.2109375 33.37890625 0.1640625 C36.06640625 2.7890625 36.06640625 2.7890625 36.4453125 4.84375 C36.44140625 7.0390625 36.44140625 7.0390625 36.06640625 10.7890625 C35.07640625 11.1190625 34.08640625 11.4490625 33.06640625 11.7890625 C33.06640625 12.7790625 33.06640625 13.7690625 33.06640625 14.7890625 C34.05640625 14.7890625 35.04640625 14.7890625 36.06640625 14.7890625 C36.09342033 16.89315889 36.11280848 18.99735428 36.12890625 21.1015625 C36.14050781 22.27332031 36.15210938 23.44507813 36.1640625 24.65234375 C36.06640625 27.7890625 36.06640625 27.7890625 35.06640625 30.7890625 C34.40640625 30.4590625 33.74640625 30.1290625 33.06640625 29.7890625 C33.06640625 25.4990625 33.06640625 21.2090625 33.06640625 16.7890625 C31.74640625 16.4590625 30.42640625 16.1290625 29.06640625 15.7890625 C29.0821167 16.5003833 29.09782715 17.2117041 29.11401367 17.94458008 C29.1763254 21.16349354 29.21538492 24.38228018 29.25390625 27.6015625 C29.27904297 28.72111328 29.30417969 29.84066406 29.33007812 30.99414062 C29.33974609 32.06728516 29.34941406 33.14042969 29.359375 34.24609375 C29.37508545 35.23585205 29.3907959 36.22561035 29.40698242 37.24536133 C29.06640625 39.7890625 29.06640625 39.7890625 27.7121582 41.6472168 C26.06640625 42.7890625 26.06640625 42.7890625 23.44140625 42.6015625 C21.06640625 41.7890625 21.06640625 41.7890625 20.06640625 39.7890625 C19.8669317 36.49403852 19.72132714 33.2059771 19.63671875 29.90625 C19.42671423 25.19864861 18.57669201 21.90418268 16.06640625 17.7890625 C13.40600241 15.60373077 12.10982203 15.78590499 8.62890625 16.0390625 C5.54893091 16.68747836 2.92160212 17.49124619 0.06640625 18.7890625 C-1.87450201 16.84815424 -1.3327881 13.31612348 -1.49609375 10.7265625 C-1.57988281 9.43621094 -1.66367187 8.14585938 -1.75 6.81640625 C-1.81058594 5.81738281 -1.87117188 4.81835938 -1.93359375 3.7890625 C-2.92359375 3.7890625 -3.91359375 3.7890625 -4.93359375 3.7890625 C-4.93359375 17.3190625 -4.93359375 30.8490625 -4.93359375 44.7890625 C-3.61359375 44.7890625 -2.29359375 44.7890625 -0.93359375 44.7890625 C-0.95679688 43.87125 -0.98 42.9534375 -1.00390625 42.0078125 C-1.24499022 25.61410263 -1.24499022 25.61410263 2.75390625 20.7265625 C6.2453851 19.3110981 8.4896988 19.74856579 12.06640625 20.7890625 C15.29468191 24.80563803 15.47353201 28.30440581 15.62890625 33.3515625 C15.74177144 39.37497031 15.74177144 39.37497031 18.06640625 44.7890625 C19.64964313 44.8162555 21.23301687 44.83554556 22.81640625 44.8515625 C23.698125 44.86316406 24.57984375 44.87476563 25.48828125 44.88671875 C27.84829005 44.79732448 29.81139149 44.45819071 32.06640625 43.7890625 C32.39640625 41.4790625 32.72640625 39.1690625 33.06640625 36.7890625 C33.72640625 36.7890625 34.38640625 36.7890625 35.06640625 36.7890625 C35.37789402 40.21542799 35.54118676 42.12436979 33.50390625 44.9765625 C30.1665671 47.45817366 27.92514111 47.19123787 23.81640625 47.0390625 C22.553125 47.00296875 21.28984375 46.966875 19.98828125 46.9296875 C19.0240625 46.88328125 18.05984375 46.836875 17.06640625 46.7890625 C17.06640625 46.1290625 17.06640625 45.4690625 17.06640625 44.7890625 C15.74640625 44.1290625 14.42640625 43.4690625 13.06640625 42.7890625 C13.0413501 42.21873291 13.01629395 41.64840332 12.99047852 41.06079102 C12.87484076 38.49080093 12.75197001 35.92120723 12.62890625 33.3515625 C12.58958984 32.45373047 12.55027344 31.55589844 12.50976562 30.63085938 C12.46787109 29.77685547 12.42597656 28.92285156 12.3828125 28.04296875 C12.34615479 27.25220947 12.30949707 26.4614502 12.27172852 25.64672852 C12.26077368 23.77504809 12.26077368 23.77504809 11.06640625 22.7890625 C8.00159604 22.6277567 6.01091347 22.80756009 3.06640625 23.7890625 C3.01105713 24.41997803 2.95570801 25.05089355 2.89868164 25.70092773 C2.64672505 28.5432393 2.38790856 31.38488469 2.12890625 34.2265625 C1.99838867 35.71639648 1.99838867 35.71639648 1.86523438 37.23632812 C1.77822266 38.18056641 1.69121094 39.12480469 1.6015625 40.09765625 C1.52301025 40.97220459 1.44445801 41.84675293 1.36352539 42.74780273 C1.06640625 44.7890625 1.06640625 44.7890625 0.06640625 45.7890625 C-2.93359375 45.9140625 -2.93359375 45.9140625 -5.93359375 45.7890625 C-7.48452824 44.23812801 -7.14046815 42.70453521 -7.23071289 40.54467773 C-7.27067886 39.64381943 -7.31064484 38.74296112 -7.3518219 37.81480408 C-7.40970131 36.3460659 -7.40970131 36.3460659 -7.46875 34.84765625 C-7.51172714 33.85024918 -7.55470428 32.8528421 -7.59898376 31.82521057 C-7.73581098 28.62583201 -7.8660185 25.42622201 -7.99609375 22.2265625 C-8.08745617 20.06313265 -8.17924734 17.89972086 -8.27148438 15.73632812 C-8.49717087 10.42077282 -8.71741683 5.10501257 -8.93359375 -0.2109375 C-5.82886834 -1.76330021 -3.28256778 -0.79034537 0 0 Z M29.06640625 3.7890625 C28.73640625 5.1090625 28.40640625 6.4290625 28.06640625 7.7890625 C29.94956784 8.89742673 29.94956784 8.89742673 32.06640625 9.7890625 C32.72640625 9.4590625 33.38640625 9.1290625 34.06640625 8.7890625 C33.73640625 7.1390625 33.40640625 5.4890625 33.06640625 3.7890625 C31.74640625 3.7890625 30.42640625 3.7890625 29.06640625 3.7890625 Z " fill="#15A5E6" transform="translate(27.93359375,18.2109375)"/>
<path d="M0 0 C2.375 1.3125 2.375 1.3125 4.375 4.3125 C4.69384766 7.22338867 4.69384766 7.22338867 4.7890625 10.73046875 C4.82773438 11.98408203 4.86640625 13.23769531 4.90625 14.52929688 C4.9371875 15.83962891 4.968125 17.14996094 5 18.5 C5.03819338 19.8353116 5.07724591 21.17059892 5.1171875 22.50585938 C5.21158885 25.77450611 5.29438832 29.04348412 5.375 32.3125 C9.335 28.3525 13.295 24.3925 17.375 20.3125 C17.375 23.3125 17.375 23.3125 15.66015625 25.25 C14.92667969 25.930625 14.19320312 26.61125 13.4375 27.3125 C10.16842946 30.31390949 10.16842946 30.31390949 8.375 34.3125 C6.4375 35.125 6.4375 35.125 4.375 35.3125 C2.375 33.3125 2.375 33.3125 2.14794922 30.51513672 C2.16365967 28.77127686 2.16365967 28.77127686 2.1796875 26.9921875 C2.18613281 25.73535156 2.19257813 24.47851562 2.19921875 23.18359375 C2.21597656 21.86488281 2.23273438 20.54617187 2.25 19.1875 C2.26003017 17.84766279 2.26915596 16.50781848 2.27734375 15.16796875 C2.30097925 11.88263427 2.33392766 8.59765535 2.375 5.3125 C0.065 4.9825 -2.245 4.6525 -4.625 4.3125 C-4.625 22.1325 -4.625 39.9525 -4.625 58.3125 C-1.655 57.8175 -1.655 57.8175 1.375 57.3125 C2.035 53.3525 2.695 49.3925 3.375 45.3125 C6.015 45.6425 8.655 45.9725 11.375 46.3125 C11.375 44.3325 11.375 42.3525 11.375 40.3125 C12.365 40.3125 13.355 40.3125 14.375 40.3125 C14.03082031 39.45205078 14.03082031 39.45205078 13.6796875 38.57421875 C13.375 36.3125 13.375 36.3125 14.6328125 34.20703125 C15.24898437 33.51996094 15.86515625 32.83289062 16.5 32.125 C17.10070312 31.43019531 17.70140625 30.73539063 18.3203125 30.01953125 C20.68591539 28.05419196 22.35495963 27.66257388 25.375 27.3125 C24.43909496 28.4180189 23.50120142 29.52185453 22.5625 30.625 C22.04042969 31.23988281 21.51835937 31.85476562 20.98046875 32.48828125 C19.375 34.3125 19.375 34.3125 17.67578125 35.92578125 C16.16120434 37.2235335 16.16120434 37.2235335 16.375 39.1875 C17.79871617 42.21289685 19.96067135 44.00547485 22.375 46.3125 C23.92556636 48.10789262 25.44070009 49.92771822 26.9453125 51.76171875 C28.48981807 53.55931775 28.48981807 53.55931775 31.375 55.3125 C31 57.75 31 57.75 30.375 60.3125 C27.11452371 61.94273814 24.99698965 61.7798535 21.375 61.3125 C18.36366949 59.32266004 15.90356736 56.87577318 13.375 54.3125 C12.71757812 53.65636719 12.06015625 53.00023437 11.3828125 52.32421875 C10.18543643 51.12435849 8.9968425 49.91562036 7.8203125 48.6953125 C6.40390223 47.20395515 6.40390223 47.20395515 4.375 46.3125 C4.48199219 47.14394531 4.58898437 47.97539063 4.69921875 48.83203125 C4.87904297 50.46205078 4.87904297 50.46205078 5.0625 52.125 C5.19011719 53.20394531 5.31773437 54.28289062 5.44921875 55.39453125 C5.375 58.3125 5.375 58.3125 4.1171875 60.18359375 C1.29054922 62.01520465 -1.35855231 61.55005983 -4.625 61.3125 C-5.285 60.9825 -5.945 60.6525 -6.625 60.3125 C-6.625 40.8425 -6.625 21.3725 -6.625 1.3125 C-2.625 -0.6875 -2.625 -0.6875 0 0 Z " fill="#0CAAF5" transform="translate(178.625,11.6875)"/>
<path d="M0 0 C5.45643879 2.97623934 8.00480659 6.08716119 10 12 C10.96285226 16.58107052 11.33502999 20.47516552 10 25 C3.62542652 25.95468258 -2.56061653 26.1202324 -9 26.0625 C-9.96550781 26.05798828 -10.93101562 26.05347656 -11.92578125 26.04882812 C-14.28392089 26.03715417 -16.64192602 26.02078021 -19 26 C-16.20579508 29.91603304 -16.20579508 29.91603304 -12 32 C-7.82976082 32.1544533 -4.05853682 31.98388771 0 31 C0 30.34 0 29.68 0 29 C1.98 28.67 3.96 28.34 6 28 C6.99 29.65 7.98 31.3 9 33 C6.77837029 37.44325943 4.29630845 39.5449666 0 42 C-5.89099058 43.88115666 -13.16193479 44.05022511 -18.9375 41.75 C-21.85155524 40.08482558 -23.70214736 38.4020749 -26 36 C-25.24976563 36.2165625 -24.49953125 36.433125 -23.7265625 36.65625 C-15.21906944 38.97063098 -6.30988806 41.05360393 2 37 C3.87310888 35.006748 3.87310888 35.006748 5 33 C1.39007621 33.65585189 1.39007621 33.65585189 -2 35 C-3.95637514 35.0969632 -5.91622931 35.12978917 -7.875 35.125 C-8.92429688 35.12757812 -9.97359375 35.13015625 -11.0546875 35.1328125 C-15.73316379 34.92184673 -15.73316379 34.92184673 -18 34 C-19.69968841 31.81243807 -20.73478913 29.48523563 -22 27 C-21.34 27 -20.68 27 -20 27 C-20.14168137 25.56208484 -20.28851043 24.1246763 -20.4375 22.6875 C-20.51871094 21.88699219 -20.59992188 21.08648437 -20.68359375 20.26171875 C-20.95265693 17.83912821 -20.95265693 17.83912821 -22 15 C-21 11.4375 -21 11.4375 -19 8 C-15.3125 6.5625 -15.3125 6.5625 -12 6 C-12 5.67 -12 5.34 -12 5 C-10.02 5 -8.04 5 -6 5 C-6 5.66 -6 6.32 -6 7 C-5.401875 7.0825 -4.80375 7.165 -4.1875 7.25 C-1.26251194 8.25285305 -0.4082205 9.25767587 1 12 C0.57446809 17.42553191 0.57446809 17.42553191 -1 19 C-3.86267567 19.07325168 -6.700719 19.09238205 -9.5625 19.0625 C-10.36880859 19.05798828 -11.17511719 19.05347656 -12.00585938 19.04882812 C-14.00393756 19.03700518 -16.00197783 19.01906914 -18 19 C-18 19.99 -18 20.98 -18 22 C-9.42 22 -0.84 22 8 22 C7.01 18.04 6.02 14.08 5 10 C4.67 8.35 4.34 6.7 4 5 C3.01 5 2.02 5 1 5 C0.67 3.35 0.34 1.7 0 0 Z M-16 9 C-16.66 9.66 -17.32 10.32 -18 11 C-17.67 12.32 -17.34 13.64 -17 15 C-11.72 15 -6.44 15 -1 15 C-3.53237099 9.77953218 -3.53237099 9.77953218 -8.375 7.1875 C-11.50103781 6.96421159 -13.22981483 7.57747248 -16 9 Z " fill="#299CCB" transform="translate(240,31)"/>
<path d="M0 0 C0 0.66 0 1.32 0 2 C1.32 2.33 2.64 2.66 4 3 C4 3.66 4 4.32 4 5 C4.99 5.33 5.98 5.66 7 6 C8.1026539 8.89285911 8.17041815 11.8065647 8.28125 14.87890625 C8.31863281 15.79994141 8.35601562 16.72097656 8.39453125 17.66992188 C8.46498599 19.60220836 8.53529792 21.53450006 8.60546875 23.46679688 C8.64285156 24.38654297 8.68023437 25.30628906 8.71875 26.25390625 C8.74904297 27.09252197 8.77933594 27.9311377 8.81054688 28.79516602 C8.92848769 31.17521185 8.92848769 31.17521185 10 34 C12.97 34 15.94 34 19 34 C20.00708069 22.9760632 20.10611887 12.05994427 20 1 C22.64 0.67 25.28 0.34 28 0 C28.495 0.99 28.495 0.99 29 2 C27.68 2 26.36 2 25 2 C25.495 2.99 25.495 2.99 26 4 C26.27263935 8.59893012 26.23167643 13.20641322 26.25 17.8125 C26.270625 19.09705078 26.29125 20.38160156 26.3125 21.70507812 C26.32023437 23.56229492 26.32023437 23.56229492 26.328125 25.45703125 C26.34214355 27.1582312 26.34214355 27.1582312 26.35644531 28.89379883 C25.95601607 32.38329285 25.09943935 34.20904936 23 37 C20.00261059 38.99825961 19.36652492 39.27550398 16 39.25 C15.319375 39.25515625 14.63875 39.2603125 13.9375 39.265625 C12 39 12 39 9 37 C8.67 37 8.34 37 8 37 C7.01 37 6.02 37 5 37 C2.23058339 31.57238833 2.61713728 25.89791836 2.52148438 19.94921875 C2.35251072 14.71515673 1.89247494 10.89247494 -2 7 C-3.68183948 6.76712992 -5.3712416 6.58735834 -7.0625 6.4375 C-7.98160156 6.35371094 -8.90070313 6.26992188 -9.84765625 6.18359375 C-10.91306641 6.09271484 -10.91306641 6.09271484 -12 6 C-11 3 -11 3 -8.8125 1.3125 C-5.63225084 -0.17161628 -3.46785727 -0.24194353 0 0 Z " fill="#0AAAF5" transform="translate(137,32)"/>
<path d="M0 0 C1.2065625 0.0309375 1.2065625 0.0309375 2.4375 0.0625 C2.4375 0.7225 2.4375 1.3825 2.4375 2.0625 C3.0975 2.0625 3.7575 2.0625 4.4375 2.0625 C4.4375 20.5425 4.4375 39.0225 4.4375 58.0625 C2.1275 58.0625 -0.1825 58.0625 -2.5625 58.0625 C-4.26815618 56.35684382 -3.69002055 54.15516505 -3.69189453 51.82421875 C-3.69504669 50.70635986 -3.69819885 49.58850098 -3.70144653 48.43676758 C-3.6994223 47.22013428 -3.69739807 46.00350098 -3.6953125 44.75 C-3.69626923 43.51080811 -3.69722595 42.27161621 -3.69821167 40.99487305 C-3.69889374 38.36861719 -3.69753538 35.74245367 -3.69287109 33.11621094 C-3.68717381 29.74321286 -3.69045302 26.37029435 -3.69644356 22.99729919 C-3.7009177 19.78986323 -3.69778882 16.582437 -3.6953125 13.375 C-3.69733673 12.1583667 -3.69936096 10.9417334 -3.70144653 9.68823242 C-3.69829437 8.57037354 -3.69514221 7.45251465 -3.69189453 6.30078125 C-3.69109894 5.31118408 -3.69030334 4.32158691 -3.68948364 3.30200195 C-3.50671287 0.07863007 -3.24990644 0.07926601 0 0 Z " fill="#07ABF7" transform="translate(114.5625,13.9375)"/>
<path d="M0 0 C0.66 0 1.32 0 2 0 C2.01981934 0.83547363 2.03963867 1.67094727 2.06005859 2.53173828 C2.13929229 5.70415045 2.22600283 8.87625603 2.31738281 12.04833984 C2.37339734 14.06723624 2.42119483 16.08635538 2.46875 18.10546875 C2.76952681 33.92128197 2.76952681 33.92128197 7 49 C7.66 49 8.32 49 9 49 C9 49.66 9 50.32 9 51 C9.66 51 10.32 51 11 51 C11 51.66 11 52.32 11 53 C12.85625 53.185625 12.85625 53.185625 14.75 53.375 C20.53953599 54.01212597 26.26376296 55.00028356 32 56 C32 56.66 32 57.32 32 58 C32.99 58.33 33.98 58.66 35 59 C35.495 61.97 35.495 61.97 36 65 C40.25430042 64.0883642 42.2227581 62.95638733 44.6875 59.5 C47.91177283 55.48423901 50.86760769 54.91126637 55.8515625 54.2421875 C58.11366944 54.06817927 60.38081724 53.95564827 62.6484375 53.8828125 C69.16299991 53.94884934 69.16299991 53.94884934 75 51.60546875 C76.55649662 49.82103198 76.55649662 49.82103198 78 47 C78.66 47.66 79.32 48.32 80 49 C77.08082283 53.15421367 74.70795595 55.10841056 70 57 C66.55917423 57.57611979 63.09693839 57.85944762 59.625 58.1875 C50.93611921 59.07377805 50.93611921 59.07377805 44.0625 64.125 C43.52496094 64.82625 42.98742188 65.5275 42.43359375 66.25 C41 68 41 68 37.625 69.125 C35 69 35 69 33 67 C32.73008094 64.31160615 32.91262643 61.70858064 33 59 C32.16597656 58.95101562 31.33195312 58.90203125 30.47265625 58.8515625 C11.6078983 57.59823379 11.6078983 57.59823379 5.4375 51.69921875 C-0.45470728 44.73424547 -0.15925706 35.20704668 -0.09765625 26.5625 C-0.0962413 25.79695801 -0.09482635 25.03141602 -0.09336853 24.24267578 C-0.08782853 21.82840858 -0.07528779 19.41423856 -0.0625 17 C-0.05747723 15.35026177 -0.05291569 13.70052206 -0.04882812 12.05078125 C-0.03787886 8.03381745 -0.02065666 4.01692513 0 0 Z " fill="#239ECF" transform="translate(0,26)"/>
<path d="M0 0 C2 3 2 3 2 6 C2.99 6 3.98 6 5 6 C5.6789678 7.70348171 6.34261957 9.41307179 7 11.125 C7.37125 12.07632813 7.7425 13.02765625 8.125 14.0078125 C9 17 9 17 9 23 C0.42 23 -8.16 23 -17 23 C-17 22.01 -17 21.02 -17 20 C-8.585 19.505 -8.585 19.505 0 19 C1.55410262 13.45968246 1.55410262 13.45968246 -0.25 10.6875 C-1.99500355 8.76228767 -1.99500355 8.76228767 -5 8 C-5 7.34 -5 6.68 -5 6 C-6.65 6.33 -8.3 6.66 -10 7 C-10 7.33 -10 7.66 -10 8 C-12.64 8.33 -15.28 8.66 -18 9 C-18 9.66 -18 10.32 -18 11 C-19.32 11 -20.64 11 -22 11 C-22 11.66 -22 12.32 -22 13 C-22.99 13 -23.98 13 -25 13 C-24.45925627 9.21479387 -22.92427254 7.40822445 -20 5 C-19.01 5 -18.02 5 -17 5 C-17 4.01 -17 3.02 -17 2 C-14.00910037 0.50455019 -11.25847654 0.94594545 -7.9375 1 C-5.62530502 1.0375585 -3.31202706 1.04676667 -1 1 C-0.67 0.67 -0.34 0.34 0 0 Z " fill="#0DA8F3" transform="translate(239,30)"/>
<path d="M0 0 C2.31 0 4.62 0 7 0 C8.32229189 2.64458379 8.09677194 4.67761301 8.0625 7.625 C8.05347656 8.62789062 8.04445313 9.63078125 8.03515625 10.6640625 C8.02355469 11.43492188 8.01195312 12.20578125 8 13 C8.99 12.67 9.98 12.34 11 12 C13.33299825 11.96045766 15.66708189 11.95598268 18 12 C17.443125 12.268125 16.88625 12.53625 16.3125 12.8125 C13.90694879 13.99530663 13.90694879 13.99530663 11.4375 15.6875 C10.2309375 16.3371875 10.2309375 16.3371875 9 17 C8.01 16.67 7.02 16.34 6 16 C5.67 11.38 5.34 6.76 5 2 C4.01 2 3.02 2 2 2 C2 15.53 2 29.06 2 43 C3.32 43 4.64 43 6 43 C5.97679687 42.0821875 5.95359375 41.164375 5.9296875 40.21875 C5.68860353 23.82504013 5.68860353 23.82504013 9.6875 18.9375 C13.17897885 17.5220356 15.42329255 17.95950329 19 19 C22.22827566 23.01657553 22.40712576 26.51534331 22.5625 31.5625 C22.67536519 37.58590781 22.67536519 37.58590781 25 43 C26.58323688 43.027193 28.16661062 43.04648306 29.75 43.0625 C30.63171875 43.07410156 31.5134375 43.08570313 32.421875 43.09765625 C34.7818838 43.00826198 36.74498524 42.66912821 39 42 C39.33 39.69 39.66 37.38 40 35 C40.66 35 41.32 35 42 35 C42.31148777 38.42636549 42.47478051 40.33530729 40.4375 43.1875 C37.10016085 45.66911116 34.85873486 45.40217537 30.75 45.25 C29.48671875 45.21390625 28.2234375 45.1778125 26.921875 45.140625 C25.95765625 45.09421875 24.9934375 45.0478125 24 45 C24 44.34 24 43.68 24 43 C22.68 42.34 21.36 41.68 20 41 C19.97494385 40.42967041 19.9498877 39.85934082 19.92407227 39.27172852 C19.80843451 36.70173843 19.68556376 34.13214473 19.5625 31.5625 C19.52318359 30.66466797 19.48386719 29.76683594 19.44335938 28.84179688 C19.40146484 27.98779297 19.35957031 27.13378906 19.31640625 26.25390625 C19.27974854 25.46314697 19.24309082 24.6723877 19.20532227 23.85766602 C19.19436743 21.98598559 19.19436743 21.98598559 18 21 C14.93518979 20.8386942 12.94450722 21.01849759 10 22 C9.94465088 22.63091553 9.88930176 23.26183105 9.83227539 23.91186523 C9.5803188 26.7541768 9.32150231 29.59582219 9.0625 32.4375 C8.93198242 33.92733398 8.93198242 33.92733398 8.79882812 35.44726562 C8.71181641 36.39150391 8.62480469 37.33574219 8.53515625 38.30859375 C8.456604 39.18314209 8.37805176 40.05769043 8.29711914 40.95874023 C8 43 8 43 7 44 C4 44.125 4 44.125 1 44 C-1.19567259 41.80432741 -0.47996047 36.8626677 -0.625 33.8125 C-0.67003662 32.88735596 -0.71507324 31.96221191 -0.76147461 31.0090332 C-1.18005201 20.64554414 -0.66038784 10.34308114 0 0 Z " fill="#39A5CF" transform="translate(21,20)"/>
<path d="M0 0 C2.375 1.3125 2.375 1.3125 4.375 4.3125 C4.69384766 7.22338867 4.69384766 7.22338867 4.7890625 10.73046875 C4.82773438 11.98408203 4.86640625 13.23769531 4.90625 14.52929688 C4.9371875 15.83962891 4.968125 17.14996094 5 18.5 C5.03819338 19.8353116 5.07724591 21.17059892 5.1171875 22.50585938 C5.21158885 25.77450611 5.29438832 29.04348412 5.375 32.3125 C9.335 28.3525 13.295 24.3925 17.375 20.3125 C17.375 23.3125 17.375 23.3125 15.66015625 25.25 C14.92667969 25.930625 14.19320312 26.61125 13.4375 27.3125 C10.16842946 30.31390949 10.16842946 30.31390949 8.375 34.3125 C6.4375 35.125 6.4375 35.125 4.375 35.3125 C2.375 33.3125 2.375 33.3125 2.14794922 30.51513672 C2.16365967 28.77127686 2.16365967 28.77127686 2.1796875 26.9921875 C2.18613281 25.73535156 2.19257813 24.47851562 2.19921875 23.18359375 C2.21597656 21.86488281 2.23273438 20.54617187 2.25 19.1875 C2.26003017 17.84766279 2.26915596 16.50781848 2.27734375 15.16796875 C2.30097925 11.88263427 2.33392766 8.59765535 2.375 5.3125 C0.065 4.9825 -2.245 4.6525 -4.625 4.3125 C-4.625 22.1325 -4.625 39.9525 -4.625 58.3125 C-1.655 57.8175 -1.655 57.8175 1.375 57.3125 C2.035 53.3525 2.695 49.3925 3.375 45.3125 C9.45256517 46.52801303 10.3600732 47.92409164 14.375 52.3125 C14.045 52.9725 13.715 53.6325 13.375 54.3125 C12.89289063 53.81878906 12.41078125 53.32507813 11.9140625 52.81640625 C10.96660156 51.85541016 10.96660156 51.85541016 10 50.875 C9.06027344 49.91787109 9.06027344 49.91787109 8.1015625 48.94140625 C6.45776939 47.23367824 6.45776939 47.23367824 4.375 46.3125 C4.48199219 47.14394531 4.58898437 47.97539063 4.69921875 48.83203125 C4.87904297 50.46205078 4.87904297 50.46205078 5.0625 52.125 C5.19011719 53.20394531 5.31773437 54.28289062 5.44921875 55.39453125 C5.375 58.3125 5.375 58.3125 4.1171875 60.18359375 C1.29054922 62.01520465 -1.35855231 61.55005983 -4.625 61.3125 C-5.285 60.9825 -5.945 60.6525 -6.625 60.3125 C-6.625 40.8425 -6.625 21.3725 -6.625 1.3125 C-2.625 -0.6875 -2.625 -0.6875 0 0 Z " fill="#3B9DC7" transform="translate(178.625,11.6875)"/>
<path d="M0 0 C5.44362381 2.96924935 8.02910483 6.08731448 10 12 C10.55323096 14.99860476 10.85904876 17.95545331 11 21 C10.34 21 9.68 21 9 21 C9 21.66 9 22.32 9 23 C-0.9 23.33 -10.8 23.66 -21 24 C-21 22.02 -21 20.04 -21 18 C-21.33 17.01 -21.66 16.02 -22 15 C-21 11.4375 -21 11.4375 -19 8 C-15.3125 6.5625 -15.3125 6.5625 -12 6 C-12 5.67 -12 5.34 -12 5 C-10.02 5 -8.04 5 -6 5 C-6 5.66 -6 6.32 -6 7 C-5.401875 7.0825 -4.80375 7.165 -4.1875 7.25 C-1.26251194 8.25285305 -0.4082205 9.25767587 1 12 C0.57446809 17.42553191 0.57446809 17.42553191 -1 19 C-3.86267567 19.07325168 -6.700719 19.09238205 -9.5625 19.0625 C-10.36880859 19.05798828 -11.17511719 19.05347656 -12.00585938 19.04882812 C-14.00393756 19.03700518 -16.00197783 19.01906914 -18 19 C-18 19.99 -18 20.98 -18 22 C-9.42 22 -0.84 22 8 22 C7.01 18.04 6.02 14.08 5 10 C4.67 8.35 4.34 6.7 4 5 C3.01 5 2.02 5 1 5 C0.67 3.35 0.34 1.7 0 0 Z M-16 9 C-16.66 9.66 -17.32 10.32 -18 11 C-17.67 12.32 -17.34 13.64 -17 15 C-11.72 15 -6.44 15 -1 15 C-3.53237099 9.77953218 -3.53237099 9.77953218 -8.375 7.1875 C-11.50103781 6.96421159 -13.22981483 7.57747248 -16 9 Z " fill="#13A5E3" transform="translate(240,31)"/>
<path d="M0 0 C2.33294775 -0.04241723 4.66702567 -0.04092937 7 0 C8 1 8 1 8.09765625 2.84765625 C8.06510417 4.8984375 8.03255208 6.94921875 8 9 C7.01 9.33 6.02 9.66 5 10 C5 10.99 5 11.98 5 13 C5.99 13 6.98 13 8 13 C8.02701408 15.10409639 8.04640223 17.20829178 8.0625 19.3125 C8.07410156 20.48425781 8.08570312 21.65601563 8.09765625 22.86328125 C8 26 8 26 7 29 C6.34 28.67 5.68 28.34 5 28 C5 23.71 5 19.42 5 15 C3.68 14.67 2.36 14.34 1 14 C1.02356567 15.0669812 1.02356567 15.0669812 1.04760742 16.15551758 C1.10991915 19.37443104 1.14897867 22.59321768 1.1875 25.8125 C1.21263672 26.93205078 1.23777344 28.05160156 1.26367188 29.20507812 C1.27817383 30.81479492 1.27817383 30.81479492 1.29296875 32.45703125 C1.31653442 33.9416687 1.31653442 33.9416687 1.34057617 35.45629883 C1 38 1 38 -0.35424805 39.8581543 C-2 41 -2 41 -4.625 40.8125 C-7 40 -7 40 -8 38 C-8.07181821 35.28239892 -8.09299506 32.59140612 -8.0625 29.875 C-8.05798828 29.12089844 -8.05347656 28.36679687 -8.04882812 27.58984375 C-8.03703499 25.72652873 -8.01909942 23.86325445 -8 22 C-7.34 22 -6.68 22 -6 22 C-6 26.95 -6 31.9 -6 37 C-4.68 37 -3.36 37 -2 37 C-1.67 26.11 -1.34 15.22 -1 4 C-0.01 4.99 0.98 5.98 2 7 C3.32 7 4.64 7 6 7 C5.67 5.68 5.34 4.36 5 3 C3.35 3 1.7 3 0 3 C0 2.01 0 1.02 0 0 Z " fill="#249BCF" transform="translate(56,20)"/>
<path d="M0 0 C1.2065625 0.0309375 1.2065625 0.0309375 2.4375 0.0625 C2.4375 0.7225 2.4375 1.3825 2.4375 2.0625 C3.0975 2.0625 3.7575 2.0625 4.4375 2.0625 C4.4375 4.3725 4.4375 6.6825 4.4375 9.0625 C2.7875 9.0625 1.1375 9.0625 -0.5625 9.0625 C-0.8925 24.5725 -1.2225 40.0825 -1.5625 56.0625 C0.4175 56.0625 2.3975 56.0625 4.4375 56.0625 C4.4375 56.7225 4.4375 57.3825 4.4375 58.0625 C2.10455225 58.10491723 -0.22952567 58.10342937 -2.5625 58.0625 C-4.26815618 56.35684382 -3.69002055 54.15516505 -3.69189453 51.82421875 C-3.69504669 50.70635986 -3.69819885 49.58850098 -3.70144653 48.43676758 C-3.6994223 47.22013428 -3.69739807 46.00350098 -3.6953125 44.75 C-3.69626923 43.51080811 -3.69722595 42.27161621 -3.69821167 40.99487305 C-3.69889374 38.36861719 -3.69753538 35.74245367 -3.69287109 33.11621094 C-3.68717381 29.74321286 -3.69045302 26.37029435 -3.69644356 22.99729919 C-3.7009177 19.78986323 -3.69778882 16.582437 -3.6953125 13.375 C-3.69733673 12.1583667 -3.69936096 10.9417334 -3.70144653 9.68823242 C-3.69829437 8.57037354 -3.69514221 7.45251465 -3.69189453 6.30078125 C-3.69109894 5.31118408 -3.69030334 4.32158691 -3.68948364 3.30200195 C-3.50671287 0.07863007 -3.24990644 0.07926601 0 0 Z " fill="#0FA6EB" transform="translate(114.5625,13.9375)"/>
<path d="M0 0 C0.66 0.66 1.32 1.32 2 2 C-0.91917717 6.15421367 -3.29204405 8.10841056 -8 10 C-11.44082577 10.57611979 -14.90306161 10.85944762 -18.375 11.1875 C-27.06388079 12.07377805 -27.06388079 12.07377805 -33.9375 17.125 C-34.47503906 17.82625 -35.01257813 18.5275 -35.56640625 19.25 C-37 21 -37 21 -40.375 22.125 C-43 22 -43 22 -45 20 C-45.26991906 17.31160615 -45.08737357 14.70858064 -45 12 C-46.98 12 -48.96 12 -51 12 C-51 11.67 -51 11.34 -51 11 C-48.69 11 -46.38 11 -44 11 C-43.34 13.31 -42.68 15.62 -42 18 C-37.74569958 17.0883642 -35.7772419 15.95638733 -33.3125 12.5 C-30.08822717 8.48423901 -27.13239231 7.91126637 -22.1484375 7.2421875 C-19.88633056 7.06817927 -17.61918276 6.95564827 -15.3515625 6.8828125 C-8.83700009 6.94884934 -8.83700009 6.94884934 -3 4.60546875 C-1.44350338 2.82103198 -1.44350338 2.82103198 0 0 Z " fill="#12A0D8" transform="translate(78,73)"/>
<path d="M0 0 C0.82876144 -0.0033284 1.65752289 -0.0066568 2.51139832 -0.01008606 C4.26744023 -0.01515396 6.02349179 -0.01749443 7.77954102 -0.01733398 C10.45931018 -0.01951404 13.13866344 -0.03765318 15.81835938 -0.05664062 C17.52473818 -0.0595759 19.23111893 -0.0615598 20.9375 -0.0625 C22.13618462 -0.07327827 22.13618462 -0.07327827 23.35908508 -0.08427429 C27.58655843 -0.06702345 30.80774577 0.22122044 34.66796875 2.16796875 C34.66796875 2.49796875 34.66796875 2.82796875 34.66796875 3.16796875 C33.51385498 3.15749512 32.35974121 3.14702148 31.1706543 3.13623047 C26.84125944 3.0997128 22.51187787 3.07695399 18.18237305 3.05810547 C16.31744081 3.04811965 14.45252394 3.03452629 12.58764648 3.01708984 C-1.98763684 2.81413863 -1.98763684 2.81413863 -16.33203125 5.16796875 C-16.33203125 5.82796875 -16.33203125 6.48796875 -16.33203125 7.16796875 C-18.31203125 7.82796875 -20.29203125 8.48796875 -22.33203125 9.16796875 C-22.39261719 9.92722656 -22.45320313 10.68648437 -22.515625 11.46875 C-22.64130859 12.95955078 -22.64130859 12.95955078 -22.76953125 14.48046875 C-22.85074219 15.46660156 -22.93195312 16.45273437 -23.015625 17.46875 C-23.33203125 20.16796875 -23.33203125 20.16796875 -24.33203125 23.16796875 C-24.99203125 23.16796875 -25.65203125 23.16796875 -26.33203125 23.16796875 C-26.88312111 16.55489041 -26.2046315 11.66610491 -22.33203125 6.16796875 C-19.60165335 3.0080932 -17.38539344 1.24899661 -13.08203125 0.91796875 C-11.72078125 1.04171875 -11.72078125 1.04171875 -10.33203125 1.16796875 C-7.09736669 -0.44936353 -3.55393144 0.00491172 0 0 Z " fill="#16A4E4" transform="translate(27.33203125,1.83203125)"/>
<path d="M0 0 C6.625 -0.25 6.625 -0.25 10 2 C10 2.66 10 3.32 10 4 C9.01 4 8.02 4 7 4 C7 3.34 7 2.68 7 2 C5.35 2.33 3.7 2.66 2 3 C2 21.48 2 39.96 2 59 C4.31 59.33 6.62 59.66 9 60 C9 60.33 9 60.66 9 61 C6.36 61 3.72 61 1 61 C-0.93999183 57.73380655 -1.24851161 55.30424402 -1.24291992 51.52880859 C-1.24599655 50.43442474 -1.24907318 49.34004089 -1.25224304 48.2124939 C-1.24505753 47.03635529 -1.23787201 45.86021667 -1.23046875 44.6484375 C-1.23001053 43.43805817 -1.22955231 42.22767883 -1.2290802 40.98062134 C-1.2260601 38.42359435 -1.21818105 35.86656916 -1.20581055 33.30957031 C-1.18753908 29.38339771 -1.185301 25.45746071 -1.18554688 21.53125 C-1.18063222 19.04947712 -1.17480412 16.56770584 -1.16796875 14.0859375 C-1.16685593 12.90575043 -1.1657431 11.72556335 -1.16459656 10.50961304 C-1.15821671 9.42153351 -1.15183685 8.33345398 -1.14526367 7.21240234 C-1.14145187 6.25183929 -1.13764008 5.29127625 -1.13371277 4.30160522 C-1 2 -1 2 0 0 Z " fill="#3D9AC8" transform="translate(110,12)"/>
<path d="M0 0 C2.4375 1.3125 2.4375 1.3125 3.8125 3.125 C4.62492433 5.96848516 4.43588106 7.53129562 3.4375 10.3125 C1.75 12.1875 1.75 12.1875 -0.5625 13.3125 C-4.08133536 13.24068703 -5.86864617 12.93920668 -8.5 10.5625 C-9.5625 8.3125 -9.5625 8.3125 -9.4375 5.75 C-8.50112339 3.1415223 -7.74252354 1.98944119 -5.5625 0.3125 C-2.5625 -0.6875 -2.5625 -0.6875 0 0 Z " fill="#23A1D4" transform="translate(162.5625,13.6875)"/>
<path d="M0 0 C1.32 0.66 2.64 1.32 4 2 C4 2.66 4 3.32 4 4 C6.56278699 4.05420701 9.12441483 4.09377007 11.6875 4.125 C12.40873047 4.14175781 13.12996094 4.15851563 13.87304688 4.17578125 C18.1027543 4.21440872 21.15259133 3.69885578 25 2 C25.66 2.33 26.32 2.66 27 3 C25.84826645 5.46800047 24.95216435 7.04783565 23 9 C17.38092039 10.75596238 9.58898294 11.01109847 4 9 C1.88082571 7.18045189 0.62962738 5.32803912 -1 3 C-0.67 2.01 -0.34 1.02 0 0 Z " fill="#0BABF2" transform="translate(218,61)"/>
<path d="M0 0 C2.6875 0.875 2.6875 0.875 5 2 C5 2.33 5 2.66 5 3 C3.35 3 1.7 3 0 3 C0.01160156 3.57363281 0.02320313 4.14726562 0.03515625 4.73828125 C0.10262062 11.0895696 -0.11408504 17.40873483 -0.4375 23.75 C-0.47673584 24.55348877 -0.51597168 25.35697754 -0.55639648 26.18481445 C-0.8073057 30.84421308 -1.26682279 35.39145752 -2 40 C-3.32 40 -4.64 40 -6 40 C-6.08256871 38.48012412 -6.13988627 36.95887215 -6.1875 35.4375 C-6.22230469 34.59058594 -6.25710937 33.74367187 -6.29296875 32.87109375 C-6 30 -6 30 -4.5 26.6875 C-2.74526482 22.37377602 -2.64916219 19.14014691 -2.8125 14.5625 C-2.82603516 13.83095703 -2.83957031 13.09941406 -2.85351562 12.34570312 C-2.88846126 10.56347578 -2.94225195 8.78163427 -3 7 C-3.99 6.67 -4.98 6.34 -6 6 C-4.11192137 3.30274481 -2.80175356 1.86783571 0 0 Z " fill="#0FA5EA" transform="translate(56,17)"/>
<path d="M0 0 C1.04285156 -0.00515625 2.08570313 -0.0103125 3.16015625 -0.015625 C5.9375 0.25 5.9375 0.25 8.9375 2.25 C5.32756828 3.38480527 1.9532673 3.35015767 -1.8125 3.3125 C-2.98296875 3.30347656 -4.1534375 3.29445312 -5.359375 3.28515625 C-6.25140625 3.27355469 -7.1434375 3.26195312 -8.0625 3.25 C-8.0625 4.24 -8.0625 5.23 -8.0625 6.25 C-9.2071875 6.930625 -9.2071875 6.930625 -10.375 7.625 C-13.43823606 9.47718925 -14.35901868 11.16751 -16.0625 14.25 C-17.0525 14.745 -17.0525 14.745 -18.0625 15.25 C-18.11657567 17.83361518 -18.156207 20.41609255 -18.1875 23 C-18.20425781 23.72960937 -18.22101563 24.45921875 -18.23828125 25.2109375 C-18.2742616 29.16877622 -17.97730359 31.80657169 -16.0625 35.25 C-16.3925 36.24 -16.7225 37.23 -17.0625 38.25 C-20.97010074 30.36501994 -22.86453875 22.60511892 -20.40234375 13.921875 C-16.66098406 5.43498115 -9.23732855 -0.04578602 0 0 Z " fill="#3B9CC5" transform="translate(230.0625,28.75)"/>
<path d="M0 0 C4.17558714 4.40228277 4.43405298 8.05287262 4.3515625 13.9921875 C4.31804687 14.94351563 4.28453125 15.89484375 4.25 16.875 C4.23195312 17.84953125 4.21390625 18.8240625 4.1953125 19.828125 C4.14841734 22.21977807 4.08280907 24.60936597 4 27 C3.67 27 3.34 27 3 27 C2.96261719 25.68644531 2.92523438 24.37289062 2.88671875 23.01953125 C2.82104343 21.28382636 2.75459663 19.54815053 2.6875 17.8125 C2.66494141 16.94818359 2.64238281 16.08386719 2.61914062 15.19335938 C2.41757311 10.41071209 2.21597014 6.81180308 -1 3 C-4.93670488 1.68776504 -7.12488144 2.75703744 -11 4 C-11.78773917 7.53501458 -12.17495802 10.90249788 -12.31640625 14.51953125 C-12.35830078 15.54111328 -12.40019531 16.56269531 -12.44335938 17.61523438 C-12.50233398 19.19788086 -12.50233398 19.19788086 -12.5625 20.8125 C-12.60568359 21.88693359 -12.64886719 22.96136719 -12.69335938 24.06835938 C-12.79910983 26.71212082 -12.90120233 29.3559711 -13 32 C-13.99 32.495 -13.99 32.495 -15 33 C-15.04947698 29.06734104 -15.08575578 25.13480286 -15.10986328 21.2019043 C-15.12485495 19.20680382 -15.15026731 17.21179054 -15.17578125 15.21679688 C-15.18222656 13.96318359 -15.18867187 12.70957031 -15.1953125 11.41796875 C-15.20578613 10.26063232 -15.21625977 9.1032959 -15.22705078 7.91088867 C-15 5 -15 5 -13 2 C-8.64895636 -0.43146556 -4.85190649 -0.61611511 0 0 Z " fill="#3F9DC2" transform="translate(134,39)"/>
<path d="M0 0 C2.0625 0.4375 2.0625 0.4375 4 1 C3.33871094 1.60328125 2.67742187 2.2065625 1.99609375 2.828125 C1.15175781 3.62734375 0.30742187 4.4265625 -0.5625 5.25 C-1.40941406 6.03890625 -2.25632813 6.8278125 -3.12890625 7.640625 C-5.24309955 9.77981528 -5.24309955 9.77981528 -4.9140625 12.15234375 C-3.50491402 15.00075072 -1.28936054 16.81238882 1 19 C2.55056636 20.79539262 4.06570009 22.61521822 5.5703125 24.44921875 C7.11481807 26.24681775 7.11481807 26.24681775 10 28 C9.625 30.4375 9.625 30.4375 9 33 C5.79745853 34.60127074 3.54685436 34.40701607 0 34 C-2.61169163 32.26393366 -4.80956115 30.23704394 -7 28 C-6.01 28 -5.02 28 -4 28 C-3.30970703 28.72123047 -3.30970703 28.72123047 -2.60546875 29.45703125 C-0.51965133 31.46164897 0.84016467 31.48117135 3.6875 31.6875 C4.49574219 31.75324219 5.30398437 31.81898437 6.13671875 31.88671875 C6.75160156 31.92410156 7.36648437 31.96148437 8 32 C8 30.68 8 29.36 8 28 C6.68 28 5.36 28 4 28 C3.34 26.02 2.68 24.04 2 22 C1.34 22 0.68 22 0 22 C-1.02196992 21.02246356 -2.01979625 20.0194119 -3 19 C-3.99 18.34 -4.98 17.68 -6 17 C-8.17081936 12.15740297 -8.17081936 12.15740297 -8 9 C-6.07578568 5.88588156 -3.68204156 3.47241072 -1 1 C-0.67 0.67 -0.34 0.34 0 0 Z " fill="#38A0C7" transform="translate(200,39)"/>
<path d="M0 0 C1.98 0 3.96 0 6 0 C6 0.66 6 1.32 6 2 C6.598125 2.0825 7.19625 2.165 7.8125 2.25 C10.70686231 3.24235279 11.57987775 4.30924205 13 7 C12.57421875 9.640625 12.57421875 9.640625 12 12 C-1.6332574 13.33257403 -1.6332574 13.33257403 -8 12 C-7.67 9.03 -7.34 6.06 -7 3 C-4.69 2.34 -2.38 1.68 0 1 C0 0.67 0 0.34 0 0 Z M-4 4 C-4.66 4.66 -5.32 5.32 -6 6 C-5.67 7.32 -5.34 8.64 -5 10 C0.28 10 5.56 10 11 10 C8.46762901 4.77953218 8.46762901 4.77953218 3.625 2.1875 C0.49896219 1.96421159 -1.22981483 2.57747248 -4 4 Z " fill="#2993C5" transform="translate(228,36)"/>
<path d="M0 0 C0.33 0 0.66 0 1 0 C1.82783399 5.79483793 2.16037619 11.52836415 2.25 17.375 C2.27126953 18.07689453 2.29253906 18.77878906 2.31445312 19.50195312 C2.33448543 22.46387188 2.34219096 24.49660347 0.6484375 26.98828125 C-1 28 -1 28 -3.625 27.8125 C-6 27 -6 27 -7 25 C-7.07181821 22.28239892 -7.09299506 19.59140612 -7.0625 16.875 C-7.05798828 16.12089844 -7.05347656 15.36679687 -7.04882812 14.58984375 C-7.03703499 12.72652873 -7.01909942 10.86325445 -7 9 C-6.34 9 -5.68 9 -5 9 C-5 13.95 -5 18.9 -5 24 C-3.68 24 -2.36 24 -1 24 C-0.67 16.08 -0.34 8.16 0 0 Z " fill="#339ECB" transform="translate(55,33)"/>
<path d="M0 0 C5.1975721 -0.17922662 9.11276756 -0.02641345 14 2 C14.33 2.33 14.66 2.66 15 3 C15.66 2.34 16.32 1.68 17 1 C19 2 19 2 20 3 C20.99 2.67 21.98 2.34 23 2 C25.6875 2.4375 25.6875 2.4375 28 3 C24.48417174 7.66283606 21.96351455 10.72210402 16 12 C15.71125 10.865625 15.4225 9.73125 15.125 8.5625 C14.75375 7.386875 14.3825 6.21125 14 5 C13.34 4.67 12.68 4.34 12 4 C12 3.34 12 2.68 12 2 C8.04 1.67 4.08 1.34 0 1 C0 0.67 0 0.34 0 0 Z " fill="#0CA8EF" transform="translate(20,80)"/>
<path d="M0 0 C0.66 0.99 1.32 1.98 2 3 C1.125 5.4375 1.125 5.4375 -1 8 C-3.60563929 8.49692955 -6.07179982 8.62513656 -8.72265625 8.6640625 C-9.47417969 8.77492188 -10.22570312 8.88578125 -11 9 C-11.66 9.99 -12.32 10.98 -13 12 C-13.33 11.01 -13.66 10.02 -14 9 C-12.7260411 6.96166576 -11.38938077 4.96147874 -10 3 C-9.67 2.01 -9.34 1.02 -9 0 C-5.85135005 -1.57432497 -3.35512575 -0.71895552 0 0 Z " fill="#0CACF5" transform="translate(206,31)"/>
<path d="M0 0 C0.33 0 0.66 0 1 0 C1.02939331 4.43748574 1.04692963 8.87494593 1.0625 13.3125 C1.07087891 14.55580078 1.07925781 15.79910156 1.08789062 17.08007812 C1.13973535 36.83291806 1.13973535 36.83291806 -2 44 C-2.66 43.67 -3.32 43.34 -4 43 C-3.84080078 42.42098434 -3.68160156 41.84196869 -3.51757812 41.2454071 C-2.68995819 37.65494688 -2.66109063 34.00116778 -2.5 30.33203125 C-2.4166817 28.61783781 -2.33334791 26.90364512 -2.25 25.18945312 C-2.12370053 22.49004858 -1.99899299 19.79057588 -1.875 17.09106445 C-1.75386962 14.4836858 -1.62715439 11.87662195 -1.5 9.26953125 C-1.46455078 8.45603714 -1.42910156 7.64254303 -1.39257812 6.80439758 C-1.11296764 1.11296764 -1.11296764 1.11296764 0 0 Z " fill="#279CD0" transform="translate(83,29)"/>
<path d="M0 0 C0.33 0 0.66 0 1 0 C1 7.26 1 14.52 1 22 C2.98 21.67 4.96 21.34 7 21 C7.66 17.04 8.32 13.08 9 9 C15.07756517 10.21551303 15.9850732 11.61159164 20 16 C19.67 16.66 19.34 17.32 19 18 C18.51789063 17.50628906 18.03578125 17.01257813 17.5390625 16.50390625 C16.90742188 15.86324219 16.27578125 15.22257812 15.625 14.5625 C14.99851563 13.92441406 14.37203125 13.28632812 13.7265625 12.62890625 C12.08276939 10.92117824 12.08276939 10.92117824 10 10 C10.10699219 10.83144531 10.21398437 11.66289063 10.32421875 12.51953125 C10.44410156 13.60621094 10.56398437 14.69289063 10.6875 15.8125 C10.81511719 16.89144531 10.94273437 17.97039062 11.07421875 19.08203125 C11 22 11 22 9.7421875 23.8671875 C6.88626535 25.72417724 4.29649757 25.2996816 1 25 C-1 23 -1 23 -1.13525391 20.66162109 C-1.08288574 19.70852051 -1.03051758 18.75541992 -0.9765625 17.7734375 C-0.925 16.7421875 -0.8734375 15.7109375 -0.8203125 14.6484375 C-0.75585938 13.56820312 -0.69140625 12.48796875 -0.625 11.375 C-0.56828125 10.28703125 -0.5115625 9.1990625 -0.453125 8.078125 C-0.3113698 5.38477613 -0.15993358 2.6923207 0 0 Z " fill="#31A4CF" transform="translate(173,48)"/>
<path d="M0 0 C0.33 0 0.66 0 1 0 C1.14547545 4.06212212 1.23413226 8.12357287 1.3125 12.1875 C1.35439453 13.33798828 1.39628906 14.48847656 1.43945312 15.67382812 C1.56377852 24.25228068 1.56377852 24.25228068 -1.39453125 28.17578125 C-2.25433594 28.77777344 -3.11414063 29.37976563 -4 30 C-4.66 30.66 -5.32 31.32 -6 32 C-8.09375 32.30078125 -8.09375 32.30078125 -10.5 32.3125 C-11.2940625 32.32925781 -12.088125 32.34601563 -12.90625 32.36328125 C-13.5971875 32.24339844 -14.288125 32.12351563 -15 32 C-15.66 31.01 -16.32 30.02 -17 29 C-15.75283203 28.94392578 -15.75283203 28.94392578 -14.48046875 28.88671875 C-12.85044922 28.78810547 -12.85044922 28.78810547 -11.1875 28.6875 C-10.10855469 28.62949219 -9.02960937 28.57148437 -7.91796875 28.51171875 C-5.02449209 28.22513125 -5.02449209 28.22513125 -3.15625 26.65625 C-1.47609736 24.24954487 -1.31931155 21.87380397 -1 19 C-1.66 18.67 -2.32 18.34 -3 18 C-3 16.35 -3 14.7 -3 13 C-2.34 13 -1.68 13 -1 13 C-0.67 8.71 -0.34 4.42 0 0 Z " fill="#15A7E6" transform="translate(64,36)"/>
<path d="M0 0 C2 2 2 2 2.22705078 3.97119141 C2.21657715 4.75671387 2.20610352 5.54223633 2.1953125 6.3515625 C2.18886719 7.20234375 2.18242188 8.053125 2.17578125 8.9296875 C2.15902344 9.81914063 2.14226563 10.70859375 2.125 11.625 C2.11597656 12.5221875 2.10695313 13.419375 2.09765625 14.34375 C2.0740497 16.56276586 2.0411231 18.78125077 2 21 C1.67 21 1.34 21 1 21 C0.67 15.06 0.34 9.12 0 3 C-2.31 3.66 -4.62 4.32 -7 5 C-7.02578125 6.18078125 -7.0515625 7.3615625 -7.078125 8.578125 C-7.13441397 10.13545323 -7.19176114 11.69274347 -7.25 13.25 C-7.27126953 14.41595703 -7.27126953 14.41595703 -7.29296875 15.60546875 C-7.45551553 19.40906329 -7.54628658 21.404966 -9.90625 24.5 C-11.99827672 25.99876541 -13.46879124 26.63839875 -16 27 C-15.505 25.515 -15.505 25.515 -15 24 C-12.9375 23.3125 -12.9375 23.3125 -11 23 C-10.95101563 22.07058594 -10.90203125 21.14117187 -10.8515625 20.18359375 C-10.05574439 7.02515296 -10.05574439 7.02515296 -8 2 C-4.77626323 -0.14915785 -3.73296326 -0.38286803 0 0 Z " fill="#13A3E4" transform="translate(39,40)"/>
<path d="M0 0 C0.99 0 1.98 0 3 0 C4.98362069 2.91708924 4.9876191 4.12380904 4.625 7.75 C4.41875 8.8225 4.2125 9.895 4 11 C3.34 11 2.68 11 2 11 C2 11.99 2 12.98 2 14 C0.35 13.67 -1.3 13.34 -3 13 C-3.125 5.375 -3.125 5.375 -2 2 C-1.34 1.34 -0.68 0.68 0 0 Z " fill="#06ACF7" transform="translate(215,45)"/>
<path d="M0 0 C0.33 1.32 0.66 2.64 1 4 C-5.37457348 4.95468258 -11.56061653 5.1202324 -18 5.0625 C-18.96550781 5.05798828 -19.93101562 5.05347656 -20.92578125 5.04882812 C-23.28392089 5.03715417 -25.64192602 5.02078021 -28 5 C-28.33 4.01 -28.66 3.02 -29 2 C-19.43 2 -9.86 2 0 2 C0 1.34 0 0.68 0 0 Z " fill="#2493B6" transform="translate(249,52)"/>
<path d="M0 0 C3.16620095 2.18618637 3.7896387 3.36891611 5 7 C5.14777936 8.69867188 5.24747066 10.40177489 5.31640625 12.10546875 C5.35830078 13.08837891 5.40019531 14.07128906 5.44335938 15.08398438 C5.48267578 16.10814453 5.52199219 17.13230469 5.5625 18.1875 C5.60568359 19.22326172 5.64886719 20.25902344 5.69335938 21.32617188 C5.79944366 23.8839819 5.90150146 26.44188845 6 29 C4.68 28.67 3.36 28.34 2 28 C2.01571045 27.39003174 2.0314209 26.78006348 2.04760742 26.15161133 C2.11019813 23.3720029 2.14906622 20.59254308 2.1875 17.8125 C2.21263672 16.85279297 2.23777344 15.89308594 2.26367188 14.90429688 C2.45724367 7.88656694 2.45724367 7.88656694 -1 2 C-5.23842434 1.59634054 -8.93098831 1.64366277 -13 3 C-13 2.34 -13 1.68 -13 1 C-9.0696314 -0.9651843 -4.2852815 -0.46909886 0 0 Z " fill="#18A6DD" transform="translate(135,38)"/>
<path d="M0 0 C0.66 0 1.32 0 2 0 C2 0.66 2 1.32 2 2 C3.65 2 5.3 2 7 2 C7 2.66 7 3.32 7 4 C3.64908229 4.75363052 0.56890188 5.11979937 -2.86328125 5.09765625 C-4.19262695 5.09282227 -4.19262695 5.09282227 -5.54882812 5.08789062 C-6.46083984 5.07951172 -7.37285156 5.07113281 -8.3125 5.0625 C-9.24384766 5.05798828 -10.17519531 5.05347656 -11.13476562 5.04882812 C-13.42324373 5.03709234 -15.71158808 5.02067363 -18 5 C-18 4.01 -18 3.02 -18 2 C-16.17662109 1.90912109 -16.17662109 1.90912109 -14.31640625 1.81640625 C-12.73175772 1.73201668 -11.14712298 1.6473679 -9.5625 1.5625 C-8.76005859 1.52318359 -7.95761719 1.48386719 -7.13085938 1.44335938 C-3.24760439 1.5945704 -3.24760439 1.5945704 0 0 Z " fill="#07ACF9" transform="translate(240,48)"/>
<path d="M0 0 C0.33 0 0.66 0 1 0 C1.33 18.15 1.66 36.3 2 55 C3.98 55 5.96 55 8 55 C8 55.66 8 56.32 8 57 C5.66705225 57.04241723 3.33297433 57.04092937 1 57 C0 56 0 56 -0.12025452 53.75376892 C-0.11803391 52.76115555 -0.11581329 51.76854218 -0.11352539 50.74584961 C-0.11344986 49.62476303 -0.11337433 48.50367645 -0.11329651 47.34861755 C-0.10813522 46.1288472 -0.10297394 44.90907684 -0.09765625 43.65234375 C-0.0962413 42.41078018 -0.09482635 41.16921661 -0.09336853 39.89002991 C-0.08870591 36.58394509 -0.07971497 33.27792854 -0.06866455 29.97186279 C-0.05844827 26.6003885 -0.05387045 23.22890717 -0.04882812 19.85742188 C-0.03777395 13.23826225 -0.02101736 6.61913507 0 0 Z " fill="#1DA0D6" transform="translate(111,15)"/>
<path d="M0 0 C0.33 0 0.66 0 1 0 C1.33 5.28 1.66 10.56 2 16 C3.65 15.01 5.3 14.02 7 13 C12.19072616 12.2457226 17.31078678 12.49908628 22 15 C18.04510865 16.18371458 14.42891245 15.99356814 10.33984375 15.83984375 C7.7257147 15.82421099 7.7257147 15.82421099 5 18 C3.35 18 1.7 18 0 18 C0 12.06 0 6.12 0 0 Z " fill="#3793BD" transform="translate(120,16)"/>
<path d="M0 0 C2.04197094 3.35914674 2.1835561 5.74914537 1.9765625 9.640625 C1.89921875 11.24550781 1.89921875 11.24550781 1.8203125 12.8828125 C1.75585938 13.99398437 1.69140625 15.10515625 1.625 16.25 C1.56828125 17.37664063 1.5115625 18.50328125 1.453125 19.6640625 C1.31180452 22.44336528 1.16040592 25.2217441 1 28 C0.34 28.33 -0.32 28.66 -1 29 C-1.02465881 25.03069011 -1.04284023 21.06140966 -1.05493164 17.09204102 C-1.05997057 15.74079614 -1.06680177 14.38955674 -1.07543945 13.03833008 C-1.08752419 11.09979566 -1.09269828 9.161222 -1.09765625 7.22265625 C-1.10289307 6.05484619 -1.10812988 4.88703613 -1.11352539 3.68383789 C-1 1 -1 1 0 0 Z " fill="#2393C1" transform="translate(120,43)"/>
<path d="M0 0 C1.65 0 3.3 0 5 0 C6.32229189 2.64458379 6.09677194 4.67761301 6.0625 7.625 C6.05347656 8.62789062 6.04445313 9.63078125 6.03515625 10.6640625 C6.02355469 11.43492188 6.01195312 12.20578125 6 13 C6.99 12.67 7.98 12.34 9 12 C11.33299825 11.96045766 13.66708189 11.95598268 16 12 C15.443125 12.268125 14.88625 12.53625 14.3125 12.8125 C11.90694879 13.99530663 11.90694879 13.99530663 9.4375 15.6875 C8.2309375 16.3371875 8.2309375 16.3371875 7 17 C6.01 16.67 5.02 16.34 4 16 C3.96261719 15.01257812 3.92523437 14.02515625 3.88671875 13.0078125 C3.82097656 11.72648437 3.75523438 10.44515625 3.6875 9.125 C3.62949219 7.84882813 3.57148438 6.57265625 3.51171875 5.2578125 C3.34285156 4.18273437 3.17398437 3.10765625 3 2 C2.01 1.34 1.02 0.68 0 0 Z " fill="#3998C6" transform="translate(23,20)"/>
<path d="M0 0 C2.31 0 4.62 0 7 0 C7.66 2.31 8.32 4.62 9 7 C11.97 6.34 14.94 5.68 18 5 C15.82779514 8.25830729 14.69024102 9.79292769 10.875 10.9375 C9.92625 10.958125 8.9775 10.97875 8 11 C6 9 6 9 5.8046875 7.0546875 C5.90234375 4.02734375 5.90234375 4.02734375 6 1 C4.02 1 2.04 1 0 1 C0 0.67 0 0.34 0 0 Z " fill="#3096BD" transform="translate(27,84)"/>
<path d="M0 0 C6.30229293 -0.36359382 6.30229293 -0.36359382 9.21875 1.15625 C11 3 11 3 11.390625 5.69921875 C11.32101563 7.17841797 11.32101563 7.17841797 11.25 8.6875 C11.21390625 9.68136719 11.1778125 10.67523438 11.140625 11.69921875 C11.07101563 12.83810547 11.07101563 12.83810547 11 14 C10.67 14 10.34 14 10 14 C10 12.35 10 10.7 10 9 C9.01 9 8.02 9 7 9 C6.5875 8.071875 6.175 7.14375 5.75 6.1875 C4.06558214 3.11945319 2.91545917 1.80959535 0 0 Z " fill="#15A4E6" transform="translate(40,33)"/>
<path d="M0 0 C4.82481569 1.70287613 9.63169606 3.7609572 12.375 8.25 C12.58125 8.8275 12.7875 9.405 13 10 C14.32 10 15.64 10 17 10 C17.33 9.34 17.66 8.68 18 8 C18.66 8 19.32 8 20 8 C20 9.32 20 10.64 20 12 C15.12480433 12.48751957 11.9846024 12.62484383 7.75 9.9375 C4.69776851 6.97052637 2.35420148 3.53130222 0 0 Z " fill="#159EDB" transform="translate(188,59)"/>
<path d="M0 0 C3 3 3 3 3.34057617 5.4519043 C3.32486572 6.39976807 3.30915527 7.34763184 3.29296875 8.32421875 C3.28330078 9.35224609 3.27363281 10.38027344 3.26367188 11.43945312 C3.23853516 12.51130859 3.21339844 13.58316406 3.1875 14.6875 C3.16719727 16.31268555 3.16719727 16.31268555 3.14648438 17.97070312 C3.11110643 20.64763405 3.06174189 23.32356838 3 26 C2.34 25.67 1.68 25.34 1 25 C0.67 16.75 0.34 8.5 0 0 Z " fill="#1A9FDA" transform="translate(144,38)"/>
<path d="M0 0 C0.268125 0.598125 0.53625 1.19625 0.8125 1.8125 C2.71162349 5.31088537 4.20036361 6.73345454 8 8 C8 8.66 8 9.32 8 10 C13.94 9.505 13.94 9.505 20 9 C18 11 18 11 15.3203125 11.23046875 C13.73863281 11.20919922 13.73863281 11.20919922 12.125 11.1875 C11.07570312 11.18105469 10.02640625 11.17460938 8.9453125 11.16796875 C4.22178863 10.89859007 4.22178863 10.89859007 2 10 C0.30031159 7.81243807 -0.73478913 5.48523563 -2 3 C-1.34 3 -0.68 3 0 3 C0 2.01 0 1.02 0 0 Z " fill="#1EA3DB" transform="translate(220,55)"/>
<path d="M0 0 C0.33 0.66 0.66 1.32 1 2 C-0.2065625 3.175625 -0.2065625 3.175625 -1.4375 4.375 C-4.93621243 7.95904688 -5.2847162 10.2508882 -6.0625 15.125 C-6.23910156 16.22070312 -6.41570313 17.31640625 -6.59765625 18.4453125 C-6.73042969 19.28835937 -6.86320313 20.13140625 -7 21 C-7.66 21 -8.32 21 -9 21 C-9.54876756 14.41478924 -8.8708146 9.47850118 -5 4 C-2.25 1.5 -2.25 1.5 0 0 Z " fill="#3398C7" transform="translate(10,4)"/>
<path d="M0 0 C0.66 0.66 1.32 1.32 2 2 C0.68 2 -0.64 2 -2 2 C-1.67 3.98 -1.34 5.96 -1 8 C-2.32 7.34 -3.64 6.68 -5 6 C-5.33 10.62 -5.66 15.24 -6 20 C-6.33 20 -6.66 20 -7 20 C-7 13.73 -7 7.46 -7 1 C-3.535 0.505 -3.535 0.505 0 0 Z " fill="#11A8EC" transform="translate(164,32)"/>
<path d="M0 0 C5.05626136 2.64304571 7.19149757 5.24341544 9.3203125 10.5390625 C10.40448192 14.4645035 10.25723565 17.94853853 10 22 C9.67 22 9.34 22 9 22 C8.34 17.71 7.68 13.42 7 9 C6.01 9 5.02 9 4 9 C3.71125 8.195625 3.4225 7.39125 3.125 6.5625 C2.26737432 3.8673532 2.26737432 3.8673532 0 3 C0 2.01 0 1.02 0 0 Z " fill="#349BC5" transform="translate(73,4)"/>
<path d="M0 0 C5.39912239 2.94497585 8.09369035 6.09482241 10 12 C10.28608364 14.45016791 10.20633927 16.52392881 10 19 C8.35173889 16.03312999 7.55728913 13.34373475 7 10 C6.34 10 5.68 10 5 10 C4.67 8.35 4.34 6.7 4 5 C3.01 5 2.02 5 1 5 C0.67 3.35 0.34 1.7 0 0 Z " fill="#33A1C5" transform="translate(240,31)"/>
<path d="M0 0 C2.74066829 1.0049117 3.80870509 1.64797005 5.22412109 4.25268555 C6.06805794 7.24098679 6.31859994 9.85449802 6.4140625 12.95703125 C6.45273438 14.06884766 6.49140625 15.18066406 6.53125 16.32617188 C6.5621875 17.47666016 6.593125 18.62714844 6.625 19.8125 C6.66367188 20.98232422 6.70234375 22.15214844 6.7421875 23.35742188 C6.8362513 26.23812564 6.92189877 29.11882654 7 32 C6.34 31.67 5.68 31.34 5 31 C4.9906543 30.34515625 4.98130859 29.6903125 4.97167969 29.015625 C4.9175474 26.00969095 4.83398611 23.00524225 4.75 20 C4.73582031 18.97003906 4.72164062 17.94007812 4.70703125 16.87890625 C4.49377312 10.18260106 3.46029248 5.75792669 0 0 Z " fill="#3A98BD" transform="translate(142,33)"/>
<path d="M0 0 C0.99 0.33 1.98 0.66 3 1 C2.67694236 3.98828314 2.34810879 5.61321245 0.3125 7.875 C-2.89829508 9.43700842 -4.63513237 9.07389392 -8 8 C-9.9375 6.125 -9.9375 6.125 -11 4 C-10.67 3.01 -10.34 2.02 -10 1 C-8.68 2.65 -7.36 4.3 -6 6 C-4.04105639 5.88693303 -4.04105639 5.88693303 -2 5 C-0.70339566 2.50965614 -0.70339566 2.50965614 0 0 Z " fill="#4697B5" transform="translate(164,18)"/>
<path d="M0 0 C4 0 4 0 5.5 1.375 C5.995 1.91125 6.49 2.4475 7 3 C10.17248711 4.9652575 12.54992731 5.22237033 16.25 5.125 C17.58804688 5.09792969 17.58804688 5.09792969 18.953125 5.0703125 C19.62859375 5.04710938 20.3040625 5.02390625 21 5 C16.92915299 7.71389801 13.77568154 7.51479154 9 7 C5.40842046 6.07335895 2.66890724 5.01790232 0.5625 1.8125 C0.376875 1.214375 0.19125 0.61625 0 0 Z " fill="#3297C1" transform="translate(138,67)"/>
<path d="M0 0 C2.0625 0.4375 2.0625 0.4375 4 1 C0.33333333 4.66666667 -3.33333333 8.33333333 -7 12 C-7.33 11.01 -7.66 10.02 -8 9 C-6.6015625 6.9921875 -6.6015625 6.9921875 -4.625 4.875 C-3.97789062 4.17117187 -3.33078125 3.46734375 -2.6640625 2.7421875 C-1.7838265 1.82062587 -0.90113574 0.90113574 0 0 Z " fill="#1F8CC4" transform="translate(200,39)"/>
<path d="M0 0 C0.680625 0.09023438 1.36125 0.18046875 2.0625 0.2734375 C4 0.625 4 0.625 7 1.625 C6.67 2.945 6.34 4.265 6 5.625 C0.96643704 4.38868629 -4.02426068 3.0762573 -9 1.625 C-5.74881157 -0.00059422 -3.54838833 -0.497312 0 0 Z " fill="#249DCF" transform="translate(66,1.375)"/>
<path d="M0 0 C0.74056641 0.02255859 1.48113281 0.04511719 2.24414062 0.06835938 C4.05947357 0.1269185 5.87375681 0.21659114 7.6875 0.3125 C7.6875 0.6425 7.6875 0.9725 7.6875 1.3125 C6.63949219 1.42207031 5.59148438 1.53164062 4.51171875 1.64453125 C3.13273349 1.80400574 1.75383129 1.96419966 0.375 2.125 C-0.66043945 2.23038086 -0.66043945 2.23038086 -1.71679688 2.33789062 C-4.7402352 2.70304018 -6.87357971 2.96361464 -9.29296875 4.88671875 C-9.62941406 5.35722656 -9.96585938 5.82773438 -10.3125 6.3125 C-11.3025 5.9825 -12.2925 5.6525 -13.3125 5.3125 C-9.11110767 0.05040112 -6.31062593 -0.36656898 0 0 Z " fill="#3BA0CC" transform="translate(56.3125,82.6875)"/>
<path d="M0 0 C1.98 0 3.96 0 6 0 C6 0.66 6 1.32 6 2 C6.598125 2.0825 7.19625 2.165 7.8125 2.25 C10.6788626 3.23275289 11.56592275 4.35827876 13 7 C12.6875 9.25 12.6875 9.25 12 11 C12 10.01 12 9.02 12 8 C11.443125 7.731875 10.88625 7.46375 10.3125 7.1875 C6.42501684 5.19122486 2.95480423 3.26583625 0 0 Z " fill="#2B9DCF" transform="translate(228,36)"/>
<path d="M0 0 C1.65 0.33 3.3 0.66 5 1 C4.6875 3.375 4.6875 3.375 4 6 C3.01 6.66 2.02 7.32 1 8 C-1 5 -1 5 -0.625 2.3125 C-0.41875 1.549375 -0.2125 0.78625 0 0 Z " fill="#0CABEE" transform="translate(159,17)"/>
<path d="M0 0 C0.721875 0.103125 1.44375 0.20625 2.1875 0.3125 C2.1875 0.9725 2.1875 1.6325 2.1875 2.3125 C1.07375 2.9621875 1.07375 2.9621875 -0.0625 3.625 C-3.08428496 5.47927714 -4.73730878 7.46871943 -6.8125 10.3125 C-7.625 8.125 -7.625 8.125 -7.8125 5.3125 C-5.40318505 2.1237008 -4.05050045 0.45005561 0 0 Z " fill="#229ECF" transform="translate(219.8125,32.6875)"/>
<path d="M0 0 C2 3 2 3 2 5 C0.35 5 -1.3 5 -3 5 C-3 4.34 -3 3.68 -3 3 C-7.62 3 -12.24 3 -17 3 C-15 1 -15 1 -11.77734375 0.83984375 C-10.51019531 0.87207031 -9.24304688 0.90429688 -7.9375 0.9375 C-5.62553635 0.99148494 -3.31250329 1.02046463 -1 1 C-0.67 0.67 -0.34 0.34 0 0 Z " fill="#16A7E7" transform="translate(239,30)"/>
<path d="M0 0 C0.33 0 0.66 0 1 0 C1 6.93 1 13.86 1 21 C-1 18 -1 18 -1 16 C-1.66 15.67 -2.32 15.34 -3 15 C-2.67 14.01 -2.34 13.02 -2 12 C-1.67 12 -1.34 12 -1 12 C-0.67 8.04 -0.34 4.08 0 0 Z " fill="#09A6ED" transform="translate(19,24)"/>
<path d="M0 0 C1.9375 0.3125 1.9375 0.3125 4 1 C4.33 1.99 4.66 2.98 5 4 C6.65948148 5.01187895 8.32580562 6.0126546 10 7 C10 7.66 10 8.32 10 9 C10.66 9 11.32 9 12 9 C12.33 9.99 12.66 10.98 13 12 C8.72436721 11.52492969 6.83439503 9.04697466 4 6 C3.236875 5.278125 2.47375 4.55625 1.6875 3.8125 C0 2 0 2 0 0 Z " fill="#18A2DF" transform="translate(190,52)"/>
<path d="M0 0 C0.66 0.99 1.32 1.98 2 3 C-0.64 2.67 -3.28 2.34 -6 2 C-6 7.28 -6 12.56 -6 18 C-6.33 18 -6.66 18 -7 18 C-7 12.39 -7 6.78 -7 1 C-4.46578263 -0.26710868 -2.80561762 -0.28056176 0 0 Z " fill="#439ABF" transform="translate(162,30)"/>
<path d="M0 0 C3.5 0.1875 3.5 0.1875 7 1 C7.66 1.99 8.32 2.98 9 4 C7.68 5.65 6.36 7.3 5 9 C4.67 7.02 4.34 5.04 4 3 C1.03 2.505 1.03 2.505 -2 2 C-1.34 1.34 -0.68 0.68 0 0 Z " fill="#3390BD" transform="translate(199,30)"/>
<path d="M0 0 C0.33 0 0.66 0 1 0 C1 7.26 1 14.52 1 22 C-0.98 22 -2.96 22 -5 22 C-4.35546875 21.70480469 -3.7109375 21.40960938 -3.046875 21.10546875 C0.24046816 17.72402226 -0.32313475 13.85682724 -0.25 9.3125 C-0.22035156 8.41982422 -0.19070312 7.52714844 -0.16015625 6.60742188 C-0.08948573 4.40485723 -0.03678061 2.20334869 0 0 Z " fill="#11A6E9" transform="translate(118,48)"/>
<path d="M0 0 C0.66 0.66 1.32 1.32 2 2 C-0.86075176 6.07106981 -3.37810146 8.13157293 -8 10 C-8.99 10 -9.98 10 -11 10 C-11 9.34 -11 8.68 -11 8 C-9.9275 7.608125 -8.855 7.21625 -7.75 6.8125 C-4.10859135 5.27616532 -2.23052521 3.30117731 0 0 Z " fill="#3F9EC1" transform="translate(78,73)"/>
<path d="M0 0 C1.98 0 3.96 0 6 0 C6 0.66 6 1.32 6 2 C4.68 2 3.36 2 2 2 C1.67 5.96 1.34 9.92 1 14 C0.67 14 0.34 14 0 14 C-0.19456705 12.04235617 -0.38044247 10.08384679 -0.5625 8.125 C-0.66691406 7.03445312 -0.77132812 5.94390625 -0.87890625 4.8203125 C-1 2 -1 2 0 0 Z " fill="#13A4DD" transform="translate(180,55)"/>
<path d="M0 0 C1.99954746 -0.04254356 4.00041636 -0.04080783 6 0 C7 1 7 1 7.0625 4.0625 C7.041875 5.031875 7.02125 6.00125 7 7 C6.01 7 5.02 7 4 7 C4.33 5.68 4.66 4.36 5 3 C3.02 3.33 1.04 3.66 -1 4 C-0.67 2.68 -0.34 1.36 0 0 Z " fill="#16A0E0" transform="translate(197,32)"/>
<path d="M0 0 C1.4375 2.0625 1.4375 2.0625 2 4 C1.01 3.34 0.02 2.68 -1 2 C-4.84302321 1.59547124 -7.51256514 2.40574406 -11 4 C-8.43012555 -1.69043627 -5.96601872 -1.38496863 0 0 Z " fill="#3E9CBD" transform="translate(40,39)"/>
<path d="M0 0 C2.875 0.3125 2.875 0.3125 6 1 C8 4 8 4 8 7 C6.68 6.67 5.36 6.34 4 6 C4.33 5.34 4.66 4.68 5 4 C4.360625 3.896875 3.72125 3.79375 3.0625 3.6875 C2.381875 3.460625 1.70125 3.23375 1 3 C0.67 2.01 0.34 1.02 0 0 Z " fill="#1EA3DC" transform="translate(136,31)"/>
<path d="M0 0 C6.625 -0.25 6.625 -0.25 10 2 C10 2.66 10 3.32 10 4 C9.01 4 8.02 4 7 4 C7 3.34 7 2.68 7 2 C4.36 2.66 1.72 3.32 -1 4 C-0.67 2.68 -0.34 1.36 0 0 Z " fill="#3C8EAD" transform="translate(110,12)"/>
<path d="M0 0 C2.16874252 0.50603992 3.99967627 0.99983813 6 2 C6 1.34 6 0.68 6 0 C7.32 0.33 8.64 0.66 10 1 C10 1.66 10 2.32 10 3 C3.375 4.25 3.375 4.25 0 2 C0 1.34 0 0.68 0 0 Z " fill="#0DA6E6" transform="translate(219,35)"/>
<path d="M0 0 C0.33 0 0.66 0 1 0 C1.3690205 10.55808656 1.3690205 10.55808656 -1 15 C-1.66 14.67 -2.32 14.34 -3 14 C-2.5359375 12.7625 -2.5359375 12.7625 -2.0625 11.5 C-0.88122417 7.60873845 -0.41775832 4.03833047 0 0 Z " fill="#3994B7" transform="translate(82,58)"/>
<path d="M0 0 C-0.33 0.99 -0.66 1.98 -1 3 C-3.31 2.67 -5.62 2.34 -8 2 C-8 1.01 -8 0.02 -8 -1 C-3.375 -2.25 -3.375 -2.25 0 0 Z " fill="#2BA0CC" transform="translate(182,14)"/>
<path d="M0 0 C0.99 0.33 1.98 0.66 3 1 C4.1875 4.5625 4.1875 4.5625 5 8 C3.35 8 1.7 8 0 8 C0 5.36 0 2.72 0 0 Z " fill="#0DAAF1" transform="translate(73,7)"/>
<path d="M0 0 C4.05281712 1.22527029 7.44360764 2.69880494 11 5 C9.234375 5.6484375 9.234375 5.6484375 7 6 C5.078125 5.0390625 5.078125 5.0390625 3.25 3.625 C2.63640625 3.16351563 2.0228125 2.70203125 1.390625 2.2265625 C0.93171875 1.82179688 0.4728125 1.41703125 0 1 C0 0.67 0 0.34 0 0 Z " fill="#419EC5" transform="translate(214,67)"/>
<path d="M0 0 C0.268125 0.598125 0.53625 1.19625 0.8125 1.8125 C2.6627429 5.22084219 4.77713542 6.85142361 8 9 C5.8125 9.375 5.8125 9.375 3 9 C1.00977164 7.16038352 -0.38989899 5.20813852 -2 3 C-1.34 3 -0.68 3 0 3 C0 2.01 0 1.02 0 0 Z " fill="#2A9CCA" transform="translate(220,55)"/>
<path d="M0 0 C1.12894876 0.93274109 2.25300876 1.87140122 3.375 2.8125 C4.00148437 3.33457031 4.62796875 3.85664062 5.2734375 4.39453125 C7 6 7 6 9 9 C6.0280615 7.87548273 3.66559313 6.77706209 1 5 C0.3125 2.375 0.3125 2.375 0 0 Z " fill="#369BC4" transform="translate(193,51)"/>
<path d="M0 0 C-2.33214148 1.20628008 -4.49642139 2.1654738 -7 3 C-8.20882096 5.00016466 -8.20882096 5.00016466 -9 7 C-9 5.02 -9 3.04 -9 1 C-5.8035914 -0.06546953 -3.34252724 -0.07427838 0 0 Z " fill="#3698BE" transform="translate(130,40)"/>
<path d="M0 0 C2.875 0.3125 2.875 0.3125 6 1 C8.1519437 4.22791555 8.20086443 5.28400809 8 9 C7.34 8.01 6.68 7.02 6 6 C4.68733482 4.64631404 3.35432675 3.31200404 2 2 C1.34 1.34 0.68 0.68 0 0 Z " fill="#369BC0" transform="translate(40,33)"/>
<path d="M0 0 C-0.515625 0.12375 -1.03125 0.2475 -1.5625 0.375 C-4.72702351 1.18641628 -7.86124985 2.0945913 -11 3 C-7.61098019 -2.00283876 -5.46995664 -2.51322332 0 0 Z " fill="#3F8BAD" transform="translate(165,15)"/>
<path d="M0 0 C-0.61875 0.28875 -1.2375 0.5775 -1.875 0.875 C-4.13325765 1.93720042 -4.13325765 1.93720042 -6 4 C-6.64767793 6.57061311 -6.64767793 6.57061311 -7 9 C-7.33 9 -7.66 9 -8 9 C-8 6.36 -8 3.72 -8 1 C-5.07175348 0.02391783 -3.04386724 -0.08226668 0 0 Z " fill="#2B99C2" transform="translate(229,38)"/>
<path d="M0 0 C0.66 0.66 1.32 1.32 2 2 C-1.37097383 3.49821059 -3.20442119 4 -7 4 C-7 3.01 -7 2.02 -7 1 C-3.625 0.375 -3.625 0.375 0 0 Z " fill="#1DA9E3" transform="translate(164,32)"/>
<path d="M0 0 C0.99 0.33 1.98 0.66 3 1 C2.67 2.65 2.34 4.3 2 6 C0.35 6.33 -1.3 6.66 -3 7 C-2.01 4.69 -1.02 2.38 0 0 Z " fill="#2B90B9" transform="translate(164,18)"/>
<path d="M0 0 C0.33 0.66 0.66 1.32 1 2 C-2.82320557 3.42258812 -5.91281305 4.24042276 -10 4 C-9.67 3.34 -9.34 2.68 -9 2 C-6.93359375 1.3671875 -6.93359375 1.3671875 -4.4375 0.875 C-3.61121094 0.70742187 -2.78492188 0.53984375 -1.93359375 0.3671875 C-0.97646484 0.18542969 -0.97646484 0.18542969 0 0 Z " fill="#3699BA" transform="translate(22,0)"/>
<path d="M0 0 C1.8871875 0.061875 1.8871875 0.061875 3.8125 0.125 C3.8125 0.455 3.8125 0.785 3.8125 1.125 C-1.8125 3.125 -1.8125 3.125 -5.1875 3.125 C-5.8475 2.795 -6.5075 2.465 -7.1875 2.125 C-4.09861478 0.06574319 -3.47814073 -0.1140374 0 0 Z " fill="#14A4EA" transform="translate(132.1875,30.875)"/>
<path d="M0 0 C2.625 0.375 2.625 0.375 5 1 C5.33 1.99 5.66 2.98 6 4 C5.01 4 4.02 4 3 4 C3 3.34 3 2.68 3 2 C1.35 2 -0.3 2 -2 2 C-1.34 1.34 -0.68 0.68 0 0 Z " fill="#499BBD" transform="translate(242,59)"/>
<path d="M0 0 C2.0625 0.4375 2.0625 0.4375 4 1 C2.71034824 2.37562854 1.37310707 3.70766393 0 5 C-0.66 5 -1.32 5 -2 5 C-1.125 1.125 -1.125 1.125 0 0 Z " fill="#239DCE" transform="translate(200,39)"/>
</svg>
