<?xml version="1.0" encoding="UTF-8"?>
<svg version="1.1" xmlns="http://www.w3.org/2000/svg" width="481" height="124">
<path d="M0 0 C4.10723943 3.82013143 7.6129524 7.427741 8.23828125 13.19921875 C8.42101784 19.32570332 7.78022773 24.03360111 4 29 C0.15658042 32.57354266 -4.33692992 34.66846496 -9 37 C-9.33 37.66 -9.66 38.32 -10 39 C-8.89930457 40.40620341 -7.79838156 41.81222909 -6.6965332 43.2175293 C-5.72294924 44.45928018 -4.75014424 45.70164216 -3.77807617 46.94458008 C-1.08479044 50.37953876 1.63423823 53.78902068 4.40234375 57.1640625 C5.22557129 58.17327759 5.22557129 58.17327759 6.06542969 59.20288086 C7.13432452 60.5106843 8.20907654 61.81372558 9.29003906 63.11157227 C13 67.6653216 13 67.6653216 13 71 C9.16404901 71.64530017 5.82100332 71.80857361 2 71 C-1.63690439 68.1348967 -4.24623334 64.69744221 -7 61 C-8.01375527 59.82717774 -9.03312054 58.65913318 -10.0625 57.5 C-12 55 -12 55 -12 53 C-13.485 52.505 -13.485 52.505 -15 52 C-16.46484375 50.07421875 -16.46484375 50.07421875 -17.9375 47.6875 C-20.98194539 42.932228 -20.98194539 42.932228 -25 39 C-25.99 39 -26.98 39 -28 39 C-28.33 49.56 -28.66 60.12 -29 71 C-32.3 71 -35.6 71 -39 71 C-39 46.58 -39 22.16 -39 -3 C-7.37647059 -4.58117647 -7.37647059 -4.58117647 0 0 Z M-29 1 C-29.0883967 3.3756852 -29.11530305 5.72208674 -29.09765625 8.09765625 C-29.0962413 8.80651474 -29.09482635 9.51537323 -29.09336853 10.24571228 C-29.08775443 12.51801712 -29.07519963 14.79022475 -29.0625 17.0625 C-29.05748681 18.59960796 -29.05292359 20.13671745 -29.04882812 21.67382812 C-29.03778042 25.44925642 -29.02050641 29.22461171 -29 33 C-25.654893 33.91666873 -23.0325119 34.00995603 -19.5625 33.6875 C-18.63566406 33.60886719 -17.70882812 33.53023437 -16.75390625 33.44921875 C-13.93166533 32.98885321 -11.60571016 32.15861885 -9 31 C-9 30.34 -9 29.68 -9 29 C-8.34 29 -7.68 29 -7 29 C-7 28.34 -7 27.68 -7 27 C-6.34 27 -5.68 27 -5 27 C-1.87605403 19.8774032 -1.70481345 15.82080033 -4.25 8.3125 C-6.31204693 4.40933973 -8.47436028 1.86075614 -12.7421875 0.40625 C-15.74612906 -0.1342516 -18.6369035 -0.13183224 -21.6875 -0.125 C-23.42580078 -0.12886719 -23.42580078 -0.12886719 -25.19921875 -0.1328125 C-27.90499156 -0.31928173 -27.90499156 -0.31928173 -29 1 Z " fill="#75716B" transform="translate(154,28)"/>
<path d="M0 0 C0.90473053 -0.00807175 1.80946106 -0.01614349 2.74160767 -0.02445984 C4.66674878 -0.0383283 6.59191477 -0.04903802 8.51708984 -0.05688477 C11.42985769 -0.07394519 14.34144477 -0.11778608 17.25390625 -0.16210938 C30.6024493 -0.27555858 41.1745768 0.40467004 51.2265625 10.09765625 C59.41703918 19.44845046 59.87971352 31.35603868 59.1015625 43.23828125 C57.60179904 53.34593081 52.9043218 60.55315971 45.0078125 66.92578125 C34.24576506 74.33571555 21.90274921 74.54992602 9.30297852 74.4440918 C7.01242199 74.42556578 4.72226507 74.42358447 2.43164062 74.42382812 C-8.75059815 74.3861206 -8.75059815 74.3861206 -9.8984375 73.23828125 C-9.9980767 71.00440919 -10.02643545 68.76734266 -10.02783203 66.53125 C-10.02958435 65.83045319 -10.03133667 65.12965637 -10.03314209 64.40762329 C-10.03756016 62.08031776 -10.03462279 59.75308761 -10.03125 57.42578125 C-10.03192305 55.81534816 -10.03289309 54.20491516 -10.03414917 52.59448242 C-10.03562608 49.2149967 -10.03347181 45.83553735 -10.02880859 42.45605469 C-10.0231113 38.1145162 -10.02639035 33.77303952 -10.03238106 29.4315033 C-10.03598686 26.10477224 -10.034848 22.77805595 -10.03225327 19.45132446 C-10.03158405 17.85006707 -10.03241224 16.24880835 -10.03473282 14.64755249 C-10.03725966 12.41343614 -10.03341835 10.17942125 -10.02783203 7.9453125 C-10.02703644 6.67147705 -10.02624084 5.3976416 -10.02542114 4.08520508 C-9.76356627 -1.78547932 -4.70254568 0.03951787 0 0 Z M2.1015625 3.23828125 C0.38815917 6.9657651 -0.14726758 9.86789962 -0.14135742 13.95898438 C-0.14443405 15.08365112 -0.14751068 16.20831787 -0.15068054 17.36706543 C-0.14349503 18.57237915 -0.13630951 19.77769287 -0.12890625 21.01953125 C-0.12844803 22.26577271 -0.12798981 23.51201416 -0.1275177 24.79602051 C-0.12372735 28.10182532 -0.11074134 31.40743656 -0.09405518 34.7131958 C-0.08060237 38.0692164 -0.08377946 41.42520335 -0.08398438 44.78125 C-0.07906831 47.33984574 -0.07323961 49.89843992 -0.06640625 52.45703125 C-0.06529343 53.66234497 -0.0641806 54.86765869 -0.06303406 56.10949707 C-0.05665421 57.23416382 -0.05027435 58.35883057 -0.04370117 59.51757812 C-0.03988937 60.50399292 -0.03607758 61.49040771 -0.03215027 62.50671387 C0.0987025 65.17985534 0.50461594 67.63311315 1.1015625 70.23828125 C13.92817503 71.81497448 27.08884527 71.85778118 38.1015625 64.23828125 C44.98417672 58.53256427 47.66372122 49.82424776 49.1015625 41.23828125 C49.89539137 32.42983394 48.43312223 23.73486073 44.3515625 15.86328125 C38.17182842 8.65359149 31.71034584 4.4407456 22.1015625 3.23828125 C18.64192499 3.12395157 15.18758088 3.14368907 11.7265625 3.17578125 C10.33630859 3.18254883 10.33630859 3.18254883 8.91796875 3.18945312 C6.64576541 3.20116551 4.37369862 3.21756753 2.1015625 3.23828125 Z " fill="#464038" transform="translate(316.8984375,24.76171875)"/>
<path d="M0 0 C6.70184235 5.36147388 12.29236984 11.62936229 18 18 C18.78890625 18.87398437 19.5778125 19.74796875 20.390625 20.6484375 C23.32442545 23.9002373 26.24785762 27.16128007 29.171875 30.421875 C34.08953009 35.89756187 39.04697667 41.334987 44.03125 46.75 C48.04535666 51.14439044 52.01846715 55.57607462 56 60 C56.33 40.86 56.66 21.72 57 2 C57.99 2 58.98 2 60 2 C60 27.08 60 52.16 60 78 C51.9137931 71.06896552 51.9137931 71.06896552 49.0625 68.25 C48.18271484 67.39148438 48.18271484 67.39148438 47.28515625 66.515625 C46 65 46 65 46 63 C45.34 63 44.68 63 44 63 C42.5671282 61.38281689 41.20375251 59.70376628 39.875 58 C36.31132395 53.52374565 32.60476749 49.46957732 28.43359375 45.55859375 C27 44 27 44 27 42 C26.34 42 25.68 42 25 42 C23.58984375 40.6015625 23.58984375 40.6015625 21.9375 38.625 C18.34106076 34.37741597 14.60207659 30.28224201 10.8203125 26.19921875 C9 24 9 24 8 21 C6.68 20.67 5.36 20.34 4 20 C3.67 38.48 3.34 56.96 3 76 C2.01 76 1.02 76 0 76 C-0.61100257 56.58441823 -1.10310008 37.1762284 -1.125 17.75 C-1.12749756 16.96484009 -1.12999512 16.17968018 -1.13256836 15.37072754 C-1.13839076 13.15856358 -1.13701801 10.94654003 -1.1328125 8.734375 C-1.13168457 7.47850586 -1.13055664 6.22263672 -1.12939453 4.92871094 C-1 2 -1 2 0 0 Z " fill="#62605A" transform="translate(176,23)"/>
<path d="M0 0 C0 0.99 0 1.98 0 3 C-6.93 3 -13.86 3 -21 3 C-20.99476318 4.68891357 -20.98952637 6.37782715 -20.98413086 8.11791992 C-20.96788989 13.74968352 -20.95646313 19.38144371 -20.94818783 25.0132246 C-20.9430084 28.42183448 -20.93600259 31.83041861 -20.92456055 35.23901367 C-20.91143796 39.17366204 -20.90673103 43.10830062 -20.90234375 47.04296875 C-20.89718246 48.24455124 -20.89202118 49.44613373 -20.88670349 50.68412781 C-20.88619463 58.5007048 -21.28774323 66.2161556 -22 74 C-25.3 74 -28.6 74 -32 74 C-32 50.57 -32 27.14 -32 3 C-39.26 3 -46.52 3 -54 3 C-54.33 2.01 -54.66 1.02 -55 0 C-36.57298231 -1.2630514 -18.43811504 -0.90352291 0 0 Z " fill="#57524B" transform="translate(299,25)"/>
<path d="M0 0 C11.22 0 22.44 0 34 0 C34.495 0.99 34.495 0.99 35 2 C22.625 2.495 22.625 2.495 10 3 C9.08291143 6.6683543 8.87886406 9.40111523 8.88647461 13.14550781 C8.88655014 14.38649231 8.88662567 15.62747681 8.88670349 16.90606689 C8.89180969 18.25508667 8.89702568 19.60410604 8.90234375 20.953125 C8.90420976 22.33746286 8.9056328 23.72180138 8.90663147 25.10614014 C8.91044227 28.74261308 8.92026025 32.37904582 8.93133545 36.01550293 C8.9415805 39.72907976 8.94613571 43.4426631 8.95117188 47.15625 C8.96188384 54.43751829 8.97894296 61.7187535 9 69 C9.85464844 68.98839844 10.70929688 68.97679688 11.58984375 68.96484375 C12.69457031 68.95582031 13.79929687 68.94679688 14.9375 68.9375 C16.03964844 68.92589844 17.14179688 68.91429688 18.27734375 68.90234375 C21 69 21 69 22 70 C24.32817964 70.36760731 26.6618385 70.70241581 29 71 C29 71.33 29 71.66 29 72 C19.43 72 9.86 72 0 72 C0 48.24 0 24.48 0 0 Z " fill="#211A12" transform="translate(309,26)"/>
<path d="M0 0 C8.58 0 17.16 0 26 0 C26 0.66 26 1.32 26 2 C20.06 1.67 14.12 1.34 8 1 C8 12.88 8 24.76 8 37 C9.98 37 11.96 37 14 37 C14 37.33 14 37.66 14 38 C12.02 38 10.04 38 8 38 C8 49.22 8 60.44 8 72 C5.36 72 2.72 72 0 72 C0 48.24 0 24.48 0 0 Z " fill="#241E16" transform="translate(116,26)"/>
<path d="M0 0 C6.16330032 4.93064025 11.35804603 10.59787554 16.60693359 16.45849609 C17.95697904 17.95239496 19.33166967 19.42390653 20.70703125 20.89453125 C21.52558594 21.77496094 22.34414062 22.65539062 23.1875 23.5625 C23.92355469 24.34753906 24.65960938 25.13257812 25.41796875 25.94140625 C27 28 27 28 27 31 C26.01 30.67 25.02 30.34 24 30 C23.01 30.33 22.02 30.66 21 31 C21.33 32.98 21.66 34.96 22 37 C17.01931869 33.37768632 11.55527415 28.55491235 9.04296875 22.8125 C8.69878906 22.214375 8.35460937 21.61625 8 21 C6.68 20.67 5.36 20.34 4 20 C3.67 38.48 3.34 56.96 3 76 C2.01 76 1.02 76 0 76 C-0.61100257 56.58441823 -1.10310008 37.1762284 -1.125 17.75 C-1.12749756 16.96484009 -1.12999512 16.17968018 -1.13256836 15.37072754 C-1.13839076 13.15856358 -1.13701801 10.94654003 -1.1328125 8.734375 C-1.13168457 7.47850586 -1.13055664 6.22263672 -1.12939453 4.92871094 C-1 2 -1 2 0 0 Z " fill="#45413A" transform="translate(176,23)"/>
<path d="M0 0 C0.90473053 -0.00807175 1.80946106 -0.01614349 2.74160767 -0.02445984 C4.66674878 -0.0383283 6.59191477 -0.04903802 8.51708984 -0.05688477 C11.42985769 -0.07394519 14.34144477 -0.11778608 17.25390625 -0.16210938 C36.59286442 -0.3234999 36.59286442 -0.3234999 44.1015625 4.23828125 C44.5965625 5.22828125 44.5965625 5.22828125 45.1015625 6.23828125 C44.53308594 6.02171875 43.96460938 5.80515625 43.37890625 5.58203125 C38.3773406 3.77846167 34.41194214 2.89932085 29.1015625 3.23828125 C30.4215625 3.89828125 31.7415625 4.55828125 33.1015625 5.23828125 C30.46905862 6.55453319 29.29977194 5.98641783 26.4765625 5.30078125 C25.65929687 5.10613281 24.84203125 4.91148438 24 4.7109375 C23.37351562 4.55496094 22.74703125 4.39898438 22.1015625 4.23828125 C23.4215625 3.57828125 24.7415625 2.91828125 26.1015625 2.23828125 C14.8815625 1.90828125 3.6615625 1.57828125 -7.8984375 1.23828125 C-7.8984375 24.99828125 -7.8984375 48.75828125 -7.8984375 73.23828125 C-0.6384375 72.90828125 6.6215625 72.57828125 14.1015625 72.23828125 C14.4315625 71.57828125 14.7615625 70.91828125 15.1015625 70.23828125 C17.8671875 69.640625 17.8671875 69.640625 21.3515625 69.17578125 C25.30007466 68.63531748 29.20231448 68.06650498 33.1015625 67.23828125 C32.1115625 68.55828125 31.1215625 69.87828125 30.1015625 71.23828125 C31.4215625 71.56828125 32.7415625 71.89828125 34.1015625 72.23828125 C25.88430127 74.46855437 17.74516942 74.51500362 9.30297852 74.4440918 C7.01242199 74.42556578 4.72226507 74.42358447 2.43164062 74.42382812 C-8.75059815 74.3861206 -8.75059815 74.3861206 -9.8984375 73.23828125 C-9.9980767 71.00440919 -10.02643545 68.76734266 -10.02783203 66.53125 C-10.02958435 65.83045319 -10.03133667 65.12965637 -10.03314209 64.40762329 C-10.03756016 62.08031776 -10.03462279 59.75308761 -10.03125 57.42578125 C-10.03192305 55.81534816 -10.03289309 54.20491516 -10.03414917 52.59448242 C-10.03562608 49.2149967 -10.03347181 45.83553735 -10.02880859 42.45605469 C-10.0231113 38.1145162 -10.02639035 33.77303952 -10.03238106 29.4315033 C-10.03598686 26.10477224 -10.034848 22.77805595 -10.03225327 19.45132446 C-10.03158405 17.85006707 -10.03241224 16.24880835 -10.03473282 14.64755249 C-10.03725966 12.41343614 -10.03341835 10.17942125 -10.02783203 7.9453125 C-10.02703644 6.67147705 -10.02624084 5.3976416 -10.02542114 4.08520508 C-9.76356627 -1.78547932 -4.70254568 0.03951787 0 0 Z " fill="#9B9896" transform="translate(316.8984375,24.76171875)"/>
<path d="M0 0 C4.57590769 -0.31199371 6.50502897 0.08752415 10 3 C10.66 3.12375 11.32 3.2475 12 3.375 C15.07593119 4.3362285 16.21242015 6.41109125 18 9 C19.94207252 14.82621755 19.89139928 20.84394859 17.25 26.4375 C15.57791851 29.33577458 14.12944979 31.57752282 11 33 C8.25 32.6875 8.25 32.6875 6 32 C6.33 31.030625 6.66 30.06125 7 29.0625 C9.09153919 21.5991659 8.4627113 14.91189638 5 8 C3.42543806 5.26794759 1.76018191 2.61592252 0 0 Z " fill="#4A443D" transform="translate(143,27)"/>
<path d="M0 0 C5.60085321 0.64625229 9.56350273 5.32714544 12.9921875 9.4453125 C13.9598096 10.6666085 14.92071906 11.89325151 15.875 13.125 C16.37257812 13.74503906 16.87015625 14.36507812 17.3828125 15.00390625 C21 19.62476391 21 19.62476391 21 23 C17.16308497 23.64546234 13.82303631 23.80097033 10 23 C4.17141451 18.66701929 0.0984086 13.21811365 -1 6 C0.32 5.01 1.64 4.02 3 3 C2.01 2.01 1.02 1.02 0 0 Z " fill="#453E38" transform="translate(146,76)"/>
<path d="M0 0 C0.495 0.99 0.495 0.99 1 2 C0.01 2.33 -0.98 2.66 -2 3 C-2.495 1.515 -2.495 1.515 -3 0 C-5.31 0 -7.62 0 -10 0 C-9.01 1.485 -9.01 1.485 -8 3 C-10.31 2.34 -12.62 1.68 -15 1 C-14.01 0.67 -13.02 0.34 -12 0 C-12 -0.66 -12 -1.32 -12 -2 C-20.58 -2 -29.16 -2 -38 -2 C-38 21.76 -38 45.52 -38 70 C-35.36 70 -32.72 70 -30 70 C-30 58.78 -30 47.56 -30 36 C-28.02 36 -26.04 36 -24 36 C-23.67 36.99 -23.34 37.98 -23 39 C-24.65 39 -26.3 39 -28 39 C-28.33 49.56 -28.66 60.12 -29 71 C-32.3 71 -35.6 71 -39 71 C-39 46.58 -39 22.16 -39 -3 C-9.64981949 -4.46750903 -9.64981949 -4.46750903 0 0 Z " fill="#D4D4CD" transform="translate(154,28)"/>
<path d="M0 0 C2 2 2 2 2.0546875 4.8984375 C1.9351501 7.21122631 1.81017266 9.52374052 1.6796875 11.8359375 C1.71377499 15.11314507 1.71377499 15.11314507 4.0078125 17.4140625 C4.66523438 17.93742187 5.32265625 18.46078125 6 19 C5.34 19.33 4.68 19.66 4 20 C3.67 38.48 3.34 56.96 3 76 C2.01 76 1.02 76 0 76 C-0.61100257 56.58441823 -1.10310008 37.1762284 -1.125 17.75 C-1.12749756 16.96484009 -1.12999512 16.17968018 -1.13256836 15.37072754 C-1.13839076 13.15856358 -1.13701801 10.94654003 -1.1328125 8.734375 C-1.13168457 7.47850586 -1.13055664 6.22263672 -1.12939453 4.92871094 C-1 2 -1 2 0 0 Z " fill="#94938F" transform="translate(176,23)"/>
<path d="M0 0 C0.66 1.32 1.32 2.64 2 4 C2.99 3.34 3.98 2.68 5 2 C5.66 4.31 6.32 6.62 7 9 C-3.36606978 20.35856582 -3.36606978 20.35856582 -11.05859375 21.234375 C-13 21.25 -13 21.25 -16 21 C-15.505 19.515 -15.505 19.515 -15 18 C-14.34 18 -13.68 18 -13 18 C-13 17.34 -13 16.68 -13 16 C-11.80313081 15.12090997 -10.56564329 14.29682309 -9.3125 13.5 C-4.33563619 9.94636012 -2.28272917 5.55317768 0 0 Z " fill="#535048" transform="translate(363,75)"/>
<path d="M0 0 C3.88461538 1.94230769 3.88461538 1.94230769 5.5 4.25 C6.57389294 7.51866162 7.5 10.79603227 7.5 14.25 C4.86472203 15.32363176 3.75308668 15.34734103 1.0625 14.3125 C-2.34899564 11.56666205 -4.85375941 8.33424452 -6.5 4.25 C-6.3203125 2.05859375 -6.3203125 2.05859375 -5.5 0.25 C-2.5 -0.75 -2.5 -0.75 0 0 Z " fill="#3F3A32" transform="translate(202.5,52.75)"/>
<path d="M0 0 C7.26 0 14.52 0 22 0 C22 0.33 22 0.66 22 1 C12.595 1.495 12.595 1.495 3 2 C2.08291143 5.6683543 1.87886406 8.40111523 1.88647461 12.14550781 C1.88655014 13.38649231 1.88662567 14.62747681 1.88670349 15.90606689 C1.89180969 17.25508667 1.89702568 18.60410604 1.90234375 19.953125 C1.90420976 21.33746286 1.9056328 22.72180138 1.90663147 24.10614014 C1.91044227 27.74261308 1.92026025 31.37904582 1.93133545 35.01550293 C1.9415805 38.72907976 1.94613571 42.4426631 1.95117188 46.15625 C1.96188384 53.43751829 1.97894296 60.7187535 2 68 C3.98 68 5.96 68 8 68 C8 68.33 8 68.66 8 69 C5.36 69 2.72 69 0 69 C0 46.23 0 23.46 0 0 Z " fill="#BEBBB8" transform="translate(316,27)"/>
<path d="M0 0 C4.32239956 3.34003602 7.17477391 6.32751069 10 11 C9.01 11.495 9.01 11.495 8 12 C7.27840576 13.64363134 6.60648579 15.31050386 6 17 C7.32 18.65 8.64 20.3 10 22 C9.67 22.66 9.34 23.32 9 24 C4.38 19.05 -0.24 14.1 -5 9 C-4.67 8.34 -4.34 7.68 -4 7 C-2.515 7.99 -2.515 7.99 -1 9 C-0.01 9 0.98 9 2 9 C1.67 7.88625 1.34 6.7725 1 5.625 C0 2 0 2 0 0 Z " fill="#656058" transform="translate(208,58)"/>
<path d="M0 0 C1.65 1.32 3.3 2.64 5 4 C5.33 3.34 5.66 2.68 6 2 C7.98 2.66 9.96 3.32 12 4 C11.67 2.68 11.34 1.36 11 0 C15.2742558 1.5830577 17.26531794 4.50568404 20 8 C19.67 8.66 19.34 9.32 19 10 C18.01 9.67 17.02 9.34 16 9 C15.01 9.33 14.02 9.66 13 10 C13.33 11.98 13.66 13.96 14 16 C8.24945621 11.81778634 2.96017236 6.53279418 0 0 Z " fill="#65615A" transform="translate(184,44)"/>
<path d="M0 0 C2.66666667 2.66666667 5.33333333 5.33333333 8 8 C7.67 8.66 7.34 9.32 7 10 C6.34 9.67 5.68 9.34 5 9 C5 9.99 5 10.98 5 12 C3.68 12.33 2.36 12.66 1 13 C1.33 14.32 1.66 15.64 2 17 C0 15.625 0 15.625 -2 14 C-2 13.34 -2 12.68 -2 12 C-2.99 11.67 -3.98 11.34 -5 11 C-6.39712274 9.04402816 -7.73779907 7.04563599 -9 5 C-8.67 4.34 -8.34 3.68 -8 3 C-6.515 3.99 -6.515 3.99 -5 5 C-2.35367713 4.6878236 -2.35367713 4.6878236 0 4 C0.33 4.66 0.66 5.32 1 6 C0.67 4.02 0.34 2.04 0 0 Z " fill="#69645E" transform="translate(144,69)"/>
<path d="M0 0 C0.99 0.33 1.98 0.66 3 1 C2.01 1.99 1.02 2.98 0 4 C1.32 4.33 2.64 4.66 4 5 C-4.9707277 7.45058068 -13.9178637 7.22989644 -23.125 7.125 C-24.66926501 7.11494704 -26.21353638 7.10582529 -27.7578125 7.09765625 C-31.50534249 7.07583336 -35.25262946 7.04143206 -39 7 C-39 6.67 -39 6.34 -39 6 C-31.41 5.67 -23.82 5.34 -16 5 C-15.67 4.34 -15.34 3.68 -15 3 C-12.12890625 2.40234375 -12.12890625 2.40234375 -8.5625 1.9375 C-4.13296298 1.45941296 -4.13296298 1.45941296 0 0 Z " fill="#A6A4A2" transform="translate(347,92)"/>
<path d="M0 0 C0.33 0 0.66 0 1 0 C0.44687265 4.02992782 -0.1558062 8.02022924 -1 12 C-0.01 12.66 0.98 13.32 2 14 C1.45730469 14.26554687 0.91460937 14.53109375 0.35546875 14.8046875 C-0.35996094 15.15789063 -1.07539063 15.51109375 -1.8125 15.875 C-2.52019531 16.22304688 -3.22789062 16.57109375 -3.95703125 16.9296875 C-6.21246418 18.0656486 -6.21246418 18.0656486 -9 20 C-9.66 19.01 -10.32 18.02 -11 17 C-9.68 16.67 -8.36 16.34 -7 16 C-7 15.34 -7 14.68 -7 14 C-8.32 13.67 -9.64 13.34 -11 13 C-9.35 12.67 -7.7 12.34 -6 12 C-6 11.34 -6 10.68 -6 10 C-5.34 10 -4.68 10 -4 10 C-4 9.34 -4 8.68 -4 8 C-3.34 8 -2.68 8 -2 8 C-1.34 5.36 -0.68 2.72 0 0 Z " fill="#84817D" transform="translate(151,47)"/>
<path d="M0 0 C1.32 1.32 2.64 2.64 4 4 C3.01 4.495 3.01 4.495 2 5 C1.67 23.48 1.34 41.96 1 61 C0.01 60.67 -0.98 60.34 -2 60 C-1.34 60 -0.68 60 0 60 C0 40.2 0 20.4 0 0 Z " fill="#D6D4D3" transform="translate(178,38)"/>
<path d="M0 0 C1.15518918 0.90484792 2.29885406 1.8244206 3.4375 2.75 C4.07558594 3.26046875 4.71367187 3.7709375 5.37109375 4.296875 C7.18810554 6.19667629 7.60423197 7.43586908 8 10 C5.83125748 9.49396008 4.00032373 9.00016187 2 8 C1.67 8.99 1.34 9.98 1 11 C-1.5625 8.75 -1.5625 8.75 -4 6 C-4 3.8125 -4 3.8125 -3 2 C-2.01 1.34 -1.02 0.68 0 0 Z " fill="#221D13" transform="translate(188,38)"/>
<path d="M0 0 C0.99 0 1.98 0 3 0 C3 0.99 3 1.98 3 3 C3.639375 3.144375 4.27875 3.28875 4.9375 3.4375 C7 4 7 4 8 5 C8.04080783 6.99958364 8.04254356 9.00045254 8 11 C4.79136651 11.35651483 3.35998994 11.23683549 0.625 9.4375 C-1 7 -1 7 -0.75 3.25 C-0.5025 2.1775 -0.255 1.105 0 0 Z " fill="#221C13" transform="translate(224,80)"/>
<path d="M0 0 C6.70126536 -0.48736475 11.06561592 0.92291196 17 4 C16.67 4.66 16.34 5.32 16 6 C15.34 6 14.68 6 14 6 C13.67 6.99 13.34 7.98 13 9 C12.34 8.34 11.68 7.68 11 7 C9.989375 6.67 8.97875 6.34 7.9375 6 C5 5 5 5 4 3 C1.98330173 1.86649466 1.98330173 1.86649466 0 1 C0 0.67 0 0.34 0 0 Z " fill="#241F18" transform="translate(345,27)"/>
<path d="M0 0 C1.0828125 0.9590625 1.0828125 0.9590625 2.1875 1.9375 C4.98191184 3.98673535 6.61663274 4.61332946 10 5 C10 3.35 10 1.7 10 0 C10.66 0.33 11.32 0.66 12 1 C12.96070434 3.88211302 13.10581883 5.69850044 13.0625 8.6875 C13.05347656 9.49574219 13.04445312 10.30398437 13.03515625 11.13671875 C13.02355469 11.75160156 13.01195312 12.36648437 13 13 C9.36938333 11.46781315 7.0136227 9.2816856 4.25 6.5 C3.45078125 5.7059375 2.6515625 4.911875 1.828125 4.09375 C0 2 0 2 0 0 Z " fill="#534F46" transform="translate(222,86)"/>
<path d="M0 0 C1.98 0 3.96 0 6 0 C6.33 0.99 6.66 1.98 7 3 C5.35 3 3.7 3 2 3 C1.67 13.56 1.34 24.12 1 35 C-2.3 35 -5.6 35 -9 35 C-9 32.69 -9 30.38 -9 28 C-8.67 28 -8.34 28 -8 28 C-8 29.98 -8 31.96 -8 34 C-5.36 34 -2.72 34 0 34 C0 22.78 0 11.56 0 0 Z " fill="#DBD9D5" transform="translate(124,64)"/>
<path d="M0 0 C0.495 0.99 0.495 0.99 1 2 C0.01 2.33 -0.98 2.66 -2 3 C-2.495 1.515 -2.495 1.515 -3 0 C-5.31 0 -7.62 0 -10 0 C-9.01 1.485 -9.01 1.485 -8 3 C-10.31 2.34 -12.62 1.68 -15 1 C-14.01 0.67 -13.02 0.34 -12 0 C-12 -0.66 -12 -1.32 -12 -2 C-20.58 -2 -29.16 -2 -38 -2 C-38 -2.33 -38 -2.66 -38 -3 C-10.48344491 -4.85344672 -10.48344491 -4.85344672 0 0 Z " fill="#989692" transform="translate(154,28)"/>
<path d="M0 0 C0.33 0.66 0.66 1.32 1 2 C1.99 1.67 2.98 1.34 4 1 C4.33 1.99 4.66 2.98 5 4 C0.44573816 6.66590937 -2.73946963 7.31563182 -8 7 C-7.67 6.01 -7.34 5.02 -7 4 C-6.34 4 -5.68 4 -5 4 C-5 3.34 -5 2.68 -5 2 C-2 0 -2 0 0 0 Z " fill="#5B5650" transform="translate(355,89)"/>
<path d="M0 0 C2.6875 0.875 2.6875 0.875 5 2 C5.33 4.31 5.66 6.62 6 9 C4.1875 9.6875 4.1875 9.6875 2 10 C0.25 8.8125 0.25 8.8125 -1 7 C-1 5.68 -1 4.36 -1 3 C-1.66 2.67 -2.32 2.34 -3 2 C-2.01 1.34 -1.02 0.68 0 0 Z " fill="#211B11" transform="translate(204,58)"/>
<path d="M0 0 C2.33333333 2.33333333 4.66666667 4.66666667 7 7 C7 7.99 7 8.98 7 10 C3.37 10 -0.26 10 -4 10 C-4.33 9.34 -4.66 8.68 -5 8 C-3.02 7.67 -1.04 7.34 1 7 C0.67 4.69 0.34 2.38 0 0 Z " fill="#7F7B78" transform="translate(160,89)"/>
<path d="M0 0 C0.97582031 0.00902344 1.95164063 0.01804688 2.95703125 0.02734375 C3.69308594 0.03894531 4.42914063 0.05054688 5.1875 0.0625 C4.55457031 0.35511719 3.92164063 0.64773437 3.26953125 0.94921875 C0.67310765 2.33755032 0.06505383 3.27028328 -0.8125 6.0625 C-0.50871948 8.75243053 -0.50871948 8.75243053 0.1875 11.0625 C-3.0667015 8.22819547 -4.3331753 6.37642226 -4.8125 2.0625 C-6.7925 2.0625 -8.7725 2.0625 -10.8125 2.0625 C-10.8125 1.7325 -10.8125 1.4025 -10.8125 1.0625 C-7.13862505 0.20951624 -3.7677607 -0.04539471 0 0 Z " fill="#7C7A75" transform="translate(134.8125,60.9375)"/>
<path d="M0 0 C0 0.33 0 0.66 0 1 C-9.57 1 -19.14 1 -29 1 C-29 0.67 -29 0.34 -29 0 C-25.8568105 -0.39975388 -22.71048201 -0.76510368 -19.5625 -1.125 C-18.68400391 -1.23714844 -17.80550781 -1.34929687 -16.90039062 -1.46484375 C-10.76252803 -2.14431193 -5.95949313 -1.63689028 0 0 Z " fill="#3F3C39" transform="translate(338,97)"/>
<path d="M0 0 C1.5625 1.1875 1.5625 1.1875 3 3 C2.6875 5.6875 2.6875 5.6875 2 8 C1.01 8 0.02 8 -1 8 C-1 7.34 -1 6.68 -1 6 C-2.98 6.99 -2.98 6.99 -5 8 C-4.64950425 4.75791433 -4.43778819 3.38472296 -1.9375 1.1875 C-1.298125 0.795625 -0.65875 0.40375 0 0 Z " fill="#4A423A" transform="translate(360,84)"/>
<path d="M0 0 C6.2483376 0.50559068 10.55853027 1.89796703 15.99609375 5.01953125 C15.00609375 5.51453125 15.00609375 5.51453125 13.99609375 6.01953125 C12.3111897 5.25967256 10.62700536 4.49810384 8.94921875 3.72265625 C5.95951917 2.6463644 3.1297532 2.82767455 -0.00390625 3.01953125 C1.31609375 3.67953125 2.63609375 4.33953125 3.99609375 5.01953125 C1.36358987 6.33578319 0.19430319 5.76766783 -2.62890625 5.08203125 C-3.44617188 4.88738281 -4.2634375 4.69273438 -5.10546875 4.4921875 C-6.04519531 4.25822266 -6.04519531 4.25822266 -7.00390625 4.01953125 C-6.36453125 3.54515625 -5.72515625 3.07078125 -5.06640625 2.58203125 C-1.67973563 0.01637169 -1.67973563 0.01637169 0 0 Z " fill="#B1AFAB" transform="translate(346.00390625,24.98046875)"/>
<path d="M0 0 C2.875 -0.1875 2.875 -0.1875 6 0 C8 3 8 3 7.625 5.1875 C7.41875 5.785625 7.2125 6.38375 7 7 C4.69 6.01 2.38 5.02 0 4 C0 2.68 0 1.36 0 0 Z " fill="#231C12" transform="translate(138,69)"/>
<path d="M0 0 C4.2742558 1.5830577 6.26531794 4.50568404 9 8 C8.67 8.66 8.34 9.32 8 10 C7.071875 9.505 6.14375 9.01 5.1875 8.5 C2.13472484 6.78710148 2.13472484 6.78710148 -1 7 C-0.67 4.69 -0.34 2.38 0 0 Z " fill="#6E6964" transform="translate(195,44)"/>
<path d="M0 0 C0.66 0.33 1.32 0.66 2 1 C1.67 1.66 1.34 2.32 1 3 C0.34 3 -0.32 3 -1 3 C-1 3.99 -1 4.98 -1 6 C-0.34 6.66 0.32 7.32 1 8 C-0.98 9.32 -2.96 10.64 -5 12 C-5.66 11.01 -6.32 10.02 -7 9 C-5.68 8.67 -4.36 8.34 -3 8 C-3 7.34 -3 6.68 -3 6 C-4.32 5.67 -5.64 5.34 -7 5 C-5.35 4.67 -3.7 4.34 -2 4 C-2 3.34 -2 2.68 -2 2 C-1.34 2 -0.68 2 0 2 C0 1.34 0 0.68 0 0 Z " fill="#C3C2BE" transform="translate(147,55)"/>
<path d="M0 0 C2.75 -0.25 2.75 -0.25 6 0 C8.375 2 8.375 2 10 4 C9.67 4.99 9.34 5.98 9 7 C2.25 3.375 2.25 3.375 0 0 Z " fill="#241F18" transform="translate(143,27)"/>
<path d="M0 0 C3.35212973 3.08748791 5.85053527 5.51708756 7 10 C6.625 12.3125 6.625 12.3125 6 14 C5.7525 13.195625 5.505 12.39125 5.25 11.5625 C4.27761141 8.828919 4.27761141 8.828919 1.875 8.1875 C1.25625 8.125625 0.6375 8.06375 0 8 C0.185625 7.236875 0.37125 6.47375 0.5625 5.6875 C1.22819173 2.91032625 1.22819173 2.91032625 0 0 Z " fill="#8A8780" transform="translate(367,35)"/>
<path d="M0 0 C1.258125 -0.04125 2.51625 -0.0825 3.8125 -0.125 C4.52019531 -0.14820312 5.22789062 -0.17140625 5.95703125 -0.1953125 C8 0 8 0 11 2 C10.01 2 9.02 2 8 2 C8.33 3.32 8.66 4.64 9 6 C7.0625 5.625 7.0625 5.625 5 5 C4.67 4.34 4.34 3.68 4 3 C1.98330173 1.86649466 1.98330173 1.86649466 0 1 C0 0.67 0 0.34 0 0 Z " fill="#423D39" transform="translate(345,27)"/>
<path d="M0 0 C3 1 3 1 4.6875 4.0625 C5.120625 5.031875 5.55375 6.00125 6 7 C4.02 7.66 2.04 8.32 0 9 C0 6.03 0 3.06 0 0 Z " fill="#342F28" transform="translate(177,25)"/>
<path d="M0 0 C1.32 1.32 2.64 2.64 4 4 C3.01 4.495 3.01 4.495 2 5 C1.67 10.61 1.34 16.22 1 22 C0.67 22 0.34 22 0 22 C0 14.74 0 7.48 0 0 Z " fill="#DCDBD7" transform="translate(178,38)"/>
<path d="M0 0 C-1.485 1.485 -1.485 1.485 -3 3 C-1.68 3.33 -0.36 3.66 1 4 C-3.455 4.495 -3.455 4.495 -8 5 C-7.34 4.34 -6.68 3.68 -6 3 C-6.99 2.34 -7.98 1.68 -9 1 C-3.375 -1.125 -3.375 -1.125 0 0 Z " fill="#AEAAA6" transform="translate(350,93)"/>
<path d="M0 0 C0.99 0.33 1.98 0.66 3 1 C2.67 2.32 2.34 3.64 2 5 C0.35 5.33 -1.3 5.66 -3 6 C-2.67 4.68 -2.34 3.36 -2 2 C-1.34 2 -0.68 2 0 2 C0 1.34 0 0.68 0 0 Z " fill="#201811" transform="translate(159,91)"/>
</svg>
