<?xml version="1.0" encoding="UTF-8"?>
<svg version="1.1" xmlns="http://www.w3.org/2000/svg" width="1024" height="1024">
<path d="M0 0 C1.75681125 1.38223588 3.48591962 2.8003152 5.1875 4.25 C6.12335938 5.03890625 7.05921875 5.8278125 8.0234375 6.640625 C17.11062708 14.95602587 24.65792694 26.56847445 25.42578125 39.15625 C25.84148205 56.07434871 21.33302315 68.22539621 9.87109375 80.7890625 C-6.87287573 96.84341215 -31.0629196 104.46158414 -53.9375 104.4375 C-54.66743164 104.43741943 -55.39736328 104.43733887 -56.14941406 104.43725586 C-64.85368771 104.34749186 -73.29364401 103.00109817 -81.8125 101.25 C-82.21339844 101.74628906 -82.61429688 102.24257813 -83.02734375 102.75390625 C-94.35595033 116.29171955 -107.06025507 121.39244851 -124.35546875 122.98828125 C-126.17137354 123.12575653 -127.99139878 123.25 -129.8125 123.25 C-129.8125 122.26 -129.8125 121.27 -129.8125 120.25 C-128.801875 119.755 -127.79125 119.26 -126.75 118.75 C-118.21412547 113.8427361 -113.14312706 105.3308337 -110.5 96.0625 C-109.83736575 92.3878919 -109.67303236 90.71677655 -110.8125 87.25 C-112.8223525 85.08739427 -112.8223525 85.08739427 -115.375 83.125 C-127.48698808 72.69378852 -133.84998105 60.18523495 -135.125 44.375 C-134.68060672 30.59880834 -128.20551203 18.03947033 -118.8125 8.25 C-106.08299465 -3.25551445 -91.5125377 -10.14962646 -74.8125 -13.75 C-74.05372559 -13.9243457 -73.29495117 -14.09869141 -72.51318359 -14.27832031 C-48.1190357 -18.53880609 -20.51136314 -14.17782608 0 0 Z " fill="#EE3696" transform="translate(298.8125,405.75)"/>
<path d="M0 0 C1.05574219 0.37382812 2.11148438 0.74765625 3.19921875 1.1328125 C20.79197361 7.93564473 35.12905124 18.73122497 42.984375 36.1875 C47.77420966 48.11689953 46.77083312 60.15304537 41.78125 71.859375 C37.95771512 79.37899359 32.70558996 86.66926067 25.75390625 91.58984375 C23.65121674 92.95176051 23.65121674 92.95176051 23.5625 96.0625 C24.92807067 108.35263605 29.94176193 115.88943376 39.4609375 123.5546875 C39.96882812 124.03164063 40.47671875 124.50859375 41 125 C41 125.66 41 126.32 41 127 C24.24638295 126.23847195 11.95627496 122.08266264 0 110 C-0.66 109.01 -1.32 108.02 -2 107 C-2.7734375 107.13277344 -3.546875 107.26554687 -4.34375 107.40234375 C-5.90609375 107.66724609 -5.90609375 107.66724609 -7.5 107.9375 C-9.03140625 108.19853516 -9.03140625 108.19853516 -10.59375 108.46484375 C-17.43059676 109.53898137 -23.96241232 110.16138204 -30.875 110.125 C-31.63296875 110.12886719 -32.3909375 110.13273437 -33.171875 110.13671875 C-38.74640067 110.12679967 -38.74640067 110.12679967 -41 109 C-40.86722656 108.41992188 -40.73445313 107.83984375 -40.59765625 107.2421875 C-40.05249683 104.83075239 -39.52485321 102.41592736 -39 100 C-38.79375 99.071875 -38.5875 98.14375 -38.375 97.1875 C-36.59343318 82.04418203 -39.66150509 67.49927397 -49.109375 55.26953125 C-51.32347462 52.74622116 -53.61022161 50.35687266 -56 48 C-56.61488281 47.37480469 -57.22976563 46.74960937 -57.86328125 46.10546875 C-68.72642736 35.80059995 -83.69063268 29.66053583 -98 26 C-92.83835849 14.24733934 -79.38650444 7.26066318 -68.25 2.25 C-46.9200319 -5.890156 -21.72683328 -7.88660852 0 0 Z " fill="#F7941E" transform="translate(367,362)"/>
<path d="M0 0 C2.33658846 1.88055409 2.55909093 2.63442964 2.94140625 5.5625 C2.41235352 7.94433594 2.41235352 7.94433594 1.5078125 10.546875 C1.18876953 11.48144531 0.86972656 12.41601562 0.54101562 13.37890625 C0.19876953 14.34699219 -0.14347656 15.31507813 -0.49609375 16.3125 C-0.83447266 17.29605469 -1.17285156 18.27960937 -1.52148438 19.29296875 C-2.35783505 21.71956366 -3.20380803 24.14235028 -4.05859375 26.5625 C-6.03859375 26.5625 -8.01859375 26.5625 -10.05859375 26.5625 C-10.55359375 25.386875 -11.04859375 24.21125 -11.55859375 23 C-14.66742178 16.80431445 -19.45032194 13.0115399 -25.43359375 9.6875 C-34.17816554 6.97366737 -42.87244051 6.72540214 -51.32421875 10.6015625 C-56.39595651 13.51311566 -60.02864975 16.77888628 -61.62109375 22.62890625 C-62.58397869 28.39618581 -61.92562746 33.43201863 -59.05859375 38.5625 C-51.28095604 47.89566525 -38.95054469 52.66240237 -28.12109375 57.4375 C-13.54680413 63.91945235 1.5613266 72.27253324 8.234375 87.66015625 C12.91379571 100.2506418 12.00511718 113.20638984 6.94140625 125.5625 C0.7767366 138.66971559 -9.27030908 147.10292134 -22.68359375 152.4921875 C-32.55780513 155.6235925 -41.60479972 157.04883427 -51.9765625 156.95361328 C-54.05665622 156.93751499 -56.13480809 156.95355988 -58.21484375 156.97265625 C-70.30399533 156.99183613 -81.08662776 154.66894958 -92.05859375 149.5625 C-92.38859375 149.2325 -92.71859375 148.9025 -93.05859375 148.5625 C-92.70928611 141.92565475 -91.20326923 135.72435264 -89.51879883 129.32397461 C-88.49440728 125.42018635 -87.65461494 121.55460027 -87.05859375 117.5625 C-85.07859375 117.5625 -83.09859375 117.5625 -81.05859375 117.5625 C-80.671875 118.37074219 -80.28515625 119.17898438 -79.88671875 120.01171875 C-79.3659375 121.08035156 -78.84515625 122.14898438 -78.30859375 123.25 C-77.798125 124.30574219 -77.28765625 125.36148438 -76.76171875 126.44921875 C-72.70485692 133.86508774 -67.63139599 137.86794885 -59.56640625 140.3203125 C-49.45175318 142.55750991 -38.96389051 142.56427817 -29.74609375 137.375 C-25.19390066 134.30997756 -23.27978121 130.71723427 -21.30859375 125.625 C-20.51544738 119.08154248 -20.60494077 113.31108852 -24.05859375 107.5625 C-32.11178882 97.70664327 -45.44258436 92.6370992 -56.7578125 87.49267578 C-70.81747965 81.0781104 -84.43103325 72.55387867 -90.40234375 57.5703125 C-93.85998399 46.99157985 -93.98340633 32.14629623 -89.3828125 21.9765625 C-88.94582031 21.17992187 -88.50882813 20.38328125 -88.05859375 19.5625 C-87.29482422 18.15097656 -87.29482422 18.15097656 -86.515625 16.7109375 C-78.99433886 3.94024113 -67.55104389 -3.06807532 -53.55859375 -7.375 C-35.45600838 -11.24721077 -16.20009178 -8.88470011 0 0 Z " fill="#3A3A3C" transform="translate(142.05859375,510.4375)"/>
<path d="M0 0 C11.42444519 9.90232599 17.06022835 23.14652365 18.44921875 37.99609375 C19.8120615 57.27533258 14.912149 74.57184734 2.484375 89.44921875 C-6.17443838 98.72027146 -18.59344363 104.6669807 -31.30639648 105.4387207 C-52.31702419 105.84040153 -71.25326018 105.4591852 -87.546875 90.30078125 C-101.05752714 75.35891596 -102.26721475 58.64056543 -101.61279297 39.44238281 C-100.82102397 28.10703496 -96.16070689 18.29355445 -89.390625 9.26171875 C-88.91882813 8.60816406 -88.44703125 7.95460938 -87.9609375 7.28125 C-67.92532881 -18.3575374 -24.45642317 -18.68774708 0 0 Z M-56.78515625 7.91015625 C-64.97288108 19.90288216 -64.56422527 35.4683246 -64.640625 49.38671875 C-64.6499707 50.56613037 -64.65931641 51.74554199 -64.66894531 52.96069336 C-64.62446535 65.21064595 -63.82095867 79.34273981 -55.75390625 89.27734375 C-51.57490086 93.14644537 -47.20272017 95.1409395 -41.41796875 95.32421875 C-36.06096548 94.99392182 -32.07565337 93.1810032 -28.390625 89.26171875 C-21.41737762 78.77350114 -19.28686501 65.85418706 -19.15234375 53.484375 C-19.144272 52.75536484 -19.13620026 52.02635468 -19.12788391 51.2752533 C-19.11412814 49.73650424 -19.10336843 48.19772576 -19.09545898 46.65893555 C-19.08402193 45.11847691 -19.06370369 43.57805525 -19.03393555 42.0378418 C-18.78377834 29.04224464 -18.89682251 13.21863356 -28.390625 3.26171875 C-38.53444754 -4.16059043 -49.1766723 -1.32751742 -56.78515625 7.91015625 Z " fill="#3A3A3C" transform="translate(270.390625,561.73828125)"/>
<path d="M0 0 C7.10875564 6.82795241 10.25574653 15.24754263 10.71673584 25.0194397 C10.7388815 28.18919102 10.72903066 31.35587196 10.68226433 34.52534866 C10.65171577 36.64513857 10.63518494 38.76464672 10.62220764 40.88461304 C10.58275848 46.90506205 10.51734736 52.92516593 10.44604492 58.9453125 C10.40317992 62.64500664 10.37518281 66.34458821 10.35574532 70.04447556 C10.34523489 71.44545467 10.32890254 72.84640351 10.30644035 74.24724197 C9.97637876 84.45406047 9.97637876 84.45406047 13.5625 93.75 C16.00628947 95.00550804 16.00628947 95.00550804 18.75 95.1875 C19.65105469 95.30996094 20.55210937 95.43242188 21.48046875 95.55859375 C22.16753906 95.62175781 22.85460937 95.68492187 23.5625 95.75 C23.5625 98.06 23.5625 100.37 23.5625 102.75 C22.14771865 103.39995297 20.73058513 104.04478722 19.3125 104.6875 C18.52359375 105.04714844 17.7346875 105.40679688 16.921875 105.77734375 C11.82851645 107.87708924 7.12940816 107.9648342 1.6875 108 C0.89730469 108.020625 0.10710937 108.04125 -0.70703125 108.0625 C-7.08538126 108.10495158 -11.17781474 106.74067511 -16.0625 102.4375 C-18.52314686 99.65308382 -20.46534324 96.89084225 -22.4375 93.75 C-23.09492187 94.51183594 -23.09492187 94.51183594 -23.765625 95.2890625 C-30.74584285 102.86515261 -37.59590114 107.56382014 -47.97265625 108.2578125 C-50.00204827 108.31931418 -52.03224613 108.35815814 -54.0625 108.375 C-55.02808838 108.38595703 -55.99367676 108.39691406 -56.98852539 108.40820312 C-66.75235924 108.21504124 -74.61548861 105.33004002 -81.74609375 98.6171875 C-88.89577549 90.72446724 -89.09657702 81.79211507 -88.62548828 71.66015625 C-87.99687141 65.27275577 -84.54411526 60.46555278 -80.4375 55.75 C-69.31604474 46.71501397 -55.16430744 43.69211066 -41.49047852 40.62451172 C-35.97012877 39.3357444 -31.45726534 37.37940089 -26.4375 34.75 C-25.7775 34.75 -25.1175 34.75 -24.4375 34.75 C-23.97069871 27.6961139 -23.78318488 21.45153602 -28.4375 15.75 C-35.5035007 9.94371663 -42.48570206 8.9493423 -51.4375 9.75 C-59.17833438 11.40425497 -65.27112096 13.81689677 -71.4375 18.75 C-72.0975 18.75 -72.7575 18.75 -73.4375 18.75 C-73.7675 19.74 -74.0975 20.73 -74.4375 21.75 C-75.4275 21.75 -76.4175 21.75 -77.4375 21.75 C-77.94338147 19.83487728 -78.44198391 17.91783078 -78.9375 16 C-79.2159375 14.93265625 -79.494375 13.8653125 -79.78125 12.765625 C-80.4375 9.75 -80.4375 9.75 -80.4375 5.75 C-59.39837016 -11.31884244 -22.43834416 -18.14432708 0 0 Z M-33.625 50.375 C-34.88280273 50.87193359 -34.88280273 50.87193359 -36.16601562 51.37890625 C-42.95546605 54.18796849 -48.39169307 57.51630517 -52.375 63.8125 C-54.64378676 70.1397376 -54.60306261 78.49981853 -52.3125 84.8125 C-50.00824815 88.42249456 -48.33571918 89.9452689 -44.4375 91.75 C-39.54296855 92.7107784 -35.52549766 92.17254344 -31.125 89.8125 C-26.70949514 86.51934259 -24.90709042 83.0209428 -23.4375 77.75 C-22.8346152 72.39449915 -22.74035642 67.07209366 -22.6875 61.6875 C-22.65928965 60.23499126 -22.62935529 58.78251492 -22.59765625 57.33007812 C-22.52439589 53.80353724 -22.47445665 50.27713013 -22.4375 46.75 C-26.35546332 46.75 -30.04792716 48.89687073 -33.625 50.375 Z " fill="#3A3A3C" transform="translate(578.4375,559.25)"/>
<path d="M0 0 C13.5021812 -0.41582804 26.86848609 2.45253812 37.28125 11.37109375 C45.44487015 19.32539031 49.44547817 26.95297546 51.90625 38.12109375 C51.90625 45.71109375 51.90625 53.30109375 51.90625 61.12109375 C29.13625 61.12109375 6.36625 61.12109375 -17.09375 61.12109375 C-14.43338045 81.47834136 -14.43338045 81.47834136 -3.09375 97.12109375 C5.63857157 102.752217 15.26075518 103.50119651 25.3671875 101.40234375 C31.31907458 99.68198478 36.17525401 97.55386215 41.25 94.02734375 C42.90625 93.12109375 42.90625 93.12109375 45.90625 93.30859375 C46.56625 93.57671875 47.22625 93.84484375 47.90625 94.12109375 C47.43808227 100.05121839 45.39783413 105.3321779 41.90625 110.12109375 C38.77837283 112.46145575 35.58466834 113.8468704 31.90625 115.12109375 C31.23803223 115.37785889 30.56981445 115.63462402 29.88134766 115.89916992 C22.84624251 118.36021635 16.08926805 118.61473849 8.67626953 118.56713867 C6.67344551 118.55866649 4.67057993 118.58873859 2.66796875 118.61914062 C-13.87064814 118.61099352 -27.60965922 114.02326754 -39.734375 102.6328125 C-52.46740356 89.07761819 -54.60814312 72.62585006 -54.37109375 54.828125 C-53.85076572 39.26746928 -48.32985044 25.73064012 -37.56640625 14.41015625 C-26.93912539 4.5719468 -14.17976707 0.82009847 0 0 Z M-9.47265625 17.78125 C-16.04732426 27.33905096 -16.27475981 37.65523114 -17.09375 49.12109375 C-5.21375 49.12109375 6.66625 49.12109375 18.90625 49.12109375 C18.90625 37.77280762 17.92562251 24.60619485 10.90625 15.12109375 C3.8033055 9.87109129 -3.86385984 11.02844979 -9.47265625 17.78125 Z " fill="#3A3A3C" transform="translate(923.09375,548.87890625)"/>
<path d="M0 0 C33.33 0 66.66 0 101 0 C101 16.0387419 101 16.0387419 93.875 24.1875 C92.39542808 25.99860654 90.91759699 27.81113647 89.44140625 29.625 C88.69391113 30.5221875 87.94641602 31.419375 87.17626953 32.34375 C83.89789127 36.34518095 80.85263868 40.5039023 77.8125 44.6875 C76.66154841 46.25787852 75.51050744 47.82819154 74.359375 49.3984375 C73.23952897 50.93225198 72.11973642 52.4661055 71 54 C70.46310547 54.73250977 69.92621094 55.46501953 69.37304688 56.21972656 C61.45028739 67.03530406 53.82550155 78.03289193 46.3125 89.13671875 C43.6018002 93.13671069 40.8292089 97.08304601 38 101 C58.33385263 100.34846197 78.66714955 99.68211561 99 99 C99 105.27 99 111.54 99 118 C64.02 118 29.04 118 -7 118 C-7 103.42607313 -7 103.42607313 -2.8125 98.8125 C-1.88434738 97.73231226 -0.96007309 96.64878372 -0.0390625 95.5625 C0.45561523 94.99402344 0.95029297 94.42554688 1.45996094 93.83984375 C4.27463765 90.47722427 6.77277243 86.88442246 9.3125 83.3125 C10.42392724 81.76392664 11.53591179 80.21575313 12.6484375 78.66796875 C13.48133301 77.506604 13.48133301 77.506604 14.33105469 76.32177734 C15.95670727 74.0602273 17.5899861 71.8044356 19.2265625 69.55078125 C26.09764413 60.08474761 32.85071425 50.54242378 39.54296875 40.94921875 C42.96990088 36.03737975 46.41894008 31.14137482 49.875 26.25 C50.39328369 25.51644287 50.91156738 24.78288574 51.44555664 24.02709961 C52.63004039 22.35116596 53.81496504 20.67554394 55 19 C36.993386 19.55113246 18.99669098 20.17662198 1 21 C0.67 14.07 0.34 7.14 0 0 Z " fill="#3A3A3C" transform="translate(754,549)"/>
<path d="M0 0 C12.54 0 25.08 0 38 0 C38 10.00114979 37.87181045 19.92604018 37.5078125 29.91015625 C36.90612735 47.68281731 36.84602245 65.44742564 36.86962891 83.22875977 C36.87532102 87.56513746 36.87194122 91.90145362 36.86617661 96.23782921 C36.84553089 114.72220686 36.99329308 133.18315714 37.65060425 151.65708923 C37.95794436 160.4571223 38 169.1810116 38 178 C25.46 178 12.92 178 0 178 C0.16226074 174.13925781 0.32452148 170.27851562 0.49169922 166.30078125 C1.06082302 151.59359908 1.1462343 136.90390341 1.1328125 122.1875 C1.13348924 119.51066025 1.13446177 116.83382184 1.13571167 114.15698242 C1.13750945 108.59390759 1.13519108 103.03084621 1.13037109 97.46777344 C1.12493319 91.11992024 1.12669756 84.77209921 1.1321975 78.42424679 C1.13679804 72.88362073 1.13734592 67.34300411 1.13475883 61.80237675 C1.1332335 58.53282641 1.13331339 55.2632937 1.13629532 51.9937439 C1.14866205 34.63447875 0.72899374 17.34527316 0 0 Z " fill="#3A3A3C" transform="translate(620,489)"/>
<path d="M0 0 C-1.428034 3.6062794 -2.9216154 7.17987926 -4.4375 10.75 C-6.53931227 15.77445064 -8.35621767 20.80910842 -10 26 C-12.31 26 -14.62 26 -17 26 C-17.14695312 25.38253906 -17.29390625 24.76507812 -17.4453125 24.12890625 C-19.50583376 16.34866218 -22.20943537 9.24626052 -29.375 5 C-37.77635611 2.68238452 -45.15622771 2.21281073 -53.203125 6.05078125 C-60.6115702 10.84364942 -64.00716696 18.61134108 -66.03515625 26.9609375 C-69.59559298 43.71478123 -70.49974283 64.0196363 -61 79 C-60.443125 79.886875 -59.88625 80.77375 -59.3125 81.6875 C-52.63096345 88.36903655 -44.01652649 91.03624726 -34.75 91.375 C-25.72987536 91.22968154 -18.1729681 88.37972607 -11 83 C-10.01 82.34 -9.02 81.68 -8 81 C-6.515 81.99 -6.515 81.99 -5 83 C-6.07309895 88.83432442 -7.2838483 95.29039324 -11.62109375 99.6171875 C-21.76627632 106.40876502 -33.10933152 107.62366703 -45 107.4375 C-46.27617187 107.44458984 -47.55234375 107.45167969 -48.8671875 107.45898438 C-65.46565304 107.34866738 -79.69080434 102.93732255 -91.81640625 91.27734375 C-104.86832607 77.66505528 -107.64483733 61.61534386 -107.3125 43.40234375 C-106.67686994 28.10219856 -99.15005163 14.28829685 -88 4 C-61.91134255 -16.09531722 -28.12564809 -14.5178615 0 0 Z " fill="#3A3A3C" transform="translate(413,560)"/>
<path d="M0 0 C12.54 0 25.08 0 38 0 C37.67 5.61 37.34 11.22 37 17 C36.921883 20.20399856 36.86159759 23.38473108 36.87060547 26.58642578 C36.86885315 27.40362091 36.86710083 28.22081604 36.86529541 29.06277466 C36.86099295 31.6903107 36.86377226 34.31777612 36.8671875 36.9453125 C36.86651125 38.81322238 36.86553857 40.68113217 36.86428833 42.54904175 C36.86282717 46.43325654 36.86491486 50.3174481 36.86962891 54.20166016 C36.87533323 59.13772997 36.87203256 64.07374546 36.86605644 69.00981331 C36.86241457 72.85692746 36.86360581 76.70402908 36.86618423 80.55114365 C36.86684309 82.36969891 36.86606228 84.18825538 36.86370468 86.00680923 C36.86111678 88.5620239 36.86510271 91.11715474 36.87060547 93.67236328 C36.86858124 94.39588989 36.86655701 95.1194165 36.86447144 95.86486816 C36.89360419 103.30006773 37.50177365 110.52660472 38 118 C25.46 118 12.92 118 0 118 C0.165 113.689375 0.33 109.37875 0.5 104.9375 C1.65266062 69.98809812 1.51066129 34.9340424 0 0 Z " fill="#3A3A3C" transform="translate(688,549)"/>
<path d="M0 0 C12.54 0 25.08 0 38 0 C37.67 5.28 37.34 10.56 37 16 C36.9215352 19.06942384 36.86165247 22.11456978 36.87060547 25.18164062 C36.86885315 25.96782272 36.86710083 26.75400482 36.86529541 27.56401062 C36.86098919 30.09478136 36.86377425 32.62547889 36.8671875 35.15625 C36.86651123 36.95593275 36.86553854 38.75561541 36.86428833 40.55529785 C36.86282654 44.3000578 36.86491647 48.04479366 36.86962891 51.78955078 C36.87532523 56.54282806 36.872038 61.29604882 36.86605644 66.04932404 C36.86240946 69.7575115 36.86360823 73.465686 36.86618423 77.1738739 C36.86684212 78.92461657 36.86606591 80.67536049 36.86370468 82.42610168 C36.86110906 84.89021845 36.86511322 87.35424889 36.87060547 89.81835938 C36.86858124 90.51180954 36.86655701 91.2052597 36.86447144 91.91972351 C36.89577423 99.65984333 37.51424378 107.2279004 38 115 C25.46 115 12.92 115 0 115 C0.16242188 111.18566406 0.32484375 107.37132812 0.4921875 103.44140625 C1.04412152 89.26001662 1.15314502 75.09288205 1.13037109 60.90209961 C1.12499884 56.93664743 1.13036504 52.97130822 1.13671875 49.00585938 C1.1405157 32.6421635 0.72709971 16.34820228 0 0 Z " fill="#3A3A3C" transform="translate(432,552)"/>
<path d="M0 0 C4.97949109 3.96702525 7.87358907 8.23473732 8.61328125 14.62109375 C8.44819807 20.96223013 6.69578893 25.68542807 2.23046875 30.21484375 C-2.95659652 34.72533529 -7.73621285 35.17203825 -14.41796875 34.95703125 C-19.89567425 34.33718563 -23.37627684 32.70056371 -27.20703125 28.73828125 C-31.01668378 23.79459261 -32.29023115 19.4907908 -31.8984375 13.265625 C-30.88296351 8.01771743 -28.59427663 4.40583308 -24.44921875 1.0546875 C-16.72090777 -4.08288287 -8.25264239 -4.76789323 0 0 Z " fill="#3A3A3C" transform="translate(718.38671875,493.37890625)"/>
<path d="M0 0 C5.1625651 3.90340288 9.38607011 8.40177836 10.5625 14.9375 C10.63915958 21.00455835 9.53932227 25.18740673 5.5625 29.9375 C-0.41042045 35.3131284 -4.58780342 36.34185315 -12.52734375 36.1875 C-18.77488224 35.65079871 -22.45011837 32.57148406 -26.4375 27.9375 C-29.67338229 23.02788549 -30.1887893 18.65964866 -29.4375 12.9375 C-24.65068587 -0.16325446 -12.64632323 -3.90886354 0 0 Z " fill="#3A3A3C" transform="translate(460.4375,492.0625)"/>
</svg>
