<?xml version="1.0" encoding="UTF-8"?>
<svg version="1.1" xmlns="http://www.w3.org/2000/svg" width="474" height="221">
<path d="M0 0 C0.95003906 -0.01675781 1.90007812 -0.03351562 2.87890625 -0.05078125 C5.4375 0.3125 5.4375 0.3125 7.26171875 1.58203125 C8.68599462 3.67822464 8.78266551 4.8001306 8.6875 7.3125 C8.67203125 7.993125 8.6565625 8.67375 8.640625 9.375 C8.4375 11.3125 8.4375 11.3125 7.4375 14.3125 C8.19675781 14.27769531 8.95601563 14.24289063 9.73828125 14.20703125 C11.22908203 14.16642578 11.22908203 14.16642578 12.75 14.125 C13.73613281 14.09019531 14.72226562 14.05539063 15.73828125 14.01953125 C18.4375 14.3125 18.4375 14.3125 20.3125 15.625 C21.4375 17.3125 21.4375 17.3125 21.125 20.5 C20.898125 21.428125 20.67125 22.35625 20.4375 23.3125 C19.7775 23.3125 19.1175 23.3125 18.4375 23.3125 C18.4375 23.9725 18.4375 24.6325 18.4375 25.3125 C17.7775 25.3125 17.1175 25.3125 16.4375 25.3125 C16.1075 26.6325 15.7775 27.9525 15.4375 29.3125 C17.0875 28.9825 18.7375 28.6525 20.4375 28.3125 C19.9425 29.7975 19.9425 29.7975 19.4375 31.3125 C16.1375 31.6425 12.8375 31.9725 9.4375 32.3125 C9.23833984 33.48619141 9.23833984 33.48619141 9.03515625 34.68359375 C8.85855469 35.69550781 8.68195313 36.70742187 8.5 37.75 C8.32597656 38.75933594 8.15195312 39.76867187 7.97265625 40.80859375 C7.4375 43.3125 7.4375 43.3125 6.4375 44.3125 C4.48564929 44.3125 2.53367922 44.30938186 0.58203125 44.28125 C-2.1979242 44.32175937 -4.8407576 44.76815152 -7.5625 45.3125 C-9.53344808 40.38512981 -9.7424928 36.53229128 -9.5625 31.3125 C-10.71878906 31.36470703 -10.71878906 31.36470703 -11.8984375 31.41796875 C-12.90132813 31.44503906 -13.90421875 31.47210938 -14.9375 31.5 C-16.43410156 31.55220703 -16.43410156 31.55220703 -17.9609375 31.60546875 C-18.81945312 31.50878906 -19.67796875 31.41210938 -20.5625 31.3125 C-22.95104824 27.72967765 -22.83148802 25.99856967 -22.8125 21.75 C-22.81765625 20.59371094 -22.8228125 19.43742187 -22.828125 18.24609375 C-22.5625 15.3125 -22.5625 15.3125 -20.5625 13.3125 C-16.85350027 13.34591441 -13.25294879 13.88337805 -9.5625 14.3125 C-9.5625 10.3525 -9.5625 6.3925 -9.5625 2.3125 C-5.69986436 0.38118218 -4.14651512 0.01692455 0 0 Z M-0.5625 19.3125 C-2.0475 21.7875 -2.0475 21.7875 -3.5625 24.3125 C-2.5725 25.3025 -1.5825 26.2925 -0.5625 27.3125 C0.63588209 24.98395537 0.63588209 24.98395537 1.4375 22.3125 C0.7775 21.3225 0.1175 20.3325 -0.5625 19.3125 Z M11.4375 23.3125 C11.4375 23.9725 11.4375 24.6325 11.4375 25.3125 C12.7575 24.6525 14.0775 23.9925 15.4375 23.3125 C14.1175 23.3125 12.7975 23.3125 11.4375 23.3125 Z " fill="#517486" transform="translate(321.5625,57.6875)"/>
<path d="M0 0 C0 13.86 0 27.72 0 42 C-1.65 42.66 -3.3 43.32 -5 44 C-7.91832543 39.93272755 -8.33790436 37.15084383 -8.1875 32.1875 C-8.16042969 31.02605469 -8.13335937 29.86460938 -8.10546875 28.66796875 C-8.07066406 27.78753906 -8.03585938 26.90710938 -8 26 C-11.75399798 24.7960663 -15.33217412 24.90122383 -19.25 24.9375 C-21.14492187 24.95103516 -21.14492187 24.95103516 -23.078125 24.96484375 C-24.04234375 24.97644531 -25.0065625 24.98804687 -26 25 C-25.98839844 26.21558594 -25.97679687 27.43117188 -25.96484375 28.68359375 C-25.95546722 30.26822764 -25.94636687 31.85286318 -25.9375 33.4375 C-25.92912109 34.23994141 -25.92074219 35.04238281 -25.91210938 35.86914062 C-25.9034857 37.91295221 -25.9477185 39.95683902 -26 42 C-27 43 -27 43 -29.5625 43.0625 C-30.366875 43.041875 -31.17125 43.02125 -32 43 C-34.1240614 38.7518772 -33.45061947 33.26097897 -33.61254883 28.58105469 C-33.68623451 26.53513685 -33.77728125 24.49048339 -33.86914062 22.4453125 C-34.13628313 14.99459827 -33.97022538 8.21593706 -32 1 C-30.35 0.67 -28.7 0.34 -27 0 C-25.76892802 5.69370789 -25.92929456 11.20215428 -26 17 C-19.73 17 -13.46 17 -7 17 C-7 11.39 -7 5.78 -7 0 C-2 -1 -2 -1 0 0 Z " fill="#161353" transform="translate(155,59)"/>
<path d="M0 0 C4.39587052 2.69153937 6.28336389 5.78392235 7.58984375 10.73046875 C8.36402465 15.63095406 8.3485402 19.84376475 5.73046875 24.1796875 C2.95500629 27.64363677 0.41969564 30.21848555 -4.03125 31.12890625 C-9.37007591 31.52666646 -14.18658987 31.71272499 -19.03125 29.12890625 C-18.845625 30.34578125 -18.66 31.56265625 -18.46875 32.81640625 C-18.04131818 36.15868564 -18.10866117 38.84859042 -19.03125 42.12890625 C-20.90625 42.75390625 -20.90625 42.75390625 -23.03125 43.12890625 C-26.10458306 40.05557319 -25.40976985 36.38541712 -25.48046875 32.25390625 C-25.50220657 31.3736377 -25.5239444 30.49336914 -25.54634094 29.58642578 C-25.59028924 27.72373622 -25.62948191 25.86092934 -25.66430664 23.99804688 C-25.71853484 21.14024505 -25.78871188 18.28316885 -25.86132812 15.42578125 C-25.90198651 13.61851059 -25.94173087 11.81121909 -25.98046875 10.00390625 C-26.00122971 9.14555176 -26.02199066 8.28719727 -26.04338074 7.40283203 C-26.14715491 1.36071606 -26.14715491 1.36071606 -25.03125 -0.87109375 C-21.68872276 -0.94537213 -19.2276586 -0.93656328 -16.03125 0.12890625 C-15.33 -0.20109375 -14.62875 -0.53109375 -13.90625 -0.87109375 C-9.12908251 -2.53271723 -4.63543456 -1.98788828 0 0 Z M-16.03125 7.00390625 C-18.76849798 11.28085621 -18.99977801 15.16520018 -18.03125 20.12890625 C-16.19456259 23.19895062 -15.49374762 23.97474038 -12.03125 25.12890625 C-8.11843015 25.49120438 -5.67303049 25.42931414 -2.09375 23.75390625 C0.63903167 20.27582048 0.55284451 17.8683497 0.3359375 13.54296875 C-0.12846452 10.48977248 -1.04781553 8.49377043 -3.03125 6.12890625 C-7.63057382 3.82924434 -11.86802969 4.40189356 -16.03125 7.00390625 Z " fill="#131159" transform="translate(291.03125,120.87109375)"/>
<path d="M0 0 C0.82564453 0.48146484 0.82564453 0.48146484 1.66796875 0.97265625 C2.32796875 0.31265625 2.98796875 -0.34734375 3.66796875 -1.02734375 C6.23046875 -1.21484375 6.23046875 -1.21484375 8.66796875 -1.02734375 C10.57646823 0.88115573 9.79856508 4.28744399 9.80078125 6.81640625 C9.80173798 7.50069702 9.8026947 8.18498779 9.80368042 8.89001465 C9.80436205 10.33927502 9.80250898 11.78853843 9.79833984 13.23779297 C9.79299127 15.46328553 9.79828535 17.68857626 9.8046875 19.9140625 C9.80402672 21.31901086 9.80274555 22.7239591 9.80078125 24.12890625 C9.79965332 25.41603516 9.79852539 26.70316406 9.79736328 28.02929688 C9.66796875 30.97265625 9.66796875 30.97265625 8.66796875 31.97265625 C7.14787458 32.02006659 5.62584854 32.0097953 4.10546875 31.97265625 C0.81826495 31.91670384 -2.1166907 32.0651224 -5.33203125 32.72265625 C-10.51683465 33.46033153 -14.85337033 31.43790146 -19.33203125 28.97265625 C-23.00481435 26.01651376 -23.67090084 23.23723245 -24.33203125 18.72265625 C-24.68421941 12.18956589 -23.18547631 7.27461029 -18.890625 2.3046875 C-13.72532001 -2.13871945 -6.18939002 -2.7266492 0 0 Z M-15.33203125 8.97265625 C-16.7797802 13.3159031 -16.97766154 17.43840214 -16.33203125 21.97265625 C-13.65755324 25.37653735 -12.1038851 25.87617452 -7.83203125 26.41015625 C-4.16553327 25.951844 -2.24516664 25.20034802 0.66796875 22.97265625 C2.53321463 19.24216449 2.2164489 15.03523596 1.66796875 10.97265625 C-0.12549549 7.67876713 -0.12549549 7.67876713 -3.33203125 5.97265625 C-7.97174061 5.03552683 -11.99788749 5.37178099 -15.33203125 8.97265625 Z " fill="#1A185E" transform="translate(216.33203125,70.02734375)"/>
<path d="M0 0 C3.68329945 3.42020664 6.21741687 6.60479728 6.9375 11.609375 C7.0809858 16.81073523 6.3678302 21.54097706 4.625 26.4375 C0.50422882 30.55827118 -2.97606974 31.59270448 -8.6875 31.6875 C-13.34186447 31.6322371 -16.48239639 31.19080499 -20.375 28.4375 C-24.57251945 24.12653408 -25.13994093 20.92912617 -25.6875 15.125 C-25.30898722 10.65854925 -24.02861732 7.07623947 -21.375 3.4375 C-20.385 3.1075 -19.395 2.7775 -18.375 2.4375 C-18.375 1.7775 -18.375 1.1175 -18.375 0.4375 C-12.53963138 -2.6746966 -5.92375635 -2.74247979 0 0 Z M-15.375 7.4375 C-15.375 8.7575 -15.375 10.0775 -15.375 11.4375 C-10.425 11.4375 -5.475 11.4375 -0.375 11.4375 C-2.14351036 8.25675835 -2.14351036 8.25675835 -4.375 5.4375 C-10.25146031 4.97418563 -10.25146031 4.97418563 -15.375 7.4375 Z M-17.375 18.4375 C-17.375 19.4275 -17.375 20.4175 -17.375 21.4375 C-16.715 22.0975 -16.055 22.7575 -15.375 23.4375 C-14.385 23.4375 -13.395 23.4375 -12.375 23.4375 C-12.375 24.0975 -12.375 24.7575 -12.375 25.4375 C-5.93514376 26.10831836 -2.53716577 24.19180238 2.625 20.4375 C2.295 19.7775 1.965 19.1175 1.625 18.4375 C-4.645 18.4375 -10.915 18.4375 -17.375 18.4375 Z " fill="#0D0853" transform="translate(182.375,70.5625)"/>
<path d="M0 0 C1.95292969 -0.02126953 1.95292969 -0.02126953 3.9453125 -0.04296875 C9.36545075 0.27491212 13.45462077 1.01963263 17.6875 4.5 C21.19109933 8.80442204 22.08739756 11.67333259 21.875 17.1875 C21.42569274 20.73967037 20.90148443 22.79406491 18.1875 25.1875 C11.64008335 29.14065722 6.35387973 29.45354711 -1.125 29.1875 C-1.11339844 30.10273438 -1.10179687 31.01796875 -1.08984375 31.9609375 C-1.08082031 33.14945313 -1.07179687 34.33796875 -1.0625 35.5625 C-1.05089844 36.74585938 -1.03929687 37.92921875 -1.02734375 39.1484375 C-1.125 42.1875 -1.125 42.1875 -2.125 44.1875 C-4.105 44.1875 -6.085 44.1875 -8.125 44.1875 C-8.99376706 36.2518373 -9.27887788 28.41742002 -9.25 20.4375 C-9.25386719 19.35339844 -9.25773438 18.26929687 -9.26171875 17.15234375 C-9.24083092 0.04520954 -9.24083092 0.04520954 0 0 Z M-1.125 8.1875 C-1.125 12.8075 -1.125 17.4275 -1.125 22.1875 C5.54603967 22.50048533 5.54603967 22.50048533 12 21.1875 C14.2578267 19.15400871 14.2578267 19.15400871 14.5 15.25 C14.28084416 12.03373991 13.95652192 11.28631444 11.8125 8.6875 C7.30596296 6.3862896 3.61131767 6.60872744 -1.125 8.1875 Z " fill="#0C0961" transform="translate(173.125,108.8125)"/>
<path d="M0 0 C4.31106972 3.35305423 6.28194963 6.84584889 8 12 C8.1875 15.4375 8.1875 15.4375 8 18 C4.32565766 20.40245461 2.20594494 19.70754214 -2 19 C-4.63589958 18.93343688 -7.24148596 18.90432589 -9.875 18.9375 C-10.56335938 18.94201172 -11.25171875 18.94652344 -11.9609375 18.95117188 C-13.64066335 18.96283664 -15.32034375 18.98076729 -17 19 C-16.21869929 21.49552484 -16.21869929 21.49552484 -15 24 C-10.97093862 25.34302046 -7.21352548 25.59096805 -3 25 C-0.74934898 23.08333079 -0.74934898 23.08333079 1 21 C3.75 20.75 3.75 20.75 6 21 C6.33 21.66 6.66 22.32 7 23 C4.26938433 27.72606558 2.23562735 30.25479088 -3 32 C-9.3488436 32.95871799 -14.12699852 32.27594956 -19.37109375 28.47265625 C-22.58180697 25.56992511 -23.78497343 22.88301839 -24.2734375 18.60546875 C-24.47867376 13.3403692 -24.09233068 9.43234064 -21 5 C-14.76488843 -1.23511157 -8.20388028 -3.62697865 0 0 Z M-17 12 C-11.39 12.33 -5.78 12.66 0 13 C-0.33 11.35 -0.66 9.7 -1 8 C-4.14456551 5.90362299 -6.16094676 5.63443555 -9.8671875 5.34375 C-13.00605113 6.09710081 -13.00605113 6.09710081 -17 12 Z " fill="#150F5E" transform="translate(219,120)"/>
<path d="M0 0 C0.33 3.96 0.66 7.92 1 12 C2.32 11.34 3.64 10.68 5 10 C8.99539131 9.23193956 12.53605023 9.13901285 16.10546875 11.23828125 C19.08667248 13.71544641 20.75540985 15.26622955 22 19 C22.08239169 20.84610532 22.10743359 22.69505164 22.09765625 24.54296875 C22.09443359 25.61611328 22.09121094 26.68925781 22.08789062 27.79492188 C22.07951172 28.91447266 22.07113281 30.03402344 22.0625 31.1875 C22.05798828 32.31865234 22.05347656 33.44980469 22.04882812 34.61523438 C22.03703498 37.41020927 22.0205765 40.2050782 22 43 C19.625 43.625 19.625 43.625 17 44 C13.95610454 40.95610454 14.61007581 37.34223006 14.5 33.25 C14.35171901 27.84210522 14.19855759 23.04795172 12 18 C10.21328929 16.82387805 10.21328929 16.82387805 8 17 C4.71916905 18.01145288 4.71916905 18.01145288 2 20 C1.77246643 21.7037908 1.60526762 23.41573499 1.46484375 25.12890625 C1.33432617 26.68061523 1.33432617 26.68061523 1.20117188 28.26367188 C1.11416016 29.35228516 1.02714844 30.44089844 0.9375 31.5625 C0.84662109 32.65498047 0.75574219 33.74746094 0.66210938 34.87304688 C0.43737189 37.58172492 0.21685911 40.29068166 0 43 C-2.475 43.495 -2.475 43.495 -5 44 C-7.60876023 40.08685966 -7.26967935 36.78251575 -7.23046875 32.24609375 C-7.23001053 31.38943619 -7.22955231 30.53277863 -7.2290802 29.65016174 C-7.22606053 27.84040948 -7.21818273 26.03065976 -7.20581055 24.22094727 C-7.18754757 21.44473101 -7.18530095 18.66884819 -7.18554688 15.89257812 C-7.1806318 14.13541377 -7.17480353 12.37825169 -7.16796875 10.62109375 C-7.16685593 9.78775009 -7.1657431 8.95440643 -7.16459656 8.09580994 C-7.11607452 2.23214903 -7.11607452 2.23214903 -6 0 C-3 -1 -3 -1 0 0 Z " fill="#0E0D56" transform="translate(270,59)"/>
<path d="M0 0 C4.64520297 3.54809473 6.65563862 8.16133562 7.5546875 13.8125 C7.1171875 16.0625 7.1171875 16.0625 5.3671875 17.9375 C2.61207008 19.31505871 1.989929 18.85006882 -0.8828125 18.0625 C-3.64251658 17.99323032 -6.37477292 17.9683264 -9.1328125 18 C-9.87789063 18.00451172 -10.62296875 18.00902344 -11.390625 18.01367188 C-13.2213889 18.02540754 -15.05211123 18.0433415 -16.8828125 18.0625 C-16.5528125 19.7125 -16.2228125 21.3625 -15.8828125 23.0625 C-11.85375112 24.40552046 -8.09633798 24.65346805 -3.8828125 24.0625 C-1.63216148 22.14583079 -1.63216148 22.14583079 0.1171875 20.0625 C2.8671875 19.8125 2.8671875 19.8125 5.1171875 20.0625 C5.4471875 20.7225 5.7771875 21.3825 6.1171875 22.0625 C4.07204077 26.26043277 1.76056272 29.02403116 -2.6328125 30.75 C-9.85997942 31.75377318 -14.7880432 31.16312819 -20.8828125 27.0625 C-24.42960985 23.40128983 -24.78101575 20.284061 -25.1953125 15.3125 C-25.11587132 10.58133658 -23.65235425 6.88226554 -20.8828125 3.0625 C-14.6039797 -1.93493835 -7.50065027 -3.73476362 0 0 Z M-17.8828125 10.0625 C-14.20193897 12.51641569 -11.43925662 12.29052759 -7.1953125 12.1875 C-6.49341797 12.17847656 -5.79152344 12.16945312 -5.06835938 12.16015625 C-3.33969725 12.13663704 -1.61121105 12.10076713 0.1171875 12.0625 C-1.13258006 8.40933329 -1.55380003 7.28184164 -4.8828125 5.0625 C-11.2898807 4.33912133 -13.67041287 4.79700047 -17.8828125 10.0625 Z " fill="#0D0C54" transform="translate(335.8828125,120.9375)"/>
<path d="M0 0 C4.15051612 4.26269223 5.83632503 7.97043034 6.3125 13.875 C6.17639637 18.11823082 5.14062276 21.28958721 3 25 C-2.09035502 29.02986439 -6.22346412 30.3512997 -12.58203125 30.2890625 C-17.74761898 29.67152859 -22.72058824 27.07099391 -26 23 C-28.00912489 17.1885593 -28.80987412 11.4695942 -26.18359375 5.78515625 C-19.38658208 -4.46644222 -10.5279842 -5.45895477 0 0 Z M-18 6 C-20.62041406 9.93062109 -20.8482202 12.29482632 -21 17 C-20.67 17.99 -20.34 18.98 -20 20 C-19.34 20 -18.68 20 -18 20 C-17.67 20.99 -17.34 21.98 -17 23 C-13.50797535 24.74601232 -9.81017721 24.55838804 -6 24 C-2.75 22.25 -2.75 22.25 -1 19 C-0.20564277 14.25075784 -0.40108679 10.13900992 -3 6 C-7.97081438 2.68612375 -13.01816407 2.67877605 -18 6 Z " fill="#120E55" transform="translate(257,122)"/>
<path d="M0 0 C1.4540625 0.0309375 1.4540625 0.0309375 2.9375 0.0625 C2.9375 3.6925 2.9375 7.3225 2.9375 11.0625 C4.8865625 10.7840625 4.8865625 10.7840625 6.875 10.5 C9.08984375 10.18359375 9.08984375 10.18359375 10.9375 10.0625 C11.9375 11.0625 11.9375 11.0625 12 14.125 C11.979375 15.094375 11.95875 16.06375 11.9375 17.0625 C6.3125 18.1875 6.3125 18.1875 2.9375 17.0625 C2.9375 23.0025 2.9375 28.9425 2.9375 35.0625 C5.5775 35.3925 8.2175 35.7225 10.9375 36.0625 C11.9375 37.0625 11.9375 37.0625 12.0625 39.5625 C11.9375 42.0625 11.9375 42.0625 10.9375 43.0625 C5.72922983 43.47099178 2.34046959 42.92954996 -2.0625 40.0625 C-3.90958697 37.14555404 -4.30404824 34.93706991 -4.2578125 31.515625 C-4.25136719 30.67128906 -4.24492187 29.82695313 -4.23828125 28.95703125 C-4.22152344 28.08433594 -4.20476562 27.21164063 -4.1875 26.3125 C-4.17847656 25.42433594 -4.16945312 24.53617188 -4.16015625 23.62109375 C-4.13664577 21.43461942 -4.10378499 19.24869906 -4.0625 17.0625 C-5.7125 16.7325 -7.3625 16.4025 -9.0625 16.0625 C-9.0625 14.4125 -9.0625 12.7625 -9.0625 11.0625 C-7.7425 10.7325 -6.4225 10.4025 -5.0625 10.0625 C-5.00191406 9.42441406 -4.94132813 8.78632812 -4.87890625 8.12890625 C-4.79511719 7.30261719 -4.71132812 6.47632812 -4.625 5.625 C-4.54378906 4.80128906 -4.46257812 3.97757813 -4.37890625 3.12890625 C-3.8690239 -0.20106615 -3.4903173 0.07123097 0 0 Z " fill="#141063" transform="translate(248.0625,58.9375)"/>
<path d="M0 0 C1.98 0 3.96 0 6 0 C6 0.99 6 1.98 6 3 C4.02 3.99 4.02 3.99 2 5 C1.79029441 9.14093698 1.79029441 9.14093698 3 13 C3.99 11.68 4.98 10.36 6 9 C6 12.96 6 16.92 6 21 C6.99 21.33 7.98 21.66 9 22 C9.33 22.66 9.66 23.32 10 24 C13.53933534 26.45030908 16.80134896 26.36830272 21 26 C23.87146994 24.63002843 23.87146994 24.63002843 26 23 C26.33 24.98 26.66 26.96 27 29 C21.69325152 32.35163062 17.08890617 32.61800878 11 32 C7.875 31 7.875 31 6 30 C6.185625 31.216875 6.37125 32.43375 6.5625 33.6875 C6.98993182 37.02977939 6.92258883 39.71968417 6 43 C4.125 43.625 4.125 43.625 2 44 C-1.07333306 40.92666694 -0.37851985 37.25651087 -0.44921875 33.125 C-0.47095657 32.24473145 -0.4926944 31.36446289 -0.51509094 30.45751953 C-0.55903924 28.59482997 -0.59823191 26.73202309 -0.63305664 24.86914062 C-0.68728484 22.0113388 -0.75746188 19.1542626 -0.83007812 16.296875 C-0.87073651 14.48960434 -0.91048087 12.68231284 -0.94921875 10.875 C-0.96997971 10.01664551 -0.99074066 9.15829102 -1.01213074 8.27392578 C-1.11590491 2.23180981 -1.11590491 2.23180981 0 0 Z " fill="#1F1D4F" transform="translate(266,120)"/>
<path d="M0 0 C0.82564453 0.48146484 0.82564453 0.48146484 1.66796875 0.97265625 C2.32796875 0.31265625 2.98796875 -0.34734375 3.66796875 -1.02734375 C6.23046875 -1.21484375 6.23046875 -1.21484375 8.66796875 -1.02734375 C10.57646823 0.88115573 9.79856508 4.28744399 9.80078125 6.81640625 C9.80221634 7.84284241 9.80221634 7.84284241 9.80368042 8.89001465 C9.80436205 10.33927502 9.80250898 11.78853843 9.79833984 13.23779297 C9.79299127 15.46328553 9.79828535 17.68857626 9.8046875 19.9140625 C9.80402672 21.31901086 9.80274555 22.7239591 9.80078125 24.12890625 C9.79965332 25.41603516 9.79852539 26.70316406 9.79736328 28.02929688 C9.66796875 30.97265625 9.66796875 30.97265625 8.66796875 31.97265625 C7.0017976 32.01329457 5.3340878 32.01537725 3.66796875 31.97265625 C3.66796875 30.98265625 3.66796875 29.99265625 3.66796875 28.97265625 C4.65796875 28.31265625 5.64796875 27.65265625 6.66796875 26.97265625 C6.00796875 24.66265625 5.34796875 22.35265625 4.66796875 19.97265625 C4.33796875 19.97265625 4.00796875 19.97265625 3.66796875 19.97265625 C3.68859375 18.73515625 3.70921875 17.49765625 3.73046875 16.22265625 C3.80463086 11.98558002 3.80463086 11.98558002 2.66796875 7.97265625 C-0.65137873 5.84326353 -3.69646859 5.60106251 -7.58203125 5.34765625 C-8.6596875 5.27289063 -9.73734375 5.198125 -10.84765625 5.12109375 C-11.6675 5.07210937 -12.48734375 5.023125 -13.33203125 4.97265625 C-13.33203125 5.63265625 -13.33203125 6.29265625 -13.33203125 6.97265625 C-13.99203125 6.97265625 -14.65203125 6.97265625 -15.33203125 6.97265625 C-15.57953125 7.77703125 -15.82703125 8.58140625 -16.08203125 9.41015625 C-16.49453125 10.25578125 -16.90703125 11.10140625 -17.33203125 11.97265625 C-19.41015625 12.6328125 -19.41015625 12.6328125 -21.33203125 12.97265625 C-21.39082533 9.11744412 -21.41907049 5.47462214 -19.09375 2.26171875 C-13.82705496 -2.08738981 -6.22116628 -2.74064779 0 0 Z " fill="#111065" transform="translate(216.33203125,70.02734375)"/>
<path d="M0 0 C5.01475279 0.65240473 8.92964322 1.17493332 13 4.3125 C16.85838359 9.49720295 17.4736934 13.25503573 16.66796875 19.625 C15.51919312 23.70953559 13.60564683 24.82300569 10 27 C4.7250057 29.51761092 -0.26677029 29.15495215 -6 29 C-6 33.29 -6 37.58 -6 42 C-6.33 42 -6.66 42 -7 42 C-7.05397335 39.5622037 -7.09365616 37.12560315 -7.125 34.6875 C-7.14175781 33.99720703 -7.15851563 33.30691406 -7.17578125 32.59570312 C-7.21217794 28.82864604 -7.14378864 27.21568296 -5 24 C-3.68 24 -2.36 24 -1 24 C-2.98 23.67 -4.96 23.34 -7 23 C-7 17.39 -7 11.78 -7 6 C-6.34 6 -5.68 6 -5 6 C-5.33 11.28 -5.66 16.56 -6 22 C-3.875625 21.690625 -1.75125 21.38125 0.4375 21.0625 C1.63246094 20.88847656 2.82742187 20.71445313 4.05859375 20.53515625 C6.87955676 20.31014787 6.87955676 20.31014787 8 19 C8.65264094 13.62670167 8.65264094 13.62670167 6.4375 9.0625 C3.3180705 7.70274868 0.37335275 7.32436084 -3 7 C-3 6.67 -3 6.34 -3 6 C-1.35 5.67 0.3 5.34 2 5 C1.01 4.67 0.02 4.34 -1 4 C-0.34 3.67 0.32 3.34 1 3 C0.67 2.01 0.34 1.02 0 0 Z " fill="#1C1853" transform="translate(178,109)"/>
<path d="M0 0 C0.02689449 2.95839355 0.04678741 5.91654427 0.0625 8.875 C0.07087891 9.71675781 0.07925781 10.55851562 0.08789062 11.42578125 C0.09272461 12.63427734 0.09272461 12.63427734 0.09765625 13.8671875 C0.10551147 14.98262939 0.10551147 14.98262939 0.11352539 16.12060547 C0 18 0 18 -1 20 C-3.65918166 20.88639389 -5.48064641 21.17989025 -8.23046875 21.31640625 C-9.03291016 21.35830078 -9.83535156 21.40019531 -10.66210938 21.44335938 C-11.49548828 21.48267578 -12.32886719 21.52199219 -13.1875 21.5625 C-14.03248047 21.60568359 -14.87746094 21.64886719 -15.74804688 21.69335938 C-17.83184433 21.79931518 -19.91590103 21.9001502 -22 22 C-23.38125018 19.23749964 -23.19079306 17.05268901 -23 14 C-22.34 13.34 -21.68 12.68 -21 12 C-17.29100027 12.03341441 -13.69044879 12.57087805 -10 13 C-10 9.04 -10 5.08 -10 1 C-5.64467851 -1.17766075 -4.53374042 -1.03039555 0 0 Z " fill="#B48A60" transform="translate(322,59)"/>
<path d="M0 0 C2.97 0.495 2.97 0.495 6 1 C6.02467203 6.94482112 6.04284663 12.8896126 6.05493164 18.83447266 C6.05996831 20.85791543 6.06679789 22.88135456 6.07543945 24.90478516 C6.08753412 27.80892843 6.09323488 30.71302369 6.09765625 33.6171875 C6.10281754 34.52556366 6.10797882 35.43393982 6.11329651 36.36984253 C6.11337204 37.21056305 6.11344757 38.05128357 6.11352539 38.91748047 C6.115746 39.65916473 6.11796661 40.400849 6.12025452 41.16500854 C6 43 6 43 5 45 C0.125 44.125 0.125 44.125 -1 43 C-1.18520467 40.07983164 -1.30860779 37.18147255 -1.38671875 34.2578125 C-1.41224319 33.37850067 -1.43776764 32.49918884 -1.46406555 31.5932312 C-1.51617357 29.72872925 -1.56558827 27.86415042 -1.61254883 25.99951172 C-1.6870106 23.14376919 -1.77768019 20.28883583 -1.86914062 17.43359375 C-1.91766541 15.62502652 -1.96522329 13.81643304 -2.01171875 12.0078125 C-2.04077805 11.15148224 -2.06983734 10.29515198 -2.09977722 9.41287231 C-2.22875823 3.34313734 -2.22875823 3.34313734 0 0 Z " fill="#1D1B55" transform="translate(231,58)"/>
<path d="M0 0 C1.33098597 5.98943689 1.06781273 11.89685458 1 18 C6.94 18 12.88 18 19 18 C19 18.33 19 18.66 19 19 C14.05 19 9.1 19 4 19 C4 19.99 4 20.98 4 22 C3.34 22 2.68 22 2 22 C2 21.01 2 20.02 2 19 C1.01 19 0.02 19 -1 19 C-0.67475342 19.5669458 -0.34950684 20.1338916 -0.0144043 20.71801758 C1.08981363 23.20204284 1.24490365 24.8112597 1.23046875 27.51171875 C1.22853516 28.35154297 1.22660156 29.19136719 1.22460938 30.05664062 C1.21236328 30.92482422 1.20011719 31.79300781 1.1875 32.6875 C1.18685547 33.56728516 1.18621094 34.44707031 1.18554688 35.35351562 C1.14040057 41.85959943 1.14040057 41.85959943 0 43 C-1.66617115 43.04063832 -3.33388095 43.042721 -5 43 C-7.1240614 38.7518772 -6.45061947 33.26097897 -6.61254883 28.58105469 C-6.68623451 26.53513685 -6.77728125 24.49048339 -6.86914062 22.4453125 C-7.40497016 7.5008067 -7.40497016 7.5008067 -5 1 C-3 0 -3 0 0 0 Z " fill="#04034F" transform="translate(128,59)"/>
<path d="M0 0 C1.98 0 3.96 0 6 0 C6.04934154 6.08722746 6.08569167 12.1743392 6.10986328 18.26171875 C6.11993712 20.33367947 6.13359666 22.40562593 6.15087891 24.47753906 C6.17506664 27.45120764 6.18646908 30.4246887 6.1953125 33.3984375 C6.20563507 34.32868744 6.21595764 35.25893738 6.22659302 36.21737671 C6.22674408 37.07811798 6.22689514 37.93885925 6.22705078 38.82568359 C6.231492 39.58513275 6.23593323 40.34458191 6.24050903 41.12704468 C6 43 6 43 4 45 C3.01 45 2.02 45 1 45 C-0.47342651 42.05314698 -0.37921328 38.98919677 -0.5625 35.75 C-0.6042334 35.03416748 -0.6459668 34.31833496 -0.68896484 33.58081055 C-1.29862014 22.31960635 -1.04463847 11.22986352 0 0 Z " fill="#0B0C62" transform="translate(302,109)"/>
<path d="M0 0 C0 0.99 0 1.98 0 3 C0.144375 3.680625 0.28875 4.36125 0.4375 5.0625 C2.66153846 16.67692308 2.66153846 16.67692308 1 20 C-5.15234375 19.4140625 -5.15234375 19.4140625 -7 19 C-8.60725635 15.78548731 -8.05748185 12.56387464 -8 9 C-8.77085937 9.03480469 -9.54171875 9.06960937 -10.3359375 9.10546875 C-11.33882813 9.13253906 -12.34171875 9.15960938 -13.375 9.1875 C-14.87160156 9.23970703 -14.87160156 9.23970703 -16.3984375 9.29296875 C-17.25695312 9.19628906 -18.11546875 9.09960938 -19 9 C-21 6 -21 6 -20.75 3.375 C-20.5025 2.59125 -20.255 1.8075 -20 1 C-16.85826804 -0.57086598 -13.45554744 -0.41960033 -10 -0.625 C-8.89398438 -0.70234375 -8.89398438 -0.70234375 -7.765625 -0.78125 C-2.24726055 -1.12363028 -2.24726055 -1.12363028 0 0 Z " fill="#785CBF" transform="translate(320,80)"/>
<path d="M0 0 C2.52371431 1.48453783 3.59613661 2.75531072 5.125 5.25 C5.41796875 7.828125 5.41796875 7.828125 5.3125 10.5 C5.28542969 11.39203125 5.25835937 12.2840625 5.23046875 13.203125 C5.19566406 13.87859375 5.16085938 14.5540625 5.125 15.25 C2.485 15.25 -0.155 15.25 -2.875 15.25 C-2.359375 14.6725 -1.84375 14.095 -1.3125 13.5 C0.33733121 11.40397682 0.33733121 11.40397682 0 9.1875 C-1.08430682 6.78653489 -1.66757464 5.74535266 -3.875 4.25 C-8.18176344 3.27750503 -10.59061199 2.7362448 -14.6875 4.375 C-17.09939401 6.44233772 -18.4300679 8.43618487 -19.875 11.25 C-18.885 11.25 -17.895 11.25 -16.875 11.25 C-16.545 10.59 -16.215 9.93 -15.875 9.25 C-15.875 9.91 -15.875 10.57 -15.875 11.25 C-13.895 11.25 -11.915 11.25 -9.875 11.25 C-9.875 11.58 -9.875 11.91 -9.875 12.25 C-11.855 12.25 -13.835 12.25 -15.875 12.25 C-15.875 12.91 -15.875 13.57 -15.875 14.25 C-11.915 14.25 -7.955 14.25 -3.875 14.25 C-3.875 14.58 -3.875 14.91 -3.875 15.25 C-6.18743792 15.27685412 -8.4999627 15.29632841 -10.8125 15.3125 C-12.10027344 15.32410156 -13.38804687 15.33570312 -14.71484375 15.34765625 C-17.875 15.25 -17.875 15.25 -18.875 14.25 C-18.52450425 17.49208567 -18.31278819 18.86527704 -15.8125 21.0625 C-15.173125 21.454375 -14.53375 21.84625 -13.875 22.25 C-14.205 22.91 -14.535 23.57 -14.875 24.25 C-21.625 23.5 -21.625 23.5 -23.875 21.25 C-24.63206665 15.40863313 -25.14047517 10.00760441 -21.625 5.125 C-20.7175 4.50625 -19.81 3.8875 -18.875 3.25 C-18.17375 2.6725 -17.4725 2.095 -16.75 1.5 C-11.81708419 -1.78861054 -5.55236159 -1.44844215 0 0 Z " fill="#130F65" transform="translate(182.875,71.75)"/>
<path d="M0 0 C3.0625 2.25 3.0625 2.25 5 5 C4.80952381 9.19047619 4.80952381 9.19047619 3 11 C5.97 11.495 5.97 11.495 9 12 C9 9.69 9 7.38 9 5 C9.33 5 9.66 5 10 5 C10.25129938 11.03118511 10.03665563 16.27796751 8 22 C5.375 24.5 5.375 24.5 3 26 C3 23 3 23 5 20.8125 C5.99 19.9153125 5.99 19.9153125 7 19 C6.34 18.67 5.68 18.34 5 18 C2.39068734 18.89363605 2.39068734 18.89363605 0 20 C1.65 18.35 3.3 16.7 5 15 C-1.93 15 -8.86 15 -16 15 C-15.67 13.02 -15.34 11.04 -15 9 C-14.34 9.33 -13.68 9.66 -13 10 C-13.33 10.66 -13.66 11.32 -14 12 C-13.34 11.67 -12.68 11.34 -12 11 C-12 9.68 -12 8.36 -12 7 C-7.38 6.67 -2.76 6.34 2 6 C-0.3872336 1.90674127 -0.3872336 1.90674127 -2.97265625 1.57421875 C-7.11942366 1.70858745 -7.11942366 1.70858745 -11 3 C-11.72159424 4.64363134 -12.39351421 6.31050386 -13 8 C-13.99 8 -14.98 8 -16 8 C-14.82191948 4.6470016 -13.80593388 2.2447471 -11 0 C-7.13989962 -1.28670013 -3.86443706 -1.09554915 0 0 Z " fill="#13135E" transform="translate(179,75)"/>
<path d="M0 0 C0.66 0 1.32 0 2 0 C1.814375 1.155 1.62875 2.31 1.4375 3.5 C0.8764276 7.86389648 1.30367814 11.66733065 2 16 C4.90876913 17.390117 4.90876913 17.390117 8 18 C7.67 17.34 7.34 16.68 7 16 C8.22976562 16.06960937 8.22976562 16.06960937 9.484375 16.140625 C10.56203125 16.17671875 11.6396875 16.2128125 12.75 16.25 C13.81734375 16.29640625 14.8846875 16.3428125 15.984375 16.390625 C19.67882362 15.91206948 20.5816901 14.71529533 23 12 C25.75 11.75 25.75 11.75 28 12 C28.33 12.66 28.66 13.32 29 14 C26.26938433 18.72606558 24.23562735 21.25479088 19 23 C12.71236595 23.94947494 7.83550025 23.32088152 2.63671875 19.53515625 C-0.21951023 16.85616344 -1.13692623 14.82218384 -2 11 C-1.64042488 7.24725117 -0.91830292 3.65339218 0 0 Z " fill="#0D0953" transform="translate(197,129)"/>
<path d="M0 0 C5.4589557 2.9776122 7.91778534 6.12768673 10 12 C10.5 14.8125 10.5 14.8125 10 17 C8 18.8125 8 18.8125 6 20 C5.01 19.34 4.02 18.68 3 18 C3 17.67 3 17.34 3 17 C-2.28 16.67 -7.56 16.34 -13 16 C-12.67 15.34 -12.34 14.68 -12 14 C-7.38 14 -2.76 14 2 14 C1.67 12.35 1.34 10.7 1 9 C-2.03525486 6.97649676 -3.19426202 6.67875982 -6.6875 6.375 C-7.89986328 6.26285156 -7.89986328 6.26285156 -9.13671875 6.1484375 C-9.75160156 6.09945312 -10.36648438 6.05046875 -11 6 C-8.41423292 3.41423292 -6.56072267 3.50867467 -3 3 C-2.01 2.67 -1.02 2.34 0 2 C0 1.34 0 0.68 0 0 Z " fill="#141157" transform="translate(333,120)"/>
<path d="M0 0 C0.33 0 0.66 0 1 0 C1 2.31 1 4.62 1 7 C1.66 7 2.32 7 3 7 C3 7.99 3 8.98 3 10 C3.66 10 4.32 10 5 10 C5.40347656 10.47824219 5.80695313 10.95648438 6.22265625 11.44921875 C8.81761677 13.7133931 11.04571455 13.58535432 14.4375 13.8125 C16.13712891 13.94591797 16.13712891 13.94591797 17.87109375 14.08203125 C20.93278278 14.00176225 22.45368408 13.62038286 25 12 C25.33 12.99 25.66 13.98 26 15 C19.66420224 19.36466068 15.54412782 20.47983852 8 20 C3.29634071 19.03788787 1.52349811 16.44028034 -1.08203125 12.65625 C-2 11 -2 11 -2 9 C-1.67 8.67 -1.34 8.34 -1 8 C-0.76924918 6.65252916 -0.58846937 5.29622435 -0.4375 3.9375 C-0.293125 2.638125 -0.14875 1.33875 0 0 Z " fill="#0E0E4F" transform="translate(234,132)"/>
<path d="M0 0 C1.4540625 0.0309375 1.4540625 0.0309375 2.9375 0.0625 C2.9375 3.6925 2.9375 7.3225 2.9375 11.0625 C4.8865625 10.7840625 4.8865625 10.7840625 6.875 10.5 C9.08984375 10.18359375 9.08984375 10.18359375 10.9375 10.0625 C11.9375 11.0625 11.9375 11.0625 12 14.125 C11.979375 15.094375 11.95875 16.06375 11.9375 17.0625 C9.9575 17.3925 7.9775 17.7225 5.9375 18.0625 C5.9375 16.7425 5.9375 15.4225 5.9375 14.0625 C1.54496227 12.49977811 1.54496227 12.49977811 -3.0625 12.0625 C-3.3925 13.3825 -3.7225 14.7025 -4.0625 16.0625 C-5.7125 16.0625 -7.3625 16.0625 -9.0625 16.0625 C-9.0625 14.4125 -9.0625 12.7625 -9.0625 11.0625 C-7.7425 10.7325 -6.4225 10.4025 -5.0625 10.0625 C-5.00191406 9.42441406 -4.94132813 8.78632812 -4.87890625 8.12890625 C-4.79511719 7.30261719 -4.71132812 6.47632812 -4.625 5.625 C-4.54378906 4.80128906 -4.46257812 3.97757813 -4.37890625 3.12890625 C-3.8690239 -0.20106615 -3.4903173 0.07123097 0 0 Z " fill="#181459" transform="translate(248.0625,58.9375)"/>
<path d="M0 0 C1.12862175 5.36095333 1.09688221 10.55306686 1 16 C0.34 15.67 -0.32 15.34 -1 15 C-1.02893932 18.62498334 -1.04677792 22.24993713 -1.0625 25.875 C-1.07087891 26.90753906 -1.07925781 27.94007812 -1.08789062 29.00390625 C-1.09111328 29.99003906 -1.09433594 30.97617188 -1.09765625 31.9921875 C-1.10551147 33.35899658 -1.10551147 33.35899658 -1.11352539 34.75341797 C-1.14885565 37.03687509 -1.14885565 37.03687509 0 39 C-1.32 38.67 -2.64 38.34 -4 38 C-3.99476318 37.09644775 -3.98952637 36.19289551 -3.98413086 35.26196289 C-3.96712314 31.92048511 -3.95456667 28.57905308 -3.94506836 25.23754883 C-3.94002899 23.78929927 -3.93319747 22.34105483 -3.92456055 20.89282227 C-3.91247753 18.81525412 -3.90676789 16.73775303 -3.90234375 14.66015625 C-3.89710693 13.40855713 -3.89187012 12.15695801 -3.88647461 10.86743164 C-3.67112965 8.10267706 -3.67112965 8.10267706 -5 7 C-5 16.9 -5 26.8 -5 37 C-5.33 37 -5.66 37 -6 37 C-6.22866648 32.87586894 -6.42916866 28.75081025 -6.625 24.625 C-6.68945312 23.46871094 -6.75390625 22.31242187 -6.8203125 21.12109375 C-7.12804461 14.31252087 -7.32927945 7.51247519 -5 1 C-3 0 -3 0 0 0 Z " fill="#110F40" transform="translate(128,59)"/>
<path d="M0 0 C0.99 0 1.98 0 3 0 C3 3.63 3 7.26 3 11 C3.90363281 10.96519531 4.80726563 10.93039063 5.73828125 10.89453125 C6.91777344 10.86746094 8.09726562 10.84039062 9.3125 10.8125 C11.07013672 10.76029297 11.07013672 10.76029297 12.86328125 10.70703125 C16 11 16 11 17.91796875 12.51171875 C18.45357422 13.24841797 18.45357422 13.24841797 19 14 C18.67 14.66 18.34 15.32 18 16 C17.34 15.67 16.68 15.34 16 15 C16 15.66 16 16.32 16 17 C14.2709226 17.02725341 12.54171824 17.04650987 10.8125 17.0625 C9.36810547 17.07990234 9.36810547 17.07990234 7.89453125 17.09765625 C5.11675356 17.00393905 2.67450835 16.75532296 0 16 C-1.29758261 13.40483479 -1.13269102 11.45816973 -1.125 8.5625 C-1.12757813 7.59441406 -1.13015625 6.62632813 -1.1328125 5.62890625 C-1 3 -1 3 0 0 Z " fill="#5189CC" transform="translate(324,61)"/>
<path d="M0 0 C0.33 0.66 0.66 1.32 1 2 C1.66 1.34 2.32 0.68 3 0 C3 1.32 3 2.64 3 4 C-5.04924606 6.25943749 -12.70316995 6.19676277 -21 6 C-21.33 7.32 -21.66 8.64 -22 10 C-22.91078492 7.44980222 -23.17843392 6.40445022 -22.0625 3.875 C-21.711875 3.25625 -21.36125 2.6375 -21 2 C-21 1.34 -21 0.68 -21 0 C-6.33259424 -1.86252772 -6.33259424 -1.86252772 0 0 Z " fill="#0D0B53" transform="translate(223,133)"/>
<path d="M0 0 C1.65322266 0.01740234 1.65322266 0.01740234 3.33984375 0.03515625 C4.99693359 0.04869141 4.99693359 0.04869141 6.6875 0.0625 C7.54214844 0.07410156 8.39679688 0.08570312 9.27734375 0.09765625 C9.27734375 0.75765625 9.27734375 1.41765625 9.27734375 2.09765625 C11.58734375 2.09765625 13.89734375 2.09765625 16.27734375 2.09765625 C16.27734375 2.42765625 16.27734375 2.75765625 16.27734375 3.09765625 C8.35734375 3.59265625 8.35734375 3.59265625 0.27734375 4.09765625 C-0.4773328 7.87103901 -0.89708111 11.04300597 -1.0390625 14.8359375 C-1.08095703 15.90263672 -1.12285156 16.96933594 -1.16601562 18.06835938 C-1.22499023 19.72254883 -1.22499023 19.72254883 -1.28515625 21.41015625 C-1.32833984 22.53228516 -1.37152344 23.65441406 -1.41601562 24.81054688 C-1.52180412 27.57280194 -1.62389297 30.33514255 -1.72265625 33.09765625 C-2.71265625 33.09765625 -3.70265625 33.09765625 -4.72265625 33.09765625 C-4.75187404 29.07683837 -4.76952813 25.05604811 -4.78515625 21.03515625 C-4.79353516 19.90142578 -4.80191406 18.76769531 -4.81054688 17.59960938 C-4.82686118 12.00380138 -4.8375643 6.5942309 -3.72265625 1.09765625 C-2.72265625 0.09765625 -2.72265625 0.09765625 0 0 Z " fill="#151257" transform="translate(168.72265625,108.90234375)"/>
<path d="M0 0 C0 0.99 0 1.98 0 3 C-0.61875 3.144375 -1.2375 3.28875 -1.875 3.4375 C-4.98321945 4.26026397 -5.7891997 4.67417041 -7.58203125 7.4453125 C-9.39642872 11.99380203 -9.55960568 16.02232415 -9.6875 20.875 C-9.72166016 21.75414063 -9.75582031 22.63328125 -9.79101562 23.5390625 C-9.8729314 25.69227705 -9.93815579 27.84611551 -10 30 C-10.33 30 -10.66 30 -11 30 C-11.33 28.02 -11.66 26.04 -12 24 C-12 25.98 -12 27.96 -12 30 C-12.66 30 -13.32 30 -14 30 C-14 21.42 -14 12.84 -14 4 C-11.525 4.495 -11.525 4.495 -9 5 C-8.814375 3.7934375 -8.814375 3.7934375 -8.625 2.5625 C-8.41875 1.716875 -8.2125 0.87125 -8 0 C-5.13822943 -1.43088528 -3.06624227 -0.59991697 0 0 Z " fill="#0B0755" transform="translate(279,71)"/>
<path d="M0 0 C1.62580966 0.11398665 3.25067157 0.24155659 4.875 0.375 C5.77992188 0.44460937 6.68484375 0.51421875 7.6171875 0.5859375 C10 1 10 1 12 3 C11.39671875 3.02578125 10.7934375 3.0515625 10.171875 3.078125 C6.40067298 3.34575869 3.71209714 3.53713686 0.5 5.625 C-1.44873426 8.71049591 -1.72280685 11.39648909 -2 15 C-2.99 15.33 -3.98 15.66 -5 16 C-4.67 17.32 -4.34 18.64 -4 20 C-4.33 19.34 -4.66 18.68 -5 18 C-5.66 18 -6.32 18 -7 18 C-6.0409375 19.423125 -6.0409375 19.423125 -5.0625 20.875 C-3 24 -3 24 -2 26 C-5.86882056 24.53251634 -7.29173197 22.74192045 -9 19 C-9.65643288 16.24513414 -9.86120474 13.86843532 -10 11 C-7.9927092 7.9890638 -7.16115776 7.36983503 -4 6 C-4 5.01 -4 4.02 -4 3 C-3.01 3 -2.02 3 -1 3 C-0.67 2.01 -0.34 1.02 0 0 Z " fill="#1B1662" transform="translate(239,123)"/>
<path d="M0 0 C0.66 0 1.32 0 2 0 C1.67 5.28 1.34 10.56 1 16 C3.10375 15.690625 5.2075 15.38125 7.375 15.0625 C8.55835938 14.88847656 9.74171875 14.71445313 10.9609375 14.53515625 C13.90702381 14.16537214 13.90702381 14.16537214 16 13 C16.33 13.33 16.66 13.66 17 14 C17.66 11.69 18.32 9.38 19 7 C19.66 7.33 20.32 7.66 21 8 C20.68169969 11.50130346 20.40659476 13.51208629 18.125 16.25 C16 18 16 18 13 20 C13.66 20.66 14.32 21.32 15 22 C11.84493858 22.93619813 9.03413498 23.1057123 5.75 23.0625 C4.1825 23.041875 2.615 23.02125 1 23 C1 27.29 1 31.58 1 36 C0.67 36 0.34 36 0 36 C-0.05397335 33.5622037 -0.09365616 31.12560315 -0.125 28.6875 C-0.14175781 27.99720703 -0.15851563 27.30691406 -0.17578125 26.59570312 C-0.21217794 22.82864604 -0.14378864 21.21568296 2 18 C3.32 18 4.64 18 6 18 C4.02 17.67 2.04 17.34 0 17 C0 11.39 0 5.78 0 0 Z " fill="#1A1A60" transform="translate(171,115)"/>
<path d="M0 0 C0.33 0 0.66 0 1 0 C1.73670236 4.69549443 2.16864429 9.27785224 2.31640625 14.02734375 C2.35830078 15.31318359 2.40019531 16.59902344 2.44335938 17.92382812 C2.483157 19.26171625 2.52286951 20.59960691 2.5625 21.9375 C2.60576654 23.30274562 2.64938321 24.66798018 2.69335938 26.03320312 C2.79901153 29.35537652 2.90111395 32.67761946 3 36 C0.525 36.495 0.525 36.495 -2 37 C-2.04967599 32.69500266 -2.08584945 28.39016007 -2.10986328 24.08496094 C-2.11988105 22.62236624 -2.13349912 21.15979137 -2.15087891 19.69726562 C-2.17531439 17.58718961 -2.18652537 15.47737988 -2.1953125 13.3671875 C-2.20578613 12.09987793 -2.21625977 10.83256836 -2.22705078 9.52685547 C-2.00065167 6.01012267 -1.27223601 3.27083513 0 0 Z " fill="#120D62" transform="translate(233,64)"/>
<path d="M0 0 C0.86367187 0.06703125 1.72734375 0.1340625 2.6171875 0.203125 C5.50639185 0.83316956 6.96913331 1.74743938 9.125 3.75 C10.80076578 7.60426129 11.125 10.61334859 11.125 14.75 C11.75770867 16.09977849 12.42562468 17.43352881 13.125 18.75 C13.50168344 20.40740715 13.84557545 22.07345271 14.125 23.75 C12.805 24.08 11.485 24.41 10.125 24.75 C10.125 25.41 10.125 26.07 10.125 26.75 C4.03160831 28.63341198 -0.60032201 28.8248291 -6.875 27.75 C-6.875 27.42 -6.875 27.09 -6.875 26.75 C-6.11574219 26.70101562 -5.35648438 26.65203125 -4.57421875 26.6015625 C-3.58035156 26.52679688 -2.58648437 26.45203125 -1.5625 26.375 C-0.57636719 26.30539063 0.40976563 26.23578125 1.42578125 26.1640625 C4.34028433 25.91134528 4.34028433 25.91134528 7.125 23.75 C8.75278681 17.26070226 8.39390572 10.98949072 6.125 4.75 C2.42098872 2.28065915 -0.58087865 2.30071567 -4.875 2.75 C-7.28057853 3.61265968 -7.28057853 3.61265968 -8.875 4.75 C-8.875 4.09 -8.875 3.43 -8.875 2.75 C-8.215 2.75 -7.555 2.75 -6.875 2.75 C-6.875 2.09 -6.875 1.43 -6.875 0.75 C-4.3310922 -0.5219539 -2.82041318 -0.25107536 0 0 Z " fill="#15136A" transform="translate(209.875,74.25)"/>
<path d="M0 0 C1.3271261 3.9813783 1.06915913 7.85045227 1 12 C1.99 12.33 2.98 12.66 4 13 C4.33 13.66 4.66 14.32 5 15 C8.53933534 17.45030908 11.80134896 17.36830272 16 17 C18.87146994 15.63002843 18.87146994 15.63002843 21 14 C21.38133299 15.9914056 21.71325582 17.99279077 22 20 C21.67 20.33 21.34 20.66 21 21 C19 21 17 21 15 21 C14.67 21.33 14.34 21.66 14 22 C12.33382885 22.04063832 10.66611905 22.042721 9 22 C9.33 21.34 9.66 20.68 10 20 C9.18595703 19.63648438 9.18595703 19.63648438 8.35546875 19.265625 C1.24956063 15.93673111 1.24956063 15.93673111 -1 12 C-1 12.99 -1 13.98 -1 15 C-1.66 15 -2.32 15 -3 15 C-3 17.64 -3 20.28 -3 23 C-3.33 23 -3.66 23 -4 23 C-4 16.07 -4 9.14 -4 2 C-3.34 2.66 -2.68 3.32 -2 4 C-1.34 2.68 -0.68 1.36 0 0 Z " fill="#080751" transform="translate(271,129)"/>
<path d="M0 0 C1.2065625 0.0309375 1.2065625 0.0309375 2.4375 0.0625 C3.5625 4.8125 3.5625 4.8125 2.4375 7.0625 C3.0975 7.3925 3.7575 7.7225 4.4375 8.0625 C3.6875 15.8125 3.6875 15.8125 1.4375 18.0625 C-1.1875 18.1875 -1.1875 18.1875 -3.5625 18.0625 C-3.58934312 15.24993719 -3.60926188 12.43762759 -3.625 9.625 C-3.63337891 8.82255859 -3.64175781 8.02011719 -3.65039062 7.19335938 C-3.6590143 5.14954779 -3.6147815 3.10566098 -3.5625 1.0625 C-2.5625 0.0625 -2.5625 0.0625 0 0 Z " fill="#71E0E2" transform="translate(326.5625,81.9375)"/>
<path d="M0 0 C0.226875 0.556875 0.45375 1.11375 0.6875 1.6875 C3.90273048 7.35242989 8.06111633 9.91039278 14 12 C14.99 12 15.98 12 17 12 C19.1875 13 19.1875 13 21 14 C15.38841426 15.87052858 9.82714398 15.75605958 4.375 13.5 C3.59125 13.005 2.8075 12.51 2 12 C1.67 15.63 1.34 19.26 1 23 C0.34 23 -0.32 23 -1 23 C-2.56987538 19.86024924 -1.86826308 16.60230552 -1.625 13.1875 C-1.58117187 12.47529297 -1.53734375 11.76308594 -1.4921875 11.02929688 C-1.24243552 7.27954843 -0.84910443 3.66266234 0 0 Z " fill="#19156B" transform="translate(269,137)"/>
<path d="M0 0 C2.5 0.125 2.5 0.125 3.5 1.125 C3.6002093 3.40447792 3.63081303 5.68707135 3.6328125 7.96875 C3.63376923 8.65304077 3.63472595 9.33733154 3.63571167 10.0423584 C3.6363933 11.49161877 3.63454023 12.94088218 3.63037109 14.39013672 C3.62502252 16.61562928 3.6303166 18.84092001 3.63671875 21.06640625 C3.63605797 22.47135461 3.6347768 23.87630285 3.6328125 25.28125 C3.63168457 26.56837891 3.63055664 27.85550781 3.62939453 29.18164062 C3.5 32.125 3.5 32.125 2.5 33.125 C0.83382885 33.16563832 -0.83388095 33.167721 -2.5 33.125 C-2.5 32.135 -2.5 31.145 -2.5 30.125 C-1.51 29.465 -0.52 28.805 0.5 28.125 C0.2215625 26.7328125 0.2215625 26.7328125 -0.0625 25.3125 C-0.5 22.125 -0.5 22.125 0.5 19.125 C0.56937062 16.89681559 0.58457084 14.66665476 0.5625 12.4375 C0.55347656 11.25800781 0.54445312 10.07851562 0.53515625 8.86328125 C0.52355469 7.95964844 0.51195312 7.05601563 0.5 6.125 C-0.16 6.125 -0.82 6.125 -1.5 6.125 C-2.16 4.475 -2.82 2.825 -3.5 1.125 C-2.5 0.125 -2.5 0.125 0 0 Z " fill="#1B1658" transform="translate(222.5,68.875)"/>
<path d="M0 0 C-0.33 0.66 -0.66 1.32 -1 2 C0.093125 1.979375 1.18625 1.95875 2.3125 1.9375 C6 2 6 2 9 3 C9 3.66 9 4.32 9 5 C7.98679687 4.93039063 7.98679687 4.93039063 6.953125 4.859375 C1.48593223 4.58833852 1.48593223 4.58833852 -3.5625 6.375 C-5.75865873 10.38537681 -5.82777899 14.48780952 -6 19 C-8 17 -8 17 -8.1953125 15.0546875 C-8.13020833 13.03645833 -8.06510417 11.01822917 -8 9 C-8.33 10.65 -8.66 12.3 -9 14 C-10.99641149 11.00538277 -11.6651717 9.51569716 -12 6 C-11.4375 3.3125 -11.4375 3.3125 -10 1 C-6.36950132 -0.73632546 -3.81768994 -1.46834228 0 0 Z " fill="#171459" transform="translate(279,122)"/>
<path d="M0 0 C6.94736842 -0.31578947 6.94736842 -0.31578947 10 2 C13.54336097 7.39282256 13.36025762 12.16458506 13.1875 18.375 C13.17396484 19.30183594 13.16042969 20.22867188 13.14648438 21.18359375 C13.11133881 23.45633998 13.06214132 25.72785847 13 28 C14.32 28 15.64 28 17 28 C16.505 15.13 16.505 15.13 16 2 C18.26598448 5.39897673 18.23742654 6.56319173 18.1953125 10.54296875 C18.18886719 11.61611328 18.18242187 12.68925781 18.17578125 13.79492188 C18.15902344 14.91447266 18.14226562 16.03402344 18.125 17.1875 C18.11597656 18.31865234 18.10695313 19.44980469 18.09765625 20.61523438 C18.07406862 23.41036828 18.041153 26.20507845 18 29 C15.625 29.625 15.625 29.625 13 30 C9.95610454 26.95610454 10.61007581 23.34223006 10.5 19.25 C10.35165046 13.83960517 10.19267068 9.05267591 8 4 C6.26033623 2.8139479 6.26033623 2.8139479 4 3 C0.80376352 3.87050779 0.80376352 3.87050779 -2 5 C-1.34 3.35 -0.68 1.7 0 0 Z " fill="#2B285F" transform="translate(274,73)"/>
<path d="M0 0 C0.33 0 0.66 0 1 0 C1 3.3 1 6.6 1 10 C0.67 9.34 0.34 8.68 0 8 C-3.27116732 8.13888506 -6.541834 8.28730492 -9.8125 8.4375 C-11.2056543 8.49647461 -11.2056543 8.49647461 -12.62695312 8.55664062 C-13.9659668 8.61948242 -13.9659668 8.61948242 -15.33203125 8.68359375 C-16.15421143 8.72025146 -16.9763916 8.75690918 -17.82348633 8.79467773 C-20.17905178 8.93427772 -20.17905178 8.93427772 -23 10 C-23.33 8.02 -23.66 6.04 -24 4 C-23.01 4 -22.02 4 -21 4 C-21 4.99 -21 5.98 -21 7 C-20.34 7 -19.68 7 -19 7 C-19 6.01 -19 5.02 -19 4 C-17.44539062 3.90912109 -17.44539062 3.90912109 -15.859375 3.81640625 C-14.48957127 3.73196629 -13.11978025 3.64732003 -11.75 3.5625 C-11.06808594 3.52318359 -10.38617188 3.48386719 -9.68359375 3.44335938 C-6.35551959 3.23333528 -3.19744598 2.98065998 0 2 C0 1.34 0 0.68 0 0 Z " fill="#0C0A5F" transform="translate(151,74)"/>
<path d="M0 0 C1.98 0 3.96 0 6 0 C6.04934154 6.08722746 6.08569167 12.1743392 6.10986328 18.26171875 C6.11993712 20.33367947 6.13359666 22.40562593 6.15087891 24.47753906 C6.17506664 27.45120764 6.18646908 30.4246887 6.1953125 33.3984375 C6.20563507 34.32868744 6.21595764 35.25893738 6.22659302 36.21737671 C6.22674408 37.07811798 6.22689514 37.93885925 6.22705078 38.82568359 C6.231492 39.58513275 6.23593323 40.34458191 6.24050903 41.12704468 C6 43 6 43 4 45 C3.01 45 2.02 45 1 45 C-0.51358744 41.97282512 -0.37944436 38.76609321 -0.5625 35.4375 C-0.6035083 34.71602783 -0.6445166 33.99455566 -0.68676758 33.2512207 C-1.47563844 18.71345766 -1.47563844 18.71345766 1 15 C1 23.58 1 32.16 1 41 C2.32 41 3.64 41 5 41 C5 27.8 5 14.6 5 1 C3.35 1 1.7 1 0 1 C0 0.67 0 0.34 0 0 Z " fill="#222152" transform="translate(302,109)"/>
<path d="M0 0 C1.65 0.33 3.3 0.66 5 1 C5 5.62 5 10.24 5 15 C3.02 15.99 1.04 16.98 -1 18 C-1.33 17.67 -1.66 17.34 -2 17 C-1.93529835 14.31782231 -1.80879885 11.67427324 -1.625 9 C-1.58117187 8.24976562 -1.53734375 7.49953125 -1.4921875 6.7265625 C-1.12840854 1.12840854 -1.12840854 1.12840854 0 0 Z " fill="#E3BF5E" transform="translate(316,60)"/>
<path d="M0 0 C0.55816406 0.32484375 1.11632812 0.6496875 1.69140625 0.984375 C1.36140625 1.644375 1.03140625 2.304375 0.69140625 2.984375 C0.03140625 2.654375 -0.62859375 2.324375 -1.30859375 1.984375 C-7.03819478 1.38849649 -11.35710906 1.8012777 -16.30859375 4.984375 C-17.32660732 5.96603094 -18.33327405 6.96028932 -19.30859375 7.984375 C-19.96859375 7.984375 -20.62859375 7.984375 -21.30859375 7.984375 C-21.41713992 10.38143623 -21.49612532 12.77353338 -21.55859375 15.171875 C-21.59210938 15.84541016 -21.625625 16.51894531 -21.66015625 17.21289062 C-21.73129512 20.85875767 -21.42811663 22.79911453 -19.43359375 25.890625 C-17.44448151 27.85048559 -15.88978609 28.97033515 -13.30859375 29.984375 C-14.29859375 30.314375 -15.28859375 30.644375 -16.30859375 30.984375 C-20.23370112 28.42103957 -21.90383443 26.97787515 -23.68359375 22.609375 C-24.84107619 15.89597685 -24.51403194 11.61432511 -21.4765625 5.5859375 C-20.30859375 3.984375 -20.30859375 3.984375 -17.30859375 2.984375 C-17.30859375 2.324375 -17.30859375 1.664375 -17.30859375 0.984375 C-12.20624309 -1.73687869 -5.34467721 -2.35129623 0 0 Z " fill="#161554" transform="translate(181.30859375,70.015625)"/>
<path d="M0 0 C0.33 0 0.66 0 1 0 C1 5.61 1 11.22 1 17 C3.64 17.33 6.28 17.66 9 18 C10 19 10 19 10.125 21.5 C10 24 10 24 9 25 C3.77456457 25.40983807 0.46707974 24.76533508 -4 22 C-4.33 21.34 -4.66 20.68 -5 20 C-2.61435923 20.57584432 -0.33317216 21.22227595 2 22 C2 21.34 2 20.68 2 20 C1.360625 19.773125 0.72125 19.54625 0.0625 19.3125 C-2 18 -2 18 -2.75 15.375 C-2.8325 14.59125 -2.915 13.8075 -3 13 C-2.34 13 -1.68 13 -1 13 C-0.67 13.99 -0.34 14.98 0 16 C0 10.72 0 5.44 0 0 Z " fill="#18165B" transform="translate(250,77)"/>
<path d="M0 0 C1.65 0 3.3 0 5 0 C5 13.2 5 26.4 5 40 C4.67 40 4.34 40 4 40 C3.67 30.1 3.34 20.2 3 10 C2.67 10.99 2.34 11.98 2 13 C1.01 12.67 0.02 12.34 -1 12 C-0.67 8.04 -0.34 4.08 0 0 Z " fill="#020147" transform="translate(302,110)"/>
<path d="M0 0 C3.67523316 1.00006344 5.62965066 2.95777566 8.296875 5.625 C7.306875 5.955 6.316875 6.285 5.296875 6.625 C4.636875 7.285 3.976875 7.945 3.296875 8.625 C2.636875 8.295 1.976875 7.965 1.296875 7.625 C1.296875 6.965 1.296875 6.305 1.296875 5.625 C-2.333125 5.625 -5.963125 5.625 -9.703125 5.625 C-9.703125 4.305 -9.703125 2.985 -9.703125 1.625 C-5.96504029 -0.86705647 -4.29586742 -0.5615513 0 0 Z " fill="#0A095C" transform="translate(286.703125,119.375)"/>
<path d="M0 0 C1.90608098 3.21182149 2.22266247 5.53882603 2.125 9.25 C2.10695312 10.14203125 2.08890625 11.0340625 2.0703125 11.953125 C2.03550781 12.96632813 2.03550781 12.96632813 2 14 C2.99 14 3.98 14 5 14 C5 9.38 5 4.76 5 0 C5.33 0 5.66 0 6 0 C6 5.61 6 11.22 6 17 C4.35 17.66 2.7 18.32 1 19 C-1.77675038 15.07173635 -2.34512366 12.46875108 -2.1875 7.6875 C-2.16042969 6.61886719 -2.13335937 5.55023438 -2.10546875 4.44921875 C-2.07066406 3.64097656 -2.03585938 2.83273438 -2 2 C-1.34 2 -0.68 2 0 2 C0 1.34 0 0.68 0 0 Z " fill="#121146" transform="translate(149,84)"/>
<path d="M0 0 C1.13115234 0.07831055 1.13115234 0.07831055 2.28515625 0.15820312 C4.1487937 0.28795004 6.01194996 0.42457488 7.875 0.5625 C5.875 2.5625 5.875 2.5625 2.87109375 2.72265625 C1.69675781 2.69042969 0.52242188 2.65820312 -0.6875 2.625 C-2.83275386 2.57095746 -4.97916285 2.54206346 -7.125 2.5625 C-7.455 2.8925 -7.785 3.2225 -8.125 3.5625 C-1.855 3.5625 4.415 3.5625 10.875 3.5625 C7.875 6.5625 7.875 6.5625 5.88208008 6.90307617 C5.14368896 6.88736572 4.40529785 6.87165527 3.64453125 6.85546875 C2.84208984 6.84580078 2.03964844 6.83613281 1.21289062 6.82617188 C0.37951172 6.80103516 -0.45386719 6.77589844 -1.3125 6.75 C-2.15748047 6.73646484 -3.00246094 6.72292969 -3.87304688 6.70898438 C-5.95730384 6.67365799 -8.04123277 6.61985139 -10.125 6.5625 C-10.125 4.5825 -10.125 2.6025 -10.125 0.5625 C-6.91158631 -1.04420684 -3.49541032 -0.26260855 0 0 Z " fill="#090648" transform="translate(328.125,132.4375)"/>
<path d="M0 0 C4.8359375 0.7890625 4.8359375 0.7890625 6.3125 2.6875 C7.37374155 6.25713067 7.69132414 9.61735172 6 13 C4.33388095 13.042721 2.66617115 13.04063832 1 13 C0 12 0 12 -0.09765625 9.27734375 C-0.08605469 8.17519531 -0.07445312 7.07304688 -0.0625 5.9375 C-0.05347656 4.83277344 -0.04445313 3.72804688 -0.03515625 2.58984375 C-0.02355469 1.73519531 -0.01195312 0.88054687 0 0 Z " fill="#7D72E7" transform="translate(315,87)"/>
<path d="M0 0 C3.91601134 0.22592373 6.32602376 0.46427529 9.4375 2.9375 C11.65948675 7.29259402 11.33533771 11.20280774 11 16 C8.36 16 5.72 16 3 16 C3.515625 15.4225 4.03125 14.845 4.5625 14.25 C6.23997341 12.14996963 6.23997341 12.14996963 5.75 9.9375 C5.37875 8.9784375 5.37875 8.9784375 5 8 C4 5 4 5 4 3 C2.0399719 1.36323743 2.0399719 1.36323743 0 0 Z " fill="#0A0C55" transform="translate(177,71)"/>
<path d="M0 0 C0.99 0.33 1.98 0.66 3 1 C2.34 1 1.68 1 1 1 C1 1.66 1 2.32 1 3 C0.34 3 -0.32 3 -1 3 C-1.33 4.32 -1.66 5.64 -2 7 C-0.35 6.67 1.3 6.34 3 6 C2.67 6.99 2.34 7.98 2 9 C-1.96 9 -5.92 9 -10 9 C-10 7.02 -10 5.04 -10 3 C-11.65 2.67 -13.3 2.34 -15 2 C-15 1.67 -15 1.34 -15 1 C-14.25234375 1.09539062 -13.5046875 1.19078125 -12.734375 1.2890625 C-11.25710938 1.45535156 -11.25710938 1.45535156 -9.75 1.625 C-8.77546875 1.74101563 -7.8009375 1.85703125 -6.796875 1.9765625 C-3.80971331 2.00159458 -2.57875557 1.35549973 0 0 Z " fill="#688191" transform="translate(339,80)"/>
<path d="M0 0 C2.5 2.5 2.5 2.5 4 5 C4.33 5.33 4.66 5.66 5 6 C6.32 5.34 7.64 4.68 9 4 C9.33 6.97 9.66 9.94 10 13 C8.02 13.99 8.02 13.99 6 15 C3.75 14.125 3.75 14.125 2 13 C5.465 12.505 5.465 12.505 9 12 C8.67 11.34 8.34 10.68 8 10 C7.01 10 6.02 10 5 10 C1.61663396 7.74442264 1.39927488 6.63811468 0 3 C-3.19738662 1.40130669 -6.530167 1.48914505 -10 2 C-12.96731398 3.83656989 -12.96731398 3.83656989 -15 6 C-12.01732373 -1.20813433 -7.12122868 -2.19920297 0 0 Z " fill="#282562" transform="translate(217,125)"/>
<path d="M0 0 C0.66 0.33 1.32 0.66 2 1 C2 10.9 2 20.8 2 31 C2.99 31.33 3.98 31.66 5 32 C5 27.71 5 23.42 5 19 C5.33 19 5.66 19 6 19 C6.02684679 21.64590014 6.04676357 24.29153096 6.0625 26.9375 C6.07087891 27.69224609 6.07925781 28.44699219 6.08789062 29.22460938 C6.09652441 31.14994313 6.05224333 33.07535581 6 35 C5 36 5 36 2.4375 36.0625 C1.633125 36.041875 0.82875 36.02125 0 36 C-0.89114296 31.51728086 -1.054391 27.41416599 -0.87890625 22.8515625 C-0.85529526 22.19417084 -0.83168427 21.53677917 -0.80735779 20.85946655 C-0.73141555 18.7810523 -0.64709817 16.70307808 -0.5625 14.625 C-0.50920952 13.20705204 -0.45646973 11.78908327 -0.40429688 10.37109375 C-0.27589634 6.91379897 -0.13998803 3.45684722 0 0 Z " fill="#0C0847" transform="translate(123,66)"/>
<path d="M0 0 C0.33 0 0.66 0 1 0 C0.67 6.93 0.34 13.86 0 21 C-1.65 21.33 -3.3 21.66 -5 22 C-7.45391569 18.31912647 -7.22802759 15.55644412 -7.125 11.3125 C-7.11597656 10.61060547 -7.10695313 9.90871094 -7.09765625 9.18554688 C-7.07413704 7.45688475 -7.03826713 5.72839855 -7 4 C-6.67 4 -6.34 4 -6 4 C-5.67 9.28 -5.34 14.56 -5 20 C-4.34 20 -3.68 20 -3 20 C-3.2784375 18.453125 -3.2784375 18.453125 -3.5625 16.875 C-3.97307082 13.23851558 -3.778309 10.54562991 -3 7 C-2.67 7 -2.34 7 -2 7 C-1.34 4.69 -0.68 2.38 0 0 Z " fill="#252058" transform="translate(270,81)"/>
<path d="M0 0 C1.65 0 3.3 0 5 0 C5.3235827 6.06417949 5.49955154 10.7506727 2 16 C-1.00313748 17.50156874 -3.79067522 17.09281204 -7.125 17.0625 C-8.40632812 17.05347656 -9.68765625 17.04445312 -11.0078125 17.03515625 C-12.48894531 17.01775391 -12.48894531 17.01775391 -14 17 C-14 16.67 -14 16.34 -14 16 C-13.33613281 15.95101562 -12.67226562 15.90203125 -11.98828125 15.8515625 C-5.19959353 15.4572284 -5.19959353 15.4572284 1 13 C2.83087085 9.6869956 3 7.85966823 3 4 C2.690625 4.94875 2.38125 5.8975 2.0625 6.875 C1 10 1 10 0 12 C-0.66 11.67 -1.32 11.34 -2 11 C-1.67 10.484375 -1.34 9.96875 -1 9.4375 C0.32010877 6.21973488 0.13242105 3.4429472 0 0 Z " fill="#08084F" transform="translate(188,119)"/>
<path d="M0 0 C0.99 0.33 1.98 0.66 3 1 C3 1.99 3 2.98 3 4 C4.06541016 4.09087891 4.06541016 4.09087891 5.15234375 4.18359375 C6.07144531 4.26738281 6.99054688 4.35117188 7.9375 4.4375 C9.31228516 4.55931641 9.31228516 4.55931641 10.71484375 4.68359375 C13 5 13 5 14 6 C14.07179964 7.51928038 14.08392007 9.04167482 14.0625 10.5625 C14.05347656 11.38878906 14.04445313 12.21507813 14.03515625 13.06640625 C14.02355469 13.70449219 14.01195312 14.34257813 14 15 C13.34 15 12.68 15 12 15 C12 12.69 12 10.38 12 8 C11.22914063 8.03480469 10.45828125 8.06960937 9.6640625 8.10546875 C8.66117187 8.13253906 7.65828125 8.15960938 6.625 8.1875 C5.12839844 8.23970703 5.12839844 8.23970703 3.6015625 8.29296875 C2.74304688 8.19628906 1.88453125 8.09960938 1 8 C-1 5 -1 5 -0.625 2.3125 C-0.41875 1.549375 -0.2125 0.78625 0 0 Z " fill="#4E3C88" transform="translate(300,81)"/>
<path d="M0 0 C0.99 0.66 1.98 1.32 3 2 C-1.62 2.33 -6.24 2.66 -11 3 C-11.33 4.32 -11.66 5.64 -12 7 C-12.99 7 -13.98 7 -15 7 C-15 7.99 -15 8.98 -15 10 C-15.66 10 -16.32 10 -17 10 C-17.33 10.99 -17.66 11.98 -18 13 C-18.66 12.34 -19.32 11.68 -20 11 C-15.46135452 3.19352977 -9.39071644 -2.15203918 0 0 Z " fill="#0F104A" transform="translate(250,119)"/>
<path d="M0 0 C0.66 0 1.32 0 2 0 C2.02505615 0.86802246 2.0501123 1.73604492 2.07592773 2.63037109 C2.17099484 5.84713163 2.27023203 9.06372849 2.37231445 12.28027344 C2.41565846 13.6731259 2.45733396 15.06603131 2.49731445 16.45898438 C2.55502932 18.45976651 2.61921869 20.46035859 2.68359375 22.4609375 C2.72025146 23.66540527 2.75690918 24.86987305 2.79467773 26.11083984 C2.81052987 28.93996367 2.81052987 28.93996367 4 31 C2.68 30.67 1.36 30.34 0 30 C0 20.1 0 10.2 0 0 Z " fill="#110D66" transform="translate(124,67)"/>
<path d="M0 0 C0 0.66 0 1.32 0 2 C-0.66 2 -1.32 2 -2 2 C-2 2.66 -2 3.32 -2 4 C-2.66 4 -3.32 4 -4 4 C-4 4.66 -4 5.32 -4 6 C-3.01 6.33 -2.02 6.66 -1 7 C-2.32 7.33 -3.64 7.66 -5 8 C-5 12.29 -5 16.58 -5 21 C-6.32 20.01 -7.64 19.02 -9 18 C-9.83757786 11.82286325 -8.59583246 7.12315929 -5 2 C-2 0 -2 0 0 0 Z " fill="#070844" transform="translate(320,122)"/>
<path d="M0 0 C1.65322266 0.01740234 1.65322266 0.01740234 3.33984375 0.03515625 C4.99693359 0.04869141 4.99693359 0.04869141 6.6875 0.0625 C7.54214844 0.07410156 8.39679688 0.08570312 9.27734375 0.09765625 C9.60734375 1.74765625 9.93734375 3.39765625 10.27734375 5.09765625 C5.98734375 5.09765625 1.69734375 5.09765625 -2.72265625 5.09765625 C-3.05265625 3.77765625 -3.38265625 2.45765625 -3.72265625 1.09765625 C-2.72265625 0.09765625 -2.72265625 0.09765625 0 0 Z " fill="#D87D51" transform="translate(304.72265625,72.90234375)"/>
<path d="M0 0 C0.33 0 0.66 0 1 0 C1.25129938 6.03118511 1.03665563 11.27796751 -1 17 C-3.625 19.5 -3.625 19.5 -6 21 C-6 18 -6 18 -4 15.8125 C-3.01 14.9153125 -3.01 14.9153125 -2 14 C-2.66 13.67 -3.32 13.34 -4 13 C-6.60931266 13.89363605 -6.60931266 13.89363605 -9 15 C-7.35 13.35 -5.7 11.7 -4 10 C-6.31 9.67 -8.62 9.34 -11 9 C-11 8.67 -11 8.34 -11 8 C-5.555 7.505 -5.555 7.505 0 7 C0 4.69 0 2.38 0 0 Z " fill="#312B59" transform="translate(188,80)"/>
<path d="M0 0 C1.2065625 0.0309375 1.2065625 0.0309375 2.4375 0.0625 C3.5625 4.8125 3.5625 4.8125 2.4375 7.0625 C3.0975 7.3925 3.7575 7.7225 4.4375 8.0625 C3.6875 15.8125 3.6875 15.8125 1.4375 18.0625 C-1.1875 18.1875 -1.1875 18.1875 -3.5625 18.0625 C-3.58934312 15.24993719 -3.60926188 12.43762759 -3.625 9.625 C-3.63337891 8.82255859 -3.64175781 8.02011719 -3.65039062 7.19335938 C-3.6590143 5.14954779 -3.6147815 3.10566098 -3.5625 1.0625 C-2.5625 0.0625 -2.5625 0.0625 0 0 Z M-2.5625 2.0625 C-2.5625 6.6825 -2.5625 11.3025 -2.5625 16.0625 C-1.2425 16.0625 0.0775 16.0625 1.4375 16.0625 C1.7675 11.4425 2.0975 6.8225 2.4375 2.0625 C0.7875 2.0625 -0.8625 2.0625 -2.5625 2.0625 Z " fill="#76BAC7" transform="translate(326.5625,81.9375)"/>
<path d="M0 0 C0.33 0 0.66 0 1 0 C1 1.65 1 3.3 1 5 C3.60508636 4.88608368 6.20845546 4.75934452 8.8125 4.625 C9.55048828 4.5940625 10.28847656 4.563125 11.04882812 4.53125 C14.81893115 4.32653852 16.79650741 4.13566173 20 2 C20.99 2 21.98 2 23 2 C22.6875 3.9375 22.6875 3.9375 22 6 C19.34081834 6.88639389 17.51935359 7.17989025 14.76953125 7.31640625 C13.96708984 7.35830078 13.16464844 7.40019531 12.33789062 7.44335938 C11.50451172 7.48267578 10.67113281 7.52199219 9.8125 7.5625 C8.96751953 7.60568359 8.12253906 7.64886719 7.25195312 7.69335938 C5.16815567 7.79931518 3.08409897 7.9001502 1 8 C-0.35439668 5.29120665 -0.06501451 2.99066732 0 0 Z " fill="#9E7353" transform="translate(299,73)"/>
<path d="M0 0 C0.99 0 1.98 0 3 0 C3 4.95 3 9.9 3 15 C1.02 15 -0.96 15 -3 15 C-3 12.03 -3 9.06 -3 6 C-2.34 5.67 -1.68 5.34 -1 5 C-1 6.98 -1 8.96 -1 11 C-0.34 11 0.32 11 1 11 C0.67 7.37 0.34 3.74 0 0 Z " fill="#0C0B4C" transform="translate(168,138)"/>
<path d="M0 0 C3 2.375 3 2.375 5 5 C5 5.99 5 6.98 5 8 C2.69 8 0.38 8 -2 8 C-0.68 7.34 0.64 6.68 2 6 C1.05270463 3.84188612 1.05270463 3.84188612 -1 2 C-4.45134689 1.45653638 -7.82227126 1.41113563 -11 3 C-11.72159424 4.64363134 -12.39351421 6.31050386 -13 8 C-13.99 8 -14.98 8 -16 8 C-14.82191948 4.6470016 -13.80593388 2.2447471 -11 0 C-7.14713253 -1.28428916 -3.85646233 -1.11042106 0 0 Z " fill="#2B2A5F" transform="translate(179,75)"/>
<path d="M0 0 C0.66 0 1.32 0 2 0 C2.13277344 0.60328125 2.26554687 1.2065625 2.40234375 1.828125 C2.57894531 2.62734375 2.75554687 3.4265625 2.9375 4.25 C3.19853516 5.43335938 3.19853516 5.43335938 3.46484375 6.640625 C3.95350998 8.98265489 3.95350998 8.98265489 4.71875 11.125 C4.8115625 11.74375 4.904375 12.3625 5 13 C2.5625 15.75 2.5625 15.75 0 18 C-1.32 17.34 -2.64 16.68 -4 16 C-3.01 15.67 -2.02 15.34 -1 15 C0.09506492 11.71480525 0.09960608 9.26336585 0.0625 5.8125 C0.04896484 4.18248047 0.04896484 4.18248047 0.03515625 2.51953125 C0.02355469 1.68808594 0.01195312 0.85664063 0 0 Z " fill="#19155D" transform="translate(255,129)"/>
<path d="M0 0 C0.33 0.66 0.66 1.32 1 2 C-0.73952411 5.57060212 -2.53905487 8.00733462 -6 10 C-7.32 10 -8.64 10 -10 10 C-10 9.34 -10 8.68 -10 8 C-8.68 7.67 -7.36 7.34 -6 7 C-6 6.34 -6 5.68 -6 5 C-6.66 5 -7.32 5 -8 5 C-8.33 5.66 -8.66 6.32 -9 7 C-8.02086745 1.32103121 -5.73500486 -0.46500039 0 0 Z " fill="#0C0646" transform="translate(341,141)"/>
<path d="M0 0 C0.33 0 0.66 0 1 0 C1 2.64 1 5.28 1 8 C2.9490625 7.7215625 2.9490625 7.7215625 4.9375 7.4375 C7.15234375 7.12109375 7.15234375 7.12109375 9 7 C10 8 10 8 10.0625 11.0625 C10.041875 12.031875 10.02125 13.00125 10 14 C8.02 14.33 6.04 14.66 4 15 C4 13.68 4 12.36 4 11 C2.68 10.34 1.36 9.68 0 9 C0 6.03 0 3.06 0 0 Z " fill="#120F52" transform="translate(250,62)"/>
<path d="M0 0 C-1.75 3.875 -1.75 3.875 -4 5 C-5.87379605 5.07033769 -7.75001102 5.0843022 -9.625 5.0625 C-10.62789062 5.05347656 -11.63078125 5.04445313 -12.6640625 5.03515625 C-13.43492187 5.02355469 -14.20578125 5.01195313 -15 5 C-15.33 4.34 -15.66 3.68 -16 3 C-14.35 3 -12.7 3 -11 3 C-11 2.34 -11 1.68 -11 1 C-3.375 -1.125 -3.375 -1.125 0 0 Z " fill="#0D0A53" transform="translate(218,96)"/>
<path d="M0 0 C-1.12451727 2.9719385 -2.22293791 5.33440687 -4 8 C-4.38499891 9.65549531 -4.72793135 11.3222433 -5 13 C-6.99641149 10.00538277 -7.6651717 8.51569716 -8 5 C-7.25 2.25 -7.25 2.25 -6 0 C-3 -1 -3 -1 0 0 Z " fill="#1A1970" transform="translate(275,123)"/>
<path d="M0 0 C0.33 0.99 0.66 1.98 1 3 C0.01 3 -0.98 3 -2 3 C-0.02 4.65 1.96 6.3 4 8 C3.01 8.33 2.02 8.66 1 9 C0.01 8.34 -0.98 7.68 -2 7 C-2 6.34 -2 5.68 -2 5 C-7.94 4.01 -7.94 4.01 -14 3 C-14 2.67 -14 2.34 -14 2 C-7.07 1.01 -7.07 1.01 0 0 Z " fill="#08074B" transform="translate(253,120)"/>
<path d="M0 0 C0.66 0 1.32 0 2 0 C2.6496875 1.175625 2.6496875 1.175625 3.3125 2.375 C5.28831765 5.44849412 6.50008249 6.12502062 10 7 C10.99 6.67 11.98 6.34 13 6 C13.33 6.33 13.66 6.66 14 7 C15.32520503 7.68268138 16.65812182 8.3507041 18 9 C18 9.33 18 9.66 18 10 C8.09305994 10.7807571 8.09305994 10.7807571 3.9375 7.8125 C2.15910573 5.23095993 0.937376 2.98255999 0 0 Z " fill="#09094D" transform="translate(232,141)"/>
<path d="M0 0 C0.33 0.66 0.66 1.32 1 2 C0.67 2.66 0.34 3.32 0 4 C-0.17471848 6.09948601 -0.26717852 8.20624408 -0.3125 10.3125 C-0.34988281 11.44300781 -0.38726562 12.57351562 -0.42578125 13.73828125 C0.08482525 17.64980814 1.26952707 19.21421362 4 22 C6.11660427 23.31165257 6.11660427 23.31165257 8 24 C7.01 24.33 6.02 24.66 5 25 C1.07489263 22.43666457 -0.59524068 20.99350015 -2.375 16.625 C-3.51244102 10.02784211 -3.4314545 5.8620681 0 0 Z " fill="#241F52" transform="translate(160,76)"/>
<path d="M0 0 C3.97026289 0.55399017 7.29854325 1.49940942 11 3 C11.99 3 12.98 3 14 3 C16.1875 4 16.1875 4 18 5 C13.66298405 6.44567198 9.52718477 6.67042704 5 6 C1.875 3.5625 1.875 3.5625 0 1 C0 0.67 0 0.34 0 0 Z " fill="#161255" transform="translate(272,146)"/>
<path d="M0 0 C3.96 0.33 7.92 0.66 12 1 C12 1.66 12 2.32 12 3 C12.66 3.66 13.32 4.32 14 5 C12.41705218 5.05437607 10.83355744 5.09296271 9.25 5.125 C8.36828125 5.14820312 7.4865625 5.17140625 6.578125 5.1953125 C3.8864142 4.99139502 2.30095026 4.36551721 0 3 C0 2.01 0 1.02 0 0 Z " fill="#73B8EF" transform="translate(325,73)"/>
<path d="M0 0 C0.86367187 0.06703125 1.72734375 0.1340625 2.6171875 0.203125 C5.51107669 0.83419118 6.96992802 1.73828093 9.125 3.75 C10.4375 6.8125 10.4375 6.8125 11.125 9.75 C10.795 10.41 10.465 11.07 10.125 11.75 C9.465 11.75 8.805 11.75 8.125 11.75 C7.856875 10.63625 7.58875 9.5225 7.3125 8.375 C6.46690981 4.53159049 6.46690981 4.53159049 3.125 2.75 C-3.19367657 2.29565616 -3.19367657 2.29565616 -8.875 4.75 C-8.875 4.09 -8.875 3.43 -8.875 2.75 C-8.215 2.75 -7.555 2.75 -6.875 2.75 C-6.875 2.09 -6.875 1.43 -6.875 0.75 C-4.3310922 -0.5219539 -2.82041318 -0.25107536 0 0 Z " fill="#1F1C65" transform="translate(209.875,74.25)"/>
<path d="M0 0 C0.66 0 1.32 0 2 0 C2.12375 0.9075 2.2475 1.815 2.375 2.75 C2.82041871 5.88937267 2.82041871 5.88937267 4.0625 8.0625 C5.23202603 10.47952046 5.14727119 12.34911857 5 15 C4.01 14.67 3.02 14.34 2 14 C1.67 14.99 1.34 15.98 1 17 C-0.13480527 13.39006828 -0.10015767 10.0157673 -0.0625 6.25 C-0.05347656 5.07953125 -0.04445313 3.9090625 -0.03515625 2.703125 C-0.02355469 1.81109375 -0.01195312 0.9190625 0 0 Z " fill="#171470" transform="translate(266,62)"/>
<path d="M0 0 C0.99 0.33 1.98 0.66 3 1 C2.67 12.22 2.34 23.44 2 35 C1.67 35 1.34 35 1 35 C0.505 17.675 0.505 17.675 0 0 Z " fill="#2A2459" transform="translate(229,66)"/>
<path d="M0 0 C1.32 0 2.64 0 4 0 C4.33 1.32 4.66 2.64 5 4 C4.34 4 3.68 4 3 4 C3 6.31 3 8.62 3 11 C2.01 10.67 1.02 10.34 0 10 C-1.49106457 7.01787087 -1.11941467 4.28390342 -1 1 C-0.67 0.67 -0.34 0.34 0 0 Z " fill="#181674" transform="translate(315,129)"/>
<path d="M0 0 C0.66 0.33 1.32 0.66 2 1 C1.34 2.98 0.68 4.96 0 7 C2.97 7 5.94 7 9 7 C9 7.33 9 7.66 9 8 C6.03 8 3.06 8 0 8 C0.33 8.99 0.66 9.98 1 11 C0.67 11.66 0.34 12.32 0 13 C-0.99 12.67 -1.98 12.34 -3 12 C-2.814375 11.2575 -2.62875 10.515 -2.4375 9.75 C-1.81104559 7.08065626 -1.81104559 7.08065626 -2.625 4.875 C-2.74875 4.25625 -2.8725 3.6375 -3 3 C-1.5625 1.25 -1.5625 1.25 0 0 Z " fill="#1C166B" transform="translate(202,125)"/>
<path d="M0 0 C1.62752231 0.25523874 3.25203196 0.52974494 4.875 0.8125 C6.23238281 1.03873047 6.23238281 1.03873047 7.6171875 1.26953125 C10 2 10 2 12 5 C11.34 5 10.68 5 10 5 C10 5.66 10 6.32 10 7 C2.375 5.125 2.375 5.125 -1 4 C-0.34 3.67 0.32 3.34 1 3 C0.67 2.01 0.34 1.02 0 0 Z " fill="#1C176A" transform="translate(178,109)"/>
<path d="M0 0 C0.66 0.33 1.32 0.66 2 1 C1.67 1.66 1.34 2.32 1 3 C6.94 3 12.88 3 19 3 C19 3.33 19 3.66 19 4 C12.4 4.66 5.8 5.32 -1 6 C-0.67 4.02 -0.34 2.04 0 0 Z " fill="#1E1C58" transform="translate(164,84)"/>
<path d="M0 0 C0.66 0.33 1.32 0.66 2 1 C2.44921875 2.92578125 2.44921875 2.92578125 2.6875 5.3125 C2.77386719 6.09238281 2.86023438 6.87226563 2.94921875 7.67578125 C2.99984424 9.99287105 2.67173402 11.79287394 2 14 C0.35 13.67 -1.3 13.34 -3 13 C-2.67 12.01 -2.34 11.02 -2 10 C-2 10.66 -2 11.32 -2 12 C-1.34 12 -0.68 12 0 12 C0 8.04 0 4.08 0 0 Z " fill="#09084F" transform="translate(270,148)"/>
<path d="M0 0 C0.33 0 0.66 0 1 0 C1 8.25 1 16.5 1 25 C0.01 25 -0.98 25 -2 25 C-2 22.69 -2 20.38 -2 18 C-1.34 18 -0.68 18 0 18 C0 12.06 0 6.12 0 0 Z " fill="#050544" transform="translate(166,117)"/>
<path d="M0 0 C2 2 2 2 2.9375 4.5 C3.8583474 7.30191747 3.8583474 7.30191747 7 9 C7 9.66 7 10.32 7 11 C7.99 11.33 8.98 11.66 10 12 C6.31253672 11.4971641 3.17890804 11.00153469 0 9 C-1.36623674 6.26752652 -1.128426 4.01801098 -1 1 C-0.67 0.67 -0.34 0.34 0 0 Z " fill="#0F0B55" transform="translate(245,88)"/>
<path d="M0 0 C0.66 0.33 1.32 0.66 2 1 C1.34 2.32 0.68 3.64 0 5 C-0.66 5 -1.32 5 -2 5 C-2.2475 5.804375 -2.495 6.60875 -2.75 7.4375 C-4 10 -4 10 -6.125 10.8125 C-6.74375 10.874375 -7.3625 10.93625 -8 11 C-7.49268371 6.60325886 -4.88085945 4.16191891 -2 1 C-1.34 0.67 -0.68 0.34 0 0 Z " fill="#0E0B71" transform="translate(203,72)"/>
<path d="M0 0 C4.26769478 0.25104087 6.49837505 0.59651906 9.875 3.3125 C11.7836979 5.72644147 12.66659445 6.99935003 13 10 C11.0625 9.6875 11.0625 9.6875 9 9 C8.67 8.01 8.34 7.02 8 6 C7.01 5.67 6.02 5.34 5 5 C5 4.01 5 3.02 5 2 C3.35 1.67 1.7 1.34 0 1 C0 0.67 0 0.34 0 0 Z " fill="#1B1958" transform="translate(212,119)"/>
<path d="M0 0 C1.8871875 0.061875 1.8871875 0.061875 3.8125 0.125 C3.8125 0.785 3.8125 1.445 3.8125 2.125 C1.8125 4.125 1.8125 4.125 -1.75 4.625 C-3.4515625 4.8725 -3.4515625 4.8725 -5.1875 5.125 C-5.5175 5.785 -5.8475 6.445 -6.1875 7.125 C-7.1775 7.125 -8.1675 7.125 -9.1875 7.125 C-7.4328046 1.99589037 -5.59164481 -0.18333262 0 0 Z " fill="#06064C" transform="translate(329.1875,119.875)"/>
<path d="M0 0 C1.65 0 3.3 0 5 0 C5.33 0.66 5.66 1.32 6 2 C4.1875 5 4.1875 5 2 8 C1.01 8 0.02 8 -1 8 C-1 4.88742431 -0.82638376 2.89234315 0 0 Z " fill="#120F49" transform="translate(220,141)"/>
<path d="M0 0 C5.28 0 10.56 0 16 0 C15.67 0.99 15.34 1.98 15 3 C13.80375 2.979375 12.6075 2.95875 11.375 2.9375 C7.81995131 2.93117429 4.49444376 3.30111125 1 4 C0.67 2.68 0.34 1.36 0 0 Z " fill="#494F74" transform="translate(313,99)"/>
<path d="M0 0 C0.66 0.66 1.32 1.32 2 2 C1.34 2 0.68 2 0 2 C0 2.66 0 3.32 0 4 C-0.99 4 -1.98 4 -3 4 C-2.84402344 4.62648437 -2.68804687 5.25296875 -2.52734375 5.8984375 C-2.33269531 6.71570313 -2.13804687 7.53296875 -1.9375 8.375 C-1.74027344 9.18710938 -1.54304687 9.99921875 -1.33984375 10.8359375 C-1 13 -1 13 -2 15 C-2.66 15 -3.32 15 -4 15 C-4.144375 14.21625 -4.28875 13.4325 -4.4375 12.625 C-4.87798925 10.03578982 -4.87798925 10.03578982 -6 8 C-5.34 8 -4.68 8 -4 8 C-4 6.02 -4 4.04 -4 2 C-2.68 1.34 -1.36 0.68 0 0 Z " fill="#0B0B66" transform="translate(171,134)"/>
<path d="M0 0 C0.66 0 1.32 0 2 0 C2 0.66 2 1.32 2 2 C2.99 2 3.98 2 5 2 C5.33 1.34 5.66 0.68 6 0 C6 0.66 6 1.32 6 2 C7.98 2 9.96 2 12 2 C12 2.33 12 2.66 12 3 C10.02 3 8.04 3 6 3 C6 3.66 6 4.32 6 5 C9.96 5 13.92 5 18 5 C18 5.33 18 5.66 18 6 C15.68756208 6.02685412 13.3750373 6.04632841 11.0625 6.0625 C9.77472656 6.07410156 8.48695313 6.08570312 7.16015625 6.09765625 C4 6 4 6 3 5 C0 1.16 0 1.16 0 0 Z " fill="#070553" transform="translate(161,81)"/>
<path d="M0 0 C2.14336161 3.4766338 2.21277626 6.21229195 2.125 10.25 C2.10695313 11.32765625 2.08890625 12.4053125 2.0703125 13.515625 C2.03550781 14.74539062 2.03550781 14.74539062 2 16 C1.34 16 0.68 16 0 16 C-1.52634923 12.94730154 -0.83794444 10.24154311 -0.5625 6.875 C-0.46066406 5.59367188 -0.35882813 4.31234375 -0.25390625 2.9921875 C-0.12822266 1.51105469 -0.12822266 1.51105469 0 0 Z " fill="#0D096C" transform="translate(268,144)"/>
<path d="M0 0 C1.98 0 3.96 0 6 0 C6 0.99 6 1.98 6 3 C4.02 3.99 4.02 3.99 2 5 C2 5.99 2 6.98 2 8 C1.34 8 0.68 8 0 8 C-1.125 2.25 -1.125 2.25 0 0 Z " fill="#141149" transform="translate(266,120)"/>
<path d="M0 0 C0.33 0.99 0.66 1.98 1 3 C-3.68493876 5.48887372 -6.9444214 4.85687773 -12 4 C-10 1 -10 1 -6.5625 0.3125 C-3 0 -3 0 0 0 Z " fill="#19196F" transform="translate(180,95)"/>
<path d="M0 0 C2.97 0.495 2.97 0.495 6 1 C6.125 8.625 6.125 8.625 5 12 C4.34 12 3.68 12 3 12 C3 8.37 3 4.74 3 1 C2.01 0.67 1.02 0.34 0 0 Z " fill="#3C6CAA" transform="translate(324,60)"/>
<path d="M0 0 C1.65 0 3.3 0 5 0 C5 0.66 5 1.32 5 2 C4.01 2 3.02 2 2 2 C2 5.63 2 9.26 2 13 C1.01 12.67 0.02 12.34 -1 12 C-0.67 8.04 -0.34 4.08 0 0 Z " fill="#09083B" transform="translate(302,110)"/>
<path d="M0 0 C1.98 0 3.96 0 6 0 C5.67 3.63 5.34 7.26 5 11 C4.34 11 3.68 11 3 11 C3.33 8.69 3.66 6.38 4 4 C3.01 4.33 2.02 4.66 1 5 C0.67 3.35 0.34 1.7 0 0 Z " fill="#090A41" transform="translate(245,59)"/>
<path d="M0 0 C0 5.28 0 10.56 0 16 C-0.33 16 -0.66 16 -1 16 C-1 11.38 -1 6.76 -1 2 C-7.32917961 1.47825081 -7.32917961 1.47825081 -10 3 C-9.67 2.01 -9.34 1.02 -9 0 C-6 -1 -6 -1 0 0 Z " fill="#A8A58C" transform="translate(322,59)"/>
<path d="M0 0 C0.66 0.33 1.32 0.66 2 1 C1.67 6.61 1.34 12.22 1 18 C0.34 18 -0.32 18 -1 18 C-0.979375 16.7625 -0.95875 15.525 -0.9375 14.25 C-0.92517007 11.90731364 -0.96183587 10.12975803 -1.625 7.875 C-2.20980772 4.9509614 -1.05001132 2.71767637 0 0 Z " fill="#5F84B0" transform="translate(322,82)"/>
<path d="M0 0 C0.33 0 0.66 0 1 0 C1.33 1.98 1.66 3.96 2 6 C2.33 6 2.66 6 3 6 C3 8.97 3 11.94 3 15 C2.01 15 1.02 15 0 15 C0 10.05 0 5.1 0 0 Z " fill="#090A51" transform="translate(303,135)"/>
<path d="M0 0 C0.33 1.32 0.66 2.64 1 4 C-5.09339169 5.88341198 -9.72532201 6.0748291 -16 5 C-16 4.67 -16 4.34 -16 4 C-14.89591797 3.94392578 -14.89591797 3.94392578 -13.76953125 3.88671875 C-6.39587342 3.47015527 -6.39587342 3.47015527 0 0 Z " fill="#463F73" transform="translate(219,97)"/>
<path d="M0 0 C3.16033363 4.21377818 3.43052797 5.0489284 3 10 C2.67 10.66 2.34 11.32 2 12 C0.35 12 -1.3 12 -3 12 C-2.01 11.67 -1.02 11.34 0 11 C0 7.37 0 3.74 0 0 Z " fill="#7073C7" transform="translate(319,88)"/>
<path d="M0 0 C0.66 0 1.32 0 2 0 C2 5.28 2 10.56 2 16 C-0.75562541 13.24437459 -0.43034519 11.2779595 -0.6875 7.4375 C-0.77386719 6.26058594 -0.86023438 5.08367187 -0.94921875 3.87109375 C-0.96597656 2.92363281 -0.98273438 1.97617188 -1 1 C-0.67 0.67 -0.34 0.34 0 0 Z " fill="#1B1A5C" transform="translate(285,81)"/>
<path d="M0 0 C1.65 0 3.3 0 5 0 C4.67 3.3 4.34 6.6 4 10 C3.34 8.68 2.68 7.36 2 6 C1.34 6 0.68 6 0 6 C0 4.02 0 2.04 0 0 Z " fill="#80E0E5" transform="translate(324,84)"/>
<path d="M0 0 C3.96 0.33 7.92 0.66 12 1 C12.33 2.32 12.66 3.64 13 5 C12.01 6.485 12.01 6.485 11 8 C10.505 6.824375 10.505 6.824375 10 5.625 C7.1172783 1.84142777 4.60565207 1.83052742 0 1 C0 0.67 0 0.34 0 0 Z " fill="#080658" transform="translate(206,70)"/>
<path d="M0 0 C6.75 0.75 6.75 0.75 9 3 C8.63318342 5.93453261 8.13562754 6.86437246 6 9 C4 5.25 4 5.25 4 3 C2.0399719 1.36323743 2.0399719 1.36323743 0 0 Z " fill="#0A0B47" transform="translate(177,71)"/>
<path d="M0 0 C1.65 0 3.3 0 5 0 C5 3.3 5 6.6 5 10 C4.67 9.01 4.34 8.02 4 7 C3.01 6.67 2.02 6.34 1 6 C0.67 4.02 0.34 2.04 0 0 Z " fill="#120E70" transform="translate(291,125)"/>
<path d="M0 0 C-0.33 0.99 -0.66 1.98 -1 3 C-4.96 3 -8.92 3 -13 3 C-13 2.34 -13 1.68 -13 1 C-8.61414671 0.29826347 -4.44209357 -0.10834375 0 0 Z " fill="#4A5F72" transform="translate(342,86)"/>
<path d="M0 0 C1.5635348 3.12706959 1.39958487 6.57982443 1 10 C0.01 11.485 0.01 11.485 -1 13 C-1.66 13 -2.32 13 -3 13 C-2.88490339 11.58249437 -2.75746342 10.16598831 -2.625 8.75 C-2.55539063 7.96109375 -2.48578125 7.1721875 -2.4140625 6.359375 C-1.98492887 3.914123 -1.21399362 2.15163097 0 0 Z " fill="#1A1650" transform="translate(195,76)"/>
<path d="M0 0 C0.33 0 0.66 0 1 0 C1 1.65 1 3.3 1 5 C6.94 5.33 12.88 5.66 19 6 C19 6.33 19 6.66 19 7 C13.06 7.33 7.12 7.66 1 8 C-0.35439668 5.29120665 -0.06501451 2.99066732 0 0 Z " fill="#8A636D" transform="translate(299,73)"/>
<path d="M0 0 C0.33 0 0.66 0 1 0 C1 3.3 1 6.6 1 10 C0.67 9.34 0.34 8.68 0 8 C-0.99 8 -1.98 8 -3 8 C-3.33 6.35 -3.66 4.7 -4 3 C-2.68 2.67 -1.36 2.34 0 2 C0 1.34 0 0.68 0 0 Z " fill="#0D0F6D" transform="translate(151,74)"/>
<path d="M0 0 C-1.11375 0.391875 -2.2275 0.78375 -3.375 1.1875 C-6.31960666 2.42482967 -6.85882545 2.73606497 -8.4375 5.6875 C-8.623125 6.450625 -8.80875 7.21375 -9 8 C-9.99 8 -10.98 8 -12 8 C-10.82191948 4.6470016 -9.80593388 2.2447471 -7 0 C-3.86650268 -1.04449911 -3.01031744 -0.93423645 0 0 Z " fill="#2A256C" transform="translate(175,75)"/>
<path d="M0 0 C-3 3 -6 6 -9 9 C-7.54169976 2.55917395 -7.54169976 2.55917395 -5.0625 0 C-3 -1 -3 -1 0 0 Z " fill="#0D0B5A" transform="translate(204,71)"/>
<path d="M0 0 C1.72880982 -0.05449838 3.45812712 -0.09301688 5.1875 -0.125 C6.15042969 -0.14820312 7.11335938 -0.17140625 8.10546875 -0.1953125 C11.12812778 0.0086456 13.26769985 0.73125368 16 2 C15.67 2.66 15.34 3.32 15 4 C14.34 3.67 13.68 3.34 13 3 C12.67 3.66 12.34 4.32 12 5 C11.01 4.34 10.02 3.68 9 3 C9.33 2.34 9.66 1.68 10 1 C6.7 1 3.4 1 0 1 C0 0.67 0 0.34 0 0 Z " fill="#62A8D2" transform="translate(327,73)"/>
<path d="M0 0 C0.33 0.66 0.66 1.32 1 2 C0.01 3.485 0.01 3.485 -1 5 C-2.32 5 -3.64 5 -5 5 C-5 5.66 -5 6.32 -5 7 C-6.65 6.67 -8.3 6.34 -10 6 C-7.13824239 3.6681975 -4.44267513 2.30263383 -1 1 C-0.67 0.67 -0.34 0.34 0 0 Z " fill="#130C68" transform="translate(336,144)"/>
<path d="M0 0 C0.33 0 0.66 0 1 0 C1.33 4.29 1.66 8.58 2 13 C1.01 13 0.02 13 -1 13 C-1.02708567 11.39592672 -1.04643483 9.7917215 -1.0625 8.1875 C-1.07410156 7.29417969 -1.08570313 6.40085937 -1.09765625 5.48046875 C-1 3 -1 3 0 0 Z " fill="#140F6B" transform="translate(151,85)"/>
<path d="M0 0 C0.99 0.33 1.98 0.66 3 1 C2.67 2.32 2.34 3.64 2 5 C2.66 5 3.32 5 4 5 C4.33 5.99 4.66 6.98 5 8 C1.56404834 6.47291037 -1.11912454 4.40072955 -4 2 C-3.34 1.67 -2.68 1.34 -2 1 C-1.34 1.33 -0.68 1.66 0 2 C0 1.34 0 0.68 0 0 Z " fill="#161361" transform="translate(254,121)"/>
<path d="M0 0 C4.95 0 9.9 0 15 0 C12.09907498 1.93395001 11.10325263 2.30131941 7.8125 2.625 C6.554375 2.74875 5.29625 2.8725 4 3 C4 2.34 4 1.68 4 1 C2.68 0.67 1.36 0.34 0 0 Z " fill="#4A6A7E" transform="translate(327,79)"/>
<path d="M0 0 C0.33 0.66 0.66 1.32 1 2 C3.52733235 2.65555119 3.52733235 2.65555119 6 3 C5.67 3.66 5.34 4.32 5 5 C2.67843403 5.40729228 0.3431213 5.74438677 -2 6 C-2 5.01 -2 4.02 -2 3 C-1.34 2.67 -0.68 2.34 0 2 C0 1.34 0 0.68 0 0 Z " fill="#08084A" transform="translate(211,118)"/>
<path d="M0 0 C0.99 0.33 1.98 0.66 3 1 C3 1.66 3 2.32 3 3 C0.5622037 3.05397335 -1.87439685 3.09365616 -4.3125 3.125 C-5.34793945 3.15013672 -5.34793945 3.15013672 -6.40429688 3.17578125 C-10.17135396 3.21217794 -11.78431704 3.14378864 -15 1 C-10.05 1.33 -5.1 1.66 0 2 C0 1.34 0 0.68 0 0 Z " fill="#5C85AB" transform="translate(340,76)"/>
<path d="M0 0 C1.98 0.99 1.98 0.99 4 2 C3.67 4.31 3.34 6.62 3 9 C2.01 8.67 1.02 8.34 0 8 C0 5.36 0 2.72 0 0 Z " fill="#0C0A5A" transform="translate(245,61)"/>
<path d="M0 0 C0.66 0.66 1.32 1.32 2 2 C1.70700977 3.67422986 1.37309899 5.34178227 1 7 C1.33 7.66 1.66 8.32 2 9 C1.67 9.66 1.34 10.32 1 11 C0.34 11 -0.32 11 -1 11 C-2.26264601 6.70700357 -1.62950412 4.12168689 0 0 Z " fill="#120E68" transform="translate(199,130)"/>
<path d="M0 0 C2.73718336 1.0036339 3.83441815 1.72904788 5.375 4.25 C6.17076673 7.75137361 5.36619736 9.73630632 4 13 C3.67 13 3.34 13 3 13 C2.80083984 11.84371094 2.80083984 11.84371094 2.59765625 10.6640625 C2.42105469 9.66117188 2.24445313 8.65828125 2.0625 7.625 C1.88847656 6.62726563 1.71445312 5.62953125 1.53515625 4.6015625 C1.12287938 2.03090344 1.12287938 2.03090344 0 0 Z " fill="#262761" transform="translate(288,127)"/>
<path d="M0 0 C0.33 0 0.66 0 1 0 C1 1.65 1 3.3 1 5 C1.66 5.33 2.32 5.66 3 6 C2.34 6 1.68 6 1 6 C1.33 6.556875 1.66 7.11375 2 7.6875 C3.1309601 10.30284522 3.15662974 12.1806646 3 15 C2.01 14.34 1.02 13.68 0 13 C-0.29296875 9.9609375 -0.29296875 9.9609375 -0.1875 6.375 C-0.16042969 5.18648438 -0.13335937 3.99796875 -0.10546875 2.7734375 C-0.07066406 1.85820313 -0.03585938 0.94296875 0 0 Z " fill="#0A0752" transform="translate(159,80)"/>
<path d="M0 0 C0.99 0.33 1.98 0.66 3 1 C2.67 4.3 2.34 7.6 2 11 C1.34 11 0.68 11 0 11 C0 7.37 0 3.74 0 0 Z " fill="#140E6B" transform="translate(150,62)"/>
<path d="M0 0 C2.64 0 5.28 0 8 0 C8.33 0.66 8.66 1.32 9 2 C8.34 2 7.68 2 7 2 C6.67 2.66 6.34 3.32 6 4 C4 4 4 4 1 3 C1.33 2.34 1.66 1.68 2 1 C1.34 0.67 0.68 0.34 0 0 Z " fill="#17165F" transform="translate(243,146)"/>
<path d="M0 0 C1.875 0.625 1.875 0.625 4 2 C5.3125 5 5.3125 5 6 8 C5.67 8.66 5.34 9.32 5 10 C4.34 10 3.68 10 3 10 C2.690625 8.906875 2.38125 7.81375 2.0625 6.6875 C1.41662103 4.44592006 0.7376883 2.2130649 0 0 Z " fill="#29205B" transform="translate(215,76)"/>
<path d="M0 0 C2.96404505 2.80804268 5.44499019 5.18315774 7 9 C3.73539027 7.19587357 2.11070205 6.16605307 0 3 C0 2.01 0 1.02 0 0 Z " fill="#181751" transform="translate(312,141)"/>
<path d="M0 0 C0.37125 0.433125 0.7425 0.86625 1.125 1.3125 C3.51281095 3.46152985 6.1019568 4.64757984 9 6 C7.3125 6.6875 7.3125 6.6875 5 7 C2.25 5.8125 2.25 5.8125 0 4 C0 2.68 0 1.36 0 0 Z " fill="#0A0842" transform="translate(273,141)"/>
<path d="M0 0 C0 0.66 0 1.32 0 2 C-3.52679099 4.35119399 -5.02879485 4.21443452 -9.1875 4.125 C-10.27417969 4.10695312 -11.36085937 4.08890625 -12.48046875 4.0703125 C-13.72763672 4.03550781 -13.72763672 4.03550781 -15 4 C-15 3.67 -15 3.34 -15 3 C-13.96939453 2.92652344 -13.96939453 2.92652344 -12.91796875 2.8515625 C-11.56638672 2.73941406 -11.56638672 2.73941406 -10.1875 2.625 C-9.29417969 2.55539063 -8.40085938 2.48578125 -7.48046875 2.4140625 C-4.52256779 1.92030265 -2.96273179 0 0 0 Z " fill="#010251" transform="translate(189,132)"/>
<path d="M0 0 C2.14675591 0.46001912 3.93030113 0.96282727 5.875 2 C8.5382649 3.25330113 11.09722329 3.60416681 14 4 C14 4.33 14 4.66 14 5 C8.76389884 5.31416607 5.48507697 4.77647622 1 2 C0.67 1.34 0.34 0.68 0 0 Z " fill="#322B5B" transform="translate(245,97)"/>
<path d="M0 0 C0.99 0.495 0.99 0.495 2 1 C2 1.99 2 2.98 2 4 C2.66 4 3.32 4 4 4 C4.66 5.65 5.32 7.3 6 9 C2.83884224 7.63016497 2.0072908 7.0109362 0 4 C0 2.68 0 1.36 0 0 Z " fill="#2F295E" transform="translate(193,90)"/>
<path d="M0 0 C1.875 0.3125 1.875 0.3125 4 1 C4.66 1.99 5.32 2.98 6 4 C5.01 4 4.02 4 3 4 C2.34 4.66 1.68 5.32 1 6 C0.34 5.67 -0.32 5.34 -1 5 C-1 4.34 -1 3.68 -1 3 C-0.34 2.67 0.32 2.34 1 2 C0.67 1.34 0.34 0.68 0 0 Z " fill="#080748" transform="translate(289,122)"/>
<path d="M0 0 C3.375 0.3125 3.375 0.3125 7 1 C7.66 1.99 8.32 2.98 9 4 C7.68 4.33 6.36 4.66 5 5 C5 4.01 5 3.02 5 2 C3.35 1.67 1.7 1.34 0 1 C0 0.67 0 0.34 0 0 Z " fill="#2B265F" transform="translate(212,119)"/>
<path d="M0 0 C2 1.8125 2 1.8125 4 4 C4 4.99 4 5.98 4 7 C3.01 6.67 2.02 6.34 1 6 C-0.1875 3.4375 -0.1875 3.4375 -1 1 C-0.67 0.67 -0.34 0.34 0 0 Z " fill="#5C4FA6" transform="translate(317,81)"/>
<path d="M0 0 C0.66 0.33 1.32 0.66 2 1 C1.67 2.98 1.34 4.96 1 7 C0.01 7 -0.98 7 -2 7 C-2 5.02 -2 3.04 -2 1 C-1.34 0.67 -0.68 0.34 0 0 Z " fill="#17155E" transform="translate(186,76)"/>
<path d="M0 0 C0.66 0 1.32 0 2 0 C2 2.64 2 5.28 2 8 C1.67 7.34 1.34 6.68 1 6 C0.34 6 -0.32 6 -1 6 C-1.042721 4.33388095 -1.04063832 2.66617115 -1 1 C-0.67 0.67 -0.34 0.34 0 0 Z " fill="#0D0E44" transform="translate(264,67)"/>
<path d="M0 0 C0.99 0 1.98 0 3 0 C2.25 5.75 2.25 5.75 0 8 C-0.66 7.67 -1.32 7.34 -2 7 C-1.34 4.69 -0.68 2.38 0 0 Z " fill="#1C1B55" transform="translate(125,59)"/>
<path d="M0 0 C4.8 3.44615385 4.8 3.44615385 5.8125 6.25 C5.874375 6.8275 5.93625 7.405 6 8 C2.83884224 6.63016497 2.0072908 6.0109362 0 3 C0 2.01 0 1.02 0 0 Z " fill="#18144E" transform="translate(196,141)"/>
<path d="M0 0 C0.33 0.66 0.66 1.32 1 2 C2.93330603 3.09166275 2.93330603 3.09166275 5 4 C5.66 4.33 6.32 4.66 7 5 C7 5.66 7 6.32 7 7 C6.01 7 5.02 7 4 7 C4 6.34 4 5.68 4 5 C3.01 5 2.02 5 1 5 C0.67 3.35 0.34 1.7 0 0 Z " fill="#100D4F" transform="translate(198,90)"/>
<path d="M0 0 C2.97 0.33 5.94 0.66 9 1 C8.67 2.32 8.34 3.64 8 5 C7.34 5 6.68 5 6 5 C5.67 4.01 5.34 3.02 5 2 C3.35 1.67 1.7 1.34 0 1 C0 0.67 0 0.34 0 0 Z " fill="#5A9AAB" transform="translate(324,81)"/>
<path d="M0 0 C0.99 0.33 1.98 0.66 3 1 C3 2.98 3 4.96 3 7 C1.02 7.33 -0.96 7.66 -3 8 C-2.67 7.01 -2.34 6.02 -2 5 C-0.02 5.495 -0.02 5.495 2 6 C2 4.68 2 3.36 2 2 C1.34 2 0.68 2 0 2 C0 1.34 0 0.68 0 0 Z " fill="#292559" transform="translate(257,69)"/>
<path d="M0 0 C-0.66 0.66 -1.32 1.32 -2 2 C-4.72869407 1.96712417 -7.2966618 1.43602229 -10 1 C-10 0.67 -10 0.34 -10 0 C-6.30458414 -0.95024979 -3.69541586 -0.95024979 0 0 Z " fill="#090C5B" transform="translate(249,122)"/>
<path d="M0 0 C3.73487777 0.4979837 5.81237635 0.87491756 9 3 C2.25 3.125 2.25 3.125 0 2 C0 1.34 0 0.68 0 0 Z " fill="#20204C" transform="translate(244,118)"/>
<path d="M0 0 C0 1.32 0 2.64 0 4 C-1.65 4 -3.3 4 -5 4 C-5 3.01 -5 2.02 -5 1 C-2 0 -2 0 0 0 Z " fill="#1C1645" transform="translate(225,98)"/>
<path d="M0 0 C1.98 0.66 3.96 1.32 6 2 C6 2.66 6 3.32 6 4 C4.02 4 2.04 4 0 4 C0 2.68 0 1.36 0 0 Z " fill="#060537" transform="translate(122,96)"/>
</svg>
